<svg width="24" height="24" viewBox="0 0 24 24" fill="none" xmlns="http://www.w3.org/2000/svg">
<path d="M6.99993 20L7.99993 20L17.4299 20C18.4999 20 19.4099 19.33 19.6199 18.39L20.9599 12.39C21.2299 11.15 20.1799 10 18.7699 10L14.5399 10L16.0599 5.06C16.3799 4.03 15.5399 3 14.3799 3C13.7999 3 13.2399 3.24 12.8599 3.65L6.99993 10L2.99993 10L2.99993 20L6.99993 20ZM13.5999 4.33C13.7899 4.12 14.0799 4 14.3799 4C14.6399 4 14.8799 4.11 15.0099 4.3C15.0799 4.4 15.1599 4.56 15.0999 4.77L13.5799 9.71L13.1799 11L14.5399 11L18.7699 11C19.1799 11 19.5699 11.17 19.7999 11.46C19.9199 11.61 20.0499 11.86 19.9799 12.18L18.6399 18.18C18.5399 18.65 18.0299 19 17.4299 19L7.99993 19L7.99993 10.39L13.5999 4.33ZM3.99993 11L6.99993 11L6.99993 19L3.99993 19L3.99993 11Z" fill="#2E7D32"/>
</svg>
