<svg width="175" height="122" viewBox="0 0 175 122" fill="none" xmlns="http://www.w3.org/2000/svg">
<mask id="mask0_12_259" style="mask-type:luminance" maskUnits="userSpaceOnUse" x="47" y="87" width="84" height="34">
<path d="M47.6638 120.217L130.339 120.217V87.5278H47.6638V120.217Z" fill="white"/>
</mask>
<g mask="url(#mask0_12_259)">
<path d="M117.779 122.828C115.602 124.067 113.373 124.96 111.287 125.547C111.028 125.618 110.768 125.69 110.514 125.758C110.257 125.821 110.001 125.876 109.749 125.93C109.244 126.033 108.756 126.136 108.277 126.207C107.316 126.339 106.42 126.436 105.581 126.434C102.237 126.474 100.102 125.538 99.8284 124.165C99.5459 122.754 101.072 121.175 103.464 119.475C104.068 119.063 104.716 118.602 105.424 118.17C105.775 117.95 106.134 117.713 106.508 117.489C106.696 117.378 106.885 117.266 107.076 117.152C107.267 117.034 107.461 116.917 107.655 116.797C109.224 115.864 110.945 114.891 112.743 113.867C114.546 112.846 116.107 111.976 117.511 111.301C118.897 110.605 120.127 110.116 121.203 109.81C121.739 109.655 122.247 109.558 122.718 109.51C123.183 109.452 123.614 109.452 124.013 109.501C124.809 109.604 125.468 109.916 125.956 110.428C126.444 110.943 126.718 111.61 126.727 112.439C126.73 112.854 126.67 113.309 126.536 113.804C126.396 114.291 126.176 114.811 125.882 115.372C125.292 116.488 124.35 117.713 123.026 119.003C121.688 120.268 119.959 121.595 117.779 122.828Z" fill="#547374"/>
<path d="M125.714 110.651C122.532 113.229 118.184 116.316 113.47 118.751C111.119 119.976 108.697 121.057 106.363 121.959C104.031 122.863 101.791 123.581 99.8312 124.165C101.86 123.907 104.191 123.424 106.611 122.668C109.03 121.916 111.538 120.888 113.932 119.641C118.737 117.16 122.995 113.715 125.714 110.651Z" fill="#6D9B7C"/>
<path d="M104.907 115.853C105.909 116.165 107.159 116.331 108.523 116.222C109.193 116.159 109.895 116.03 110.608 115.838C111.327 115.65 112.015 115.361 112.717 115.029C113.425 114.7 114.072 114.273 114.709 113.816C115.351 113.364 115.924 112.837 116.452 112.288C116.714 112.013 116.974 111.735 117.205 111.447C117.431 111.155 117.645 110.86 117.842 110.565C118.241 109.979 118.581 109.389 118.82 108.808C118.592 109.009 118.355 109.215 118.115 109.426C117.867 109.63 117.613 109.836 117.354 110.045C116.829 110.457 116.318 110.894 115.733 111.286C115.159 111.684 114.583 112.085 113.981 112.454C113.367 112.814 112.748 113.158 112.129 113.478C110.857 114.09 109.598 114.611 108.354 114.983C107.139 115.384 105.932 115.615 104.907 115.853Z" fill="#D8E29F"/>
<path d="M102.608 117.833C103.412 118.293 104.465 118.685 105.629 118.817C106.214 118.889 106.836 118.909 107.478 118.871C108.12 118.834 108.756 118.711 109.41 118.545C109.735 118.459 110.06 118.359 110.383 118.248C110.7 118.127 111.008 117.993 111.313 117.847C111.918 117.549 112.531 117.223 113.056 116.826C113.59 116.434 114.087 116.01 114.529 115.575C114.954 115.126 115.325 114.663 115.639 114.21C115.179 114.474 114.697 114.751 114.192 115.04C113.687 115.318 113.145 115.575 112.603 115.833C112.329 115.961 112.055 116.085 111.778 116.205C111.499 116.325 111.205 116.428 110.919 116.537C110.34 116.745 109.761 116.937 109.182 117.106C108.585 117.258 107.997 117.386 107.418 117.495C107.13 117.549 106.845 117.598 106.562 117.638C106.274 117.672 105.989 117.704 105.709 117.73C105.15 117.781 104.611 117.813 104.097 117.836C103.581 117.85 103.073 117.836 102.608 117.833Z" fill="#D8E29F"/>
<path d="M100.465 119.644C100.987 120.067 101.672 120.454 102.482 120.714C102.887 120.846 103.321 120.946 103.775 121.009C104.22 121.06 104.685 121.077 105.156 121.052C105.626 121.026 106.106 120.963 106.577 120.86C107.036 120.745 107.487 120.594 107.915 120.414C108.788 120.064 109.524 119.555 110.098 119.034C108.674 119.469 106.916 119.89 105.193 119.987C104.32 120.03 103.481 120.019 102.679 119.947C101.871 119.873 101.124 119.755 100.465 119.644Z" fill="#D8E29F"/>
<path d="M107.358 113.361C108.36 113.452 109.473 113.318 110.691 112.989C111.299 112.823 111.889 112.58 112.5 112.299C112.802 112.156 113.111 112.004 113.41 111.833C113.701 111.658 113.992 111.472 114.278 111.275C114.848 110.88 115.419 110.445 115.913 109.956C116.412 109.467 116.911 108.966 117.316 108.419C117.727 107.876 118.101 107.324 118.421 106.771C118.717 106.21 118.971 105.655 119.168 105.126C117.556 106.631 115.562 108.411 113.453 109.873C111.362 111.364 109.11 112.468 107.358 113.361Z" fill="#D8E29F"/>
<path d="M109.969 110.316C111.635 110.11 113.698 109.089 115.353 107.435C117.025 105.804 118.124 103.567 118.458 101.764C117.268 103.152 115.924 104.88 114.383 106.382L113.821 106.949C113.63 107.135 113.43 107.309 113.236 107.487C112.851 107.836 112.469 108.182 112.098 108.52C111.715 108.843 111.342 109.155 110.985 109.458C110.811 109.61 110.637 109.758 110.471 109.904C110.3 110.045 110.132 110.185 109.969 110.316Z" fill="#D8E29F"/>
<path d="M111.818 106.92C112.178 106.806 112.56 106.651 112.937 106.448C113.308 106.239 113.684 105.99 114.058 105.701C114.826 105.135 115.496 104.374 116.101 103.53C116.395 103.103 116.64 102.648 116.869 102.188C116.98 101.956 117.085 101.724 117.182 101.492C117.271 101.258 117.345 101.02 117.416 100.783C117.556 100.311 117.662 99.8472 117.733 99.4037C117.79 98.9545 117.802 98.5225 117.787 98.1248C117.588 98.471 117.388 98.8372 117.182 99.2149C116.963 99.5897 116.737 99.976 116.503 100.371C116.067 101.169 115.522 101.959 115.017 102.746C113.935 104.305 112.768 105.738 111.818 106.92Z" fill="#D8E29F"/>
<path d="M104.876 115.821C104.548 114.791 104.328 113.587 104.225 112.328C104.163 111.69 104.131 111.04 104.137 110.402C104.145 109.764 104.143 109.1 104.205 108.479C104.274 107.861 104.328 107.226 104.439 106.64C104.556 106.059 104.67 105.481 104.825 104.949C104.899 104.683 104.993 104.428 105.079 104.182C105.161 103.93 105.25 103.687 105.35 103.458C105.549 103 105.778 102.585 105.994 102.205C106.006 102.434 106.02 102.674 106.026 102.917C106.023 103.16 106.02 103.407 106.017 103.661C106.003 104.168 106.017 104.72 105.977 105.263C105.949 105.821 105.92 106.394 105.889 106.98C105.84 107.558 105.798 108.156 105.758 108.768C105.646 109.964 105.558 111.22 105.401 112.408C105.273 113.621 105.076 114.754 104.876 115.821Z" fill="#D8E29F"/>
<path d="M102.705 117.947C102.371 117.069 102.151 116.03 102.011 114.894C101.946 114.331 101.911 113.756 101.911 113.186C101.908 112.614 101.914 112.022 101.968 111.464C101.994 111.183 102.028 110.906 102.071 110.637C102.108 110.362 102.145 110.087 102.197 109.824C102.291 109.289 102.442 108.811 102.579 108.328C102.722 107.853 102.899 107.418 103.098 107.029C103.281 106.625 103.486 106.262 103.715 105.953C103.7 106.365 103.683 106.797 103.666 107.246C103.64 107.698 103.592 108.159 103.561 108.651C103.543 108.897 103.526 109.146 103.509 109.401C103.486 109.65 103.464 109.904 103.441 110.159C103.395 110.671 103.352 111.2 103.318 111.741C103.267 112.265 103.221 112.803 103.181 113.341C103.161 113.612 103.141 113.881 103.121 114.153C103.095 114.416 103.07 114.683 103.044 114.943C102.996 115.472 102.944 115.996 102.899 116.499C102.844 117.006 102.77 117.481 102.705 117.947Z" fill="#D8E29F"/>
<path d="M100.462 119.641C100.208 119.012 100.025 118.239 99.9397 117.424C99.8969 117.014 99.8798 116.597 99.8855 116.176C99.8826 115.747 99.9054 115.315 99.9511 114.897C99.9996 114.479 100.074 114.073 100.168 113.69C100.254 113.292 100.359 112.914 100.488 112.568C100.753 111.884 101.064 111.272 101.421 110.82C101.312 112.042 101.081 113.532 100.918 115.106C100.821 115.879 100.761 116.688 100.69 117.458C100.61 118.228 100.533 118.972 100.462 119.641Z" fill="#D8E29F"/>
<path d="M107.133 113.169C106.91 112.228 106.719 111.092 106.668 109.95C106.639 109.378 106.605 108.771 106.619 108.185C106.622 107.89 106.636 107.598 106.654 107.306C106.662 107.009 106.676 106.714 106.699 106.422C106.745 105.839 106.83 105.281 106.902 104.72C106.976 104.162 107.113 103.644 107.221 103.129C107.336 102.617 107.487 102.142 107.655 101.698C107.803 101.246 107.978 100.831 108.177 100.462C108.451 102.196 108.423 104.388 108.254 106.668C108.089 108.949 107.698 111.275 107.133 113.169Z" fill="#D8E29F"/>
<path d="M109.35 109.887C108.976 108.271 108.893 106.145 109.153 104.179C109.416 102.202 109.946 100.342 110.737 99.0547C110.862 100.565 110.797 102.488 110.531 104.414L110.44 105.143C110.406 105.387 110.36 105.624 110.32 105.864C110.235 106.348 110.146 106.826 110.063 107.292C109.955 107.753 109.844 108.205 109.729 108.643C109.67 108.863 109.61 109.077 109.553 109.286C109.484 109.492 109.416 109.693 109.35 109.887Z" fill="#D8E29F"/>
<path d="M111.55 106.771C111.459 106.405 111.399 106.016 111.347 105.601C111.29 105.183 111.259 104.748 111.25 104.305C111.253 103.427 111.273 102.482 111.447 101.587C111.519 101.135 111.598 100.683 111.718 100.253C111.775 100.039 111.841 99.8271 111.912 99.6183C111.975 99.4094 112.038 99.2034 112.112 99.0031C112.255 98.6026 112.423 98.2249 112.608 97.8729C112.78 97.5182 112.962 97.1891 113.165 96.8944C113.176 97.2492 113.179 97.6269 113.173 98.0217C113.151 98.4108 113.119 98.8171 113.085 99.2349C113.036 100.079 112.871 100.937 112.76 101.827C112.452 103.575 112.095 105.366 111.55 106.771Z" fill="#D8E29F"/>
<path d="M116.101 94.6227C115.442 95.9674 114.868 97.7385 114.261 99.501C113.995 100.394 113.676 101.269 113.456 102.13C113.196 102.975 112.999 103.793 112.857 104.522C113.339 103.956 113.798 103.238 114.238 102.451C114.637 101.644 115.057 100.774 115.331 99.8558C115.955 98.0389 116.181 96.1019 116.101 94.6227Z" fill="#D8E29F"/>
<path d="M114.024 101.93C112.474 105.026 110.18 108.886 107.361 112.348C105.952 114.076 104.431 115.71 102.916 117.175C101.401 118.642 99.8655 119.89 98.5273 120.989C100.045 120.167 101.754 119.103 103.409 117.735C105.061 116.371 106.688 114.748 108.132 112.977C111.025 109.429 113.096 105.266 114.024 101.93Z" fill="#B0C98F"/>
<path d="M64.564 110.471C68.6957 112.52 71.977 115.218 73.9116 117.633C75.8604 120.053 76.4995 122.145 75.6749 123.192C74.8389 124.259 72.7445 124.13 70.0139 123.318C67.2776 122.497 63.8821 121.017 60.2412 119.212C56.6004 117.412 54.0324 115.867 52.4488 114.371C52.0522 114.002 51.7212 113.63 51.4501 113.264C51.1762 112.903 50.9679 112.545 50.8195 112.191C50.5228 111.484 50.4771 110.794 50.674 110.151C50.8709 109.507 51.296 108.969 51.9666 108.571C52.3033 108.374 52.6999 108.208 53.1621 108.085C53.6215 107.967 54.1408 107.893 54.7286 107.862C57.0598 107.747 60.4296 108.425 64.564 110.471Z" fill="#547374"/>
<path d="M50.9765 110.245C54.5802 111.687 59.2255 113.67 63.6852 116.027C68.1592 118.359 72.4307 121.054 75.6749 123.192C74.2425 121.879 72.4963 120.459 70.5304 119.083C68.5673 117.704 66.3845 116.371 64.1246 115.186C59.6107 112.8 54.7657 111.08 50.9765 110.245Z" fill="#6D9B7C"/>
<path d="M104.99 102.245C102.425 103.504 100.214 105.012 98.3275 106.703C96.4415 108.397 94.8836 110.274 93.6395 112.342C92.3898 114.408 91.4482 116.66 90.8233 119.12C90.2013 121.578 89.8902 124.242 89.9644 127.106C92.8121 127.034 95.5769 126.179 97.9994 124.694C100.422 123.212 102.496 121.1 103.989 118.634C105.481 116.165 106.385 113.346 106.577 110.505C106.765 107.661 106.243 104.809 104.99 102.245Z" fill="#6D9B7C"/>
<path d="M102.727 118.648C102.787 118.608 102.807 118.528 102.773 118.468C102.739 118.408 102.662 118.394 102.602 118.434C102.128 118.748 101.632 119.014 101.121 119.22C100.602 119.421 100.071 119.567 99.5373 119.658C98.4759 119.841 97.3717 119.776 96.3388 119.495L96.9437 118.631L97.5257 117.753C97.9195 117.172 98.2847 116.571 98.6585 115.976C99.817 116.045 100.967 115.844 102.077 115.429C103.167 115.003 104.214 114.351 105.073 113.487C105.124 113.435 105.127 113.355 105.081 113.304C105.036 113.252 104.956 113.252 104.904 113.304C104.086 114.125 103.095 114.748 102.06 115.166C101.004 115.572 99.9054 115.773 98.8069 115.736C99.991 113.784 101.081 111.776 102.068 109.718C102.071 109.718 102.074 109.721 102.077 109.718C102.776 109.61 103.455 109.372 104.071 109.017C104.693 108.668 105.267 108.208 105.735 107.65C105.78 107.595 105.778 107.515 105.726 107.47C105.675 107.424 105.598 107.429 105.552 107.484C105.332 107.738 105.098 107.976 104.845 108.188C104.585 108.399 104.314 108.588 104.028 108.754C103.458 109.083 102.85 109.321 102.205 109.441C102.941 107.867 103.643 106.274 104.257 104.643C104.282 104.58 104.251 104.508 104.185 104.482C104.123 104.46 104.051 104.491 104.026 104.554C103.318 106.414 102.525 108.242 101.649 110.027C101.343 109.449 101.132 108.84 100.998 108.211C100.861 107.581 100.818 106.943 100.87 106.316C100.876 106.251 100.824 106.191 100.756 106.185C100.687 106.179 100.63 106.228 100.627 106.294C100.567 106.969 100.622 107.661 100.776 108.342C100.918 109.015 101.164 109.678 101.509 110.296C101.509 110.299 101.512 110.299 101.515 110.302C100.713 111.904 99.874 113.492 98.9467 115.026C97.8596 113.112 97.4002 110.889 97.6285 108.829C97.637 108.766 97.5885 108.706 97.52 108.694C97.4544 108.683 97.3916 108.726 97.3859 108.791C97.1548 110.946 97.6342 113.269 98.804 115.269C97.8881 116.768 96.9408 118.248 95.9193 119.673C94.7009 117.893 94.1474 115.75 94.2929 113.721C94.2986 113.658 94.2473 113.598 94.1816 113.59C94.116 113.581 94.0589 113.624 94.0532 113.69C93.9847 114.751 94.0761 115.821 94.3757 116.886C94.6553 117.936 95.1232 118.963 95.7681 119.887L94.5412 121.547C94.1132 122.085 93.6994 122.637 93.2629 123.166C92.4782 122.096 92.0074 120.786 91.956 119.501C91.9532 119.435 91.8961 119.381 91.8305 119.381C91.7649 119.381 91.7106 119.432 91.7135 119.498C91.7763 120.857 92.2642 122.236 93.1031 123.364C92.3641 124.271 91.5965 125.155 90.809 126.019C90.7633 126.067 90.7662 126.147 90.8175 126.193C90.8689 126.239 90.946 126.236 90.9916 126.185C91.4881 125.655 91.9503 125.1 92.4297 124.557C92.8948 124.002 93.3599 123.446 93.8135 122.883C95.0804 123.472 96.567 123.624 97.9623 123.22C98.0308 123.2 98.0707 123.132 98.0565 123.063C98.0422 122.994 97.9737 122.957 97.9052 122.974C96.5898 123.361 95.1803 123.223 93.9733 122.68C94.7437 121.71 95.4856 120.72 96.2018 119.71C98.3332 120.333 100.756 119.99 102.727 118.648Z" fill="#B0C98F"/>
<path d="M76.782 109.263C78.494 111.083 79.8922 113.032 80.9593 114.917C82.0322 116.803 82.7797 118.625 83.202 120.239C84.058 123.475 83.69 125.778 82.4316 126.388C81.1419 127.014 79.2302 125.927 76.9932 124.01C75.8775 123.046 74.6563 121.876 73.3637 120.571C72.074 119.263 70.7158 117.818 69.2892 116.302C67.8654 114.783 66.647 113.458 65.6626 112.242C64.6611 111.046 63.8964 109.959 63.3457 108.974C63.0689 108.485 62.8578 108.01 62.7008 107.564C62.5382 107.123 62.4383 106.7 62.3955 106.299C62.3128 105.498 62.464 104.783 62.8521 104.188C63.2401 103.593 63.8279 103.175 64.6297 102.975C65.032 102.874 65.4857 102.831 65.9964 102.849C66.5015 102.874 67.055 102.966 67.6656 103.123C68.884 103.441 70.285 104.073 71.8429 105.06C73.3866 106.07 75.0757 107.438 76.782 109.263Z" fill="#6D9B7C"/>
<path d="M63.1288 104.379C66.3617 106.897 70.3678 110.422 73.8574 114.434C75.6065 116.431 77.2414 118.531 78.6824 120.58C80.1262 122.628 81.3759 124.625 82.4317 126.388C81.6755 124.479 80.6341 122.336 79.3101 120.168C77.989 117.999 76.3911 115.807 74.6078 113.773C71.0583 109.684 66.7269 106.336 63.1288 104.379Z" fill="#B0C98F"/>
<path d="M74.5707 110.133C74.9987 109.138 75.3325 107.95 75.538 106.683C75.6521 106.045 75.7291 105.387 75.7691 104.734C75.8062 104.082 75.8404 103.407 75.8147 102.76C75.7834 102.116 75.7491 101.464 75.6635 100.846C75.5694 100.234 75.4695 99.6299 75.3297 99.0662C75.2612 98.783 75.1756 98.514 75.09 98.2479C75.0101 97.9818 74.9216 97.7243 74.8275 97.4783C74.6335 96.989 74.408 96.5426 74.1855 96.1364C74.1712 96.3767 74.157 96.6256 74.1512 96.8803C74.1484 97.1321 74.1484 97.3924 74.1455 97.6557C74.1484 98.185 74.1313 98.7515 74.1512 99.318C74.1627 99.8931 74.1712 100.485 74.1826 101.089C74.2055 101.687 74.2226 102.302 74.2311 102.929C74.2768 104.162 74.2911 105.438 74.351 106.654C74.3852 107.887 74.4737 109.049 74.5707 110.133Z" fill="#D8E29F"/>
<path d="M76.511 112.5C76.9475 111.661 77.2928 110.645 77.541 109.518C77.6637 108.957 77.7522 108.379 77.8064 107.801C77.8606 107.221 77.9005 106.62 77.892 106.045C77.8891 105.756 77.8748 105.47 77.852 105.186C77.8349 104.9 77.8121 104.617 77.7778 104.339C77.7151 103.781 77.5952 103.266 77.4782 102.76C77.3555 102.256 77.1986 101.79 77.0131 101.364C76.8419 100.929 76.6451 100.537 76.4254 100.193C76.4254 100.62 76.4254 101.069 76.4254 101.535C76.4368 102.005 76.4482 102.491 76.4624 102.995C76.4682 104.016 76.5224 105.066 76.5081 106.173C76.5167 106.714 76.5195 107.264 76.5138 107.813C76.511 108.088 76.5053 108.365 76.5024 108.637C76.5024 108.906 76.5024 109.175 76.5024 109.444C76.4967 109.982 76.4938 110.511 76.4881 111.023C76.4824 111.538 76.4967 112.025 76.511 112.5Z" fill="#D8E29F"/>
<path d="M78.5283 114.474C78.865 113.881 79.1532 113.138 79.3386 112.331C79.4328 111.927 79.5013 111.507 79.5469 111.083C79.5983 110.651 79.624 110.216 79.6211 109.787C79.6182 109.358 79.584 108.937 79.5269 108.531C79.4784 108.116 79.4042 107.718 79.3044 107.349C79.0961 106.614 78.825 105.953 78.4969 105.447C78.5169 106.708 78.6224 108.259 78.6224 109.867C78.6367 110.663 78.6053 111.481 78.5853 112.262C78.5654 113.043 78.5454 113.796 78.5283 114.474Z" fill="#D8E29F"/>
<path d="M72.5477 107.275C72.8501 106.348 73.1155 105.221 73.2382 104.065C73.3009 103.484 73.3637 102.874 73.3808 102.276C73.3923 101.976 73.3923 101.676 73.3894 101.375C73.3923 101.072 73.3894 100.769 73.3751 100.468C73.3124 99.275 73.1725 98.1019 72.9243 97.0462C72.813 96.5111 72.6647 96.0133 72.4963 95.544C72.3451 95.0719 72.1653 94.6342 71.9627 94.2422C71.7002 96.0419 71.7031 98.2994 71.7915 100.628C71.8857 102.957 72.1282 105.329 72.5477 107.275Z" fill="#D8E29F"/>
<path d="M70.5446 103.824C71.0154 102.222 71.1838 100.07 70.9584 98.0447C70.7358 96.0132 70.1794 94.0791 69.3662 92.7515C69.2578 94.3108 69.3377 96.2736 69.5602 98.2392C69.6487 99.2349 69.8085 100.211 69.9483 101.172C70.0367 101.641 70.128 102.105 70.2222 102.551C70.2736 102.774 70.3221 102.995 70.3677 103.209C70.4305 103.418 70.4876 103.624 70.5446 103.824Z" fill="#D8E29F"/>
<path d="M68.4703 100.588C68.5758 100.225 68.65 99.833 68.71 99.4152C68.7756 98.9975 68.8184 98.5569 68.8355 98.1077C68.8526 97.215 68.8355 96.2593 68.6643 95.3409C68.3989 93.484 67.6856 91.7501 66.861 90.5598C66.861 90.9232 66.8696 91.3095 66.8867 91.7072C66.9181 92.1049 66.9552 92.5169 66.998 92.9403C67.0664 93.7958 67.2262 94.6714 67.3432 95.5698C67.6485 97.3466 67.9766 99.1549 68.4703 100.588Z" fill="#D8E29F"/>
<path d="M74.5393 110.162C73.5007 110.376 72.2424 110.425 70.8985 110.205C70.2365 110.09 69.5488 109.913 68.8583 109.673C68.165 109.435 67.5001 109.112 66.8296 108.746C66.1562 108.382 65.5399 107.936 64.9436 107.455C64.3386 106.98 63.8022 106.445 63.3114 105.893C63.0661 105.615 62.8264 105.335 62.6124 105.049C62.4012 104.76 62.2044 104.465 62.0217 104.173C61.6537 103.59 61.3455 103.012 61.1258 102.442C61.3484 102.64 61.5738 102.846 61.8049 103.055C62.0446 103.258 62.2871 103.464 62.5353 103.676C63.0375 104.093 63.5312 104.528 64.0876 104.934C64.6354 105.347 65.1889 105.756 65.7653 106.145C66.3502 106.528 66.9466 106.897 67.5401 107.246C68.7585 107.924 69.9768 108.52 71.1838 108.986C72.3565 109.478 73.5321 109.827 74.5393 110.162Z" fill="#D8E29F"/>
<path d="M76.6194 112.397C75.7605 112.763 74.6706 113.026 73.4978 113.043C72.9101 113.057 72.2909 113.015 71.6603 112.92C71.0297 112.823 70.4105 112.654 69.7828 112.437C69.4718 112.328 69.1608 112.205 68.8555 112.068C68.5559 111.927 68.262 111.773 67.9738 111.607C67.4031 111.275 66.8325 110.912 66.3417 110.494C65.8452 110.082 65.3915 109.638 64.9892 109.189C64.6012 108.728 64.2673 108.259 63.9905 107.804C64.4271 108.082 64.8865 108.374 65.3658 108.68C65.8452 108.975 66.3617 109.261 66.8781 109.541C67.9025 110.113 69.0495 110.6 70.1623 111.026C70.7358 111.223 71.3093 111.401 71.8714 111.558C72.1539 111.635 72.4336 111.71 72.7103 111.779C72.9928 111.841 73.2724 111.899 73.5464 111.953C74.097 112.059 74.6306 112.148 75.1414 112.225C75.6493 112.296 76.1543 112.342 76.6194 112.397Z" fill="#D8E29F"/>
<path d="M78.5283 114.477C77.949 114.829 77.2129 115.12 76.3768 115.278C75.9603 115.358 75.5151 115.404 75.0615 115.412C74.6135 115.415 74.1512 115.378 73.6919 115.304C73.2296 115.229 72.7674 115.115 72.3165 114.966C71.8771 114.809 71.4491 114.62 71.0468 114.402C70.2308 113.979 69.5574 113.421 69.0466 112.863C70.4105 113.398 72.094 113.97 73.7889 114.248C74.6449 114.385 75.4809 114.465 76.2827 114.494C77.093 114.517 77.852 114.5 78.5283 114.477Z" fill="#D8E29F"/>
<path d="M72.308 107.447C71.3036 107.455 70.1908 107.246 69.0038 106.846C68.4103 106.646 67.834 106.374 67.2433 106.065C66.9494 105.907 66.6555 105.741 66.3674 105.561C66.0849 105.378 65.8081 105.181 65.5313 104.975C64.4214 104.159 63.437 103.149 62.6352 102.082C62.2443 101.544 61.8905 100.997 61.5909 100.454C61.3055 99.9045 61.0687 99.3609 60.8804 98.843C62.4669 100.308 64.3986 102.09 66.433 103.618C68.4531 105.169 70.6188 106.414 72.308 107.447Z" fill="#D8E29F"/>
<path d="M69.8969 104.222C68.2391 103.919 66.2304 102.817 64.6354 101.149C63.0232 99.4982 61.9532 97.3094 61.6223 95.5383C62.8092 96.8917 64.1446 98.5941 65.6398 100.125C66.3559 100.909 67.1463 101.627 67.8539 102.322C68.222 102.663 68.5815 102.992 68.9239 103.309C69.0923 103.47 69.2578 103.627 69.4176 103.779C69.5802 103.93 69.7428 104.076 69.8969 104.222Z" fill="#D8E29F"/>
<path d="M68.1963 100.731C67.8397 100.605 67.463 100.437 67.0893 100.222C66.7212 100.005 66.3502 99.7471 65.9822 99.4524C65.2317 98.8687 64.5669 98.1105 63.9734 97.2693C62.8321 95.5697 62.1844 93.5154 62.25 91.9303C62.4583 92.2679 62.6666 92.6256 62.8834 92.9975C63.1089 93.3666 63.34 93.7472 63.5768 94.1363C64.0276 94.9203 64.5641 95.7099 65.0748 96.4968C66.1419 98.0475 67.2861 99.5068 68.1963 100.731Z" fill="#D8E29F"/>
<path d="M63.7566 88.3824C63.7394 89.876 64.0362 91.8016 64.681 93.6185C64.9749 94.534 65.3858 95.4096 65.791 96.2193C66.2275 97.0176 66.6812 97.7386 67.1549 98.3223C67.0236 97.5841 66.8353 96.7572 66.5785 95.9017C66.3559 95.0347 66.0392 94.1478 65.7539 93.2494C65.1205 91.4754 64.4756 89.7072 63.7566 88.3824Z" fill="#D8E29F"/>
<path d="M66.0735 95.6729C67.0065 99.029 68.9382 103.241 71.5604 107.006C72.8701 108.886 74.3367 110.657 75.829 112.205C77.3213 113.756 78.8707 115.055 80.2602 116.096C79.0932 114.803 77.7379 113.341 76.3883 111.701C75.0386 110.062 73.669 108.276 72.3822 106.431C69.8113 102.74 67.6285 98.7858 66.0735 95.6729Z" fill="#B0C98F"/>
<path d="M80.4942 90.9775C78.7993 94.5855 77.7379 98.1878 77.2214 101.713C76.705 105.241 76.7364 108.694 77.2928 112.062C77.8435 115.429 78.9163 118.711 80.5341 121.887C82.152 125.06 84.3091 128.13 87.0654 131.003C89.9245 128.245 91.9846 124.806 93.143 121.049C94.3043 117.295 94.5611 113.235 93.9191 109.318C93.2743 105.401 91.7363 101.638 89.4365 98.4539C87.1339 95.2665 84.0837 92.6714 80.4942 90.9775Z" fill="#B0C98F"/>
<path d="M92.6009 110.468C92.6294 110.374 92.5752 110.271 92.4868 110.239C92.3955 110.208 92.3013 110.262 92.2728 110.359C92.0559 111.118 91.7734 111.841 91.4196 112.52C91.0544 113.2 90.6292 113.836 90.147 114.414C89.194 115.572 87.9785 116.514 86.6403 117.169L86.4862 115.71L86.2979 114.253C86.1809 113.281 86.0268 112.314 85.8784 111.346C87.1624 110.365 88.2039 109.118 89.0085 107.678C89.7846 106.245 90.3125 104.623 90.4637 102.946C90.4723 102.846 90.4038 102.757 90.3097 102.743C90.2155 102.731 90.1299 102.8 90.1213 102.9C89.9758 104.497 89.4793 106.042 88.7546 107.412C88.0013 108.791 87.0141 109.996 85.8185 110.954C85.3106 107.816 84.6686 104.7 83.8982 101.615C83.9011 101.613 83.9039 101.613 83.9068 101.61C84.2292 101.241 84.5231 100.84 84.7799 100.417C85.031 99.996 85.245 99.5497 85.4248 99.089C85.7843 98.162 85.9926 97.1663 86.0097 96.1563C86.0125 96.059 85.9384 95.976 85.8413 95.9732C85.7472 95.9703 85.6673 96.0447 85.6644 96.142C85.653 96.6084 85.6045 97.069 85.5218 97.5211C85.4305 97.976 85.3021 98.4195 85.1423 98.8487C84.8199 99.7071 84.3776 100.502 83.7926 101.203C83.1877 98.8601 82.5372 96.5254 81.7753 94.225C81.7468 94.1334 81.6498 94.0848 81.5613 94.1134C81.47 94.142 81.4215 94.2393 81.4501 94.3309C81.8866 95.647 82.2718 96.9775 82.6656 98.3051C83.0308 99.6413 83.3989 100.977 83.7185 102.328C82.8796 101.982 82.1092 101.515 81.4101 100.96C80.7053 100.405 80.0976 99.7557 79.5982 99.029C79.544 98.9546 79.4385 98.9345 79.3614 98.9889C79.2844 99.0404 79.2644 99.1463 79.3158 99.2207C79.8522 100.005 80.5199 100.706 81.2874 101.301C82.0379 101.899 82.891 102.388 83.8098 102.743C83.8126 102.743 83.8183 102.743 83.8212 102.743C84.3919 105.175 84.9169 107.618 85.322 110.085C82.4459 109.043 79.9549 107.083 78.3571 104.651C78.3085 104.574 78.203 104.554 78.1231 104.603C78.0432 104.651 78.0175 104.754 78.066 104.829C79.7466 107.366 82.3489 109.418 85.3905 110.474C85.7786 112.889 86.121 115.312 86.3549 117.75C84.8997 117.381 83.5444 116.751 82.3346 115.933C81.1134 115.115 80.0776 114.102 79.2245 112.949C79.1731 112.874 79.0647 112.86 78.9876 112.909C78.9106 112.96 78.8878 113.06 78.942 113.135C79.8294 114.336 80.9051 115.389 82.1891 116.239C83.4417 117.092 84.8712 117.741 86.392 118.116L86.6317 120.983C86.6859 121.941 86.7601 122.897 86.7944 123.856C84.9882 123.475 83.2905 122.545 82.0493 121.243C81.9865 121.178 81.8781 121.175 81.8067 121.235C81.7354 121.298 81.7325 121.401 81.7953 121.467C83.1136 122.84 84.8969 123.821 86.8086 124.21C86.88 125.841 86.9085 127.472 86.9056 129.103C86.9056 129.197 86.9798 129.275 87.0768 129.275C87.171 129.275 87.248 129.197 87.248 129.103C87.2623 128.093 87.2252 127.086 87.2167 126.076C87.1824 125.069 87.151 124.059 87.0997 123.052C88.9657 122.488 90.6435 121.272 91.7335 119.575C91.7848 119.492 91.7649 119.381 91.6878 119.326C91.6079 119.272 91.5024 119.292 91.451 119.372C90.4266 120.977 88.8373 122.139 87.0797 122.694C86.9855 120.972 86.8514 119.252 86.6774 117.538C89.4993 116.21 91.7221 113.644 92.6009 110.468Z" fill="#D8E29F"/>
</g>
<path d="M173.487 77.0892C171.584 73.8589 167.101 72.8947 163.555 74.0936C160.008 75.2896 157.283 78.1622 155.092 81.2008C147.057 92.3566 144.58 107.321 148.481 120.502H153.948C153.762 114.74 156.344 109.075 159.663 104.285C163.332 98.986 167.935 94.3766 171.473 88.989C172.637 87.215 173.695 85.3295 174.189 83.2637C174.686 81.1979 174.566 78.9176 173.487 77.0892Z" fill="#B0C98F"/>
<path d="M153.813 94.8287C157.046 87.7615 162.633 82.1536 167.139 78.0563C167.255 77.9504 167.264 77.7702 167.158 77.6529C167.053 77.5356 166.873 77.527 166.756 77.6329C162.211 81.7673 156.573 87.4296 153.297 94.5912C150.078 101.63 149.068 110.339 150.287 120.505H150.863C149.642 110.417 150.632 101.784 153.813 94.8287Z" fill="#D8E29F"/>
<path d="M158.339 120.302C158.285 117.79 160.162 115.424 162.159 113.904C164.157 112.385 166.485 111.349 168.471 109.816C170.457 108.282 172.143 106.016 172.032 103.507C171.915 100.903 169.741 98.6541 167.21 98.0589C164.679 97.4638 161.948 98.3451 159.931 99.9874C157.914 101.63 156.541 103.956 155.622 106.394C154.027 110.62 153.736 115.893 154.715 120.302H158.339Z" fill="#6D9B7C"/>
<path d="M156.073 113.75C156.099 113.607 156.133 113.469 156.162 113.329C156.162 113.298 156.167 113.269 156.182 113.24C156.276 112.788 156.381 112.348 156.498 111.916C156.159 110.637 156.159 107.864 156.159 107.744C156.159 107.633 156.247 107.544 156.359 107.544C156.467 107.544 156.558 107.633 156.558 107.744C156.558 107.767 156.558 109.733 156.747 111.095C157.255 109.527 157.937 108.107 158.79 106.86C158.79 106.857 158.793 106.857 158.793 106.854C158.952 106.623 159.115 106.391 159.286 106.17C159.377 106.053 159.472 105.939 159.563 105.827C159.557 104.674 160.077 102.168 160.099 102.059C160.122 101.95 160.228 101.881 160.333 101.904C160.442 101.927 160.51 102.033 160.487 102.139C160.482 102.162 160.077 104.11 159.98 105.341C161.697 103.458 163.851 102.188 166.14 101.73C166.248 101.707 166.351 101.778 166.374 101.887C166.397 101.996 166.325 102.099 166.217 102.122C163.7 102.625 161.349 104.15 159.597 106.414C159.56 106.462 159.526 106.514 159.489 106.562C162.482 105.615 164.568 105.584 166.585 105.555L166.773 105.552H166.776C166.885 105.552 166.973 105.638 166.976 105.75C166.979 105.861 166.89 105.95 166.779 105.953L166.591 105.956C164.488 105.987 162.311 106.019 159.092 107.115C157.991 108.737 157.178 110.648 156.672 112.82C158.647 111.424 162.439 110.8 162.61 110.771C162.719 110.754 162.821 110.828 162.839 110.937C162.856 111.046 162.781 111.149 162.673 111.166C162.63 111.172 158.267 111.89 156.544 113.426C156.518 113.558 156.487 113.69 156.461 113.824C156.113 115.727 155.979 117.844 156.053 120.299C156.056 120.411 155.971 120.502 155.859 120.505C155.856 120.505 155.856 120.505 155.854 120.505C155.748 120.505 155.66 120.419 155.654 120.313C155.583 117.827 155.719 115.681 156.073 113.75Z" fill="#B0C98F"/>
<path d="M22.0522 120.279C22.7313 116.485 22.1578 112.302 20.1519 109.015C18.1574 105.747 15.0701 103.318 11.9857 101.058C8.90121 98.7972 5.70548 96.5798 3.34292 93.567C0.983214 90.5541 -0.449161 86.537 0.575186 82.846C1.70796 78.7602 5.78252 75.879 9.99975 75.5185C14.2141 75.1608 18.4171 77.0349 21.5158 79.9276C26.5377 84.6171 28.8004 91.69 29.06 98.5683C29.3197 105.444 27.5164 113.57 25.9984 120.279H22.0522Z" fill="#B0C98F"/>
<path d="M22.5401 98.2851C22.5373 98.2737 22.5316 98.2594 22.5259 98.2479C22.4317 97.9761 22.3376 97.7043 22.2377 97.4382C22.1293 97.1521 22.0208 96.8688 21.9067 96.5856C22.6714 93.4726 23.4218 87.5413 23.4304 87.4812C23.4504 87.3238 23.3391 87.1808 23.1821 87.1608C23.0281 87.1436 22.8825 87.2523 22.8626 87.4097C22.8569 87.464 22.2206 92.4912 21.5272 95.6871C20.2889 92.8488 18.7053 90.2423 16.8592 87.9505C17.1388 84.5714 16.4454 80.4284 16.4369 80.3883C16.4112 80.2338 16.2628 80.1279 16.1087 80.1537C15.9547 80.1794 15.8491 80.3282 15.8748 80.4827C15.8805 80.5228 16.4854 84.1307 16.3284 87.3095C15.7635 86.6457 15.1757 86.0077 14.5651 85.404C14.5422 85.3697 14.5137 85.341 14.4766 85.3181C11.6376 82.5199 8.35052 80.3883 4.8238 79.1494C4.67542 79.095 4.51278 79.1751 4.46142 79.3239C4.41006 79.4727 4.4871 79.6358 4.63548 79.6873C7.77414 80.7917 10.7188 82.62 13.321 85.0063C9.94268 84.3024 5.14337 84.4798 4.92081 84.4884C4.76388 84.4941 4.64118 84.6286 4.64689 84.786C4.6526 84.9433 4.7867 85.0721 4.94364 85.0606C5.00356 85.0578 10.9157 84.8403 14.1628 85.8046C17.3214 88.9433 19.9122 92.9318 21.6328 97.4554C18.7566 95.2236 14.2512 93.8302 11.3579 93.7873C11.1981 93.7959 11.0697 93.9103 11.0697 94.0706C11.0669 94.2279 11.1924 94.3595 11.3522 94.3595C14.4281 94.4025 19.43 96.0877 22.0237 98.5312C24.178 104.743 24.9141 111.862 24.2693 120.256C24.2579 120.414 24.3748 120.551 24.5318 120.562C24.5403 120.562 24.546 120.562 24.5546 120.562C24.703 120.562 24.8285 120.448 24.8399 120.299C25.4905 111.799 24.7372 104.588 22.5401 98.2851Z" fill="#D8E29F"/>
<path d="M19.8523 120.253C19.898 118.099 18.2887 116.07 16.5767 114.766C14.8647 113.464 12.8674 112.574 11.1639 111.258C9.46047 109.942 8.01383 107.999 8.11085 105.847C8.21071 103.615 10.0739 101.687 12.2453 101.175C14.4167 100.663 16.7564 101.421 18.4884 102.829C20.2204 104.236 21.396 106.233 22.1835 108.322C23.5502 111.944 23.8013 116.468 22.9596 120.251H19.8523V120.253Z" fill="#547374"/>
<path d="M21.7954 114.634C21.7726 114.511 21.7441 114.394 21.7213 114.273C21.7213 114.248 21.7155 114.222 21.7041 114.196C21.6242 113.81 21.5329 113.429 21.4302 113.06C21.7213 111.964 21.7213 109.584 21.7213 109.484C21.7213 109.389 21.6442 109.312 21.5501 109.312C21.4559 109.312 21.3789 109.389 21.3789 109.484C21.3789 109.504 21.3789 111.189 21.2162 112.356C20.7797 111.012 20.1976 109.796 19.4643 108.723C19.4643 108.72 19.4614 108.72 19.4614 108.72C19.3245 108.52 19.1846 108.322 19.0391 108.133C18.9621 108.033 18.8822 107.936 18.7994 107.839C18.8051 106.849 18.3572 104.7 18.3401 104.608C18.3201 104.517 18.2288 104.457 18.1375 104.477C18.0462 104.497 17.9862 104.585 18.0062 104.68C18.0091 104.7 18.3572 106.371 18.4428 107.427C16.9705 105.81 15.1215 104.723 13.1584 104.331C13.0671 104.311 12.9758 104.371 12.9587 104.465C12.9415 104.557 13.0015 104.648 13.0928 104.666C15.2499 105.098 17.2672 106.405 18.7709 108.345C18.8023 108.385 18.8308 108.431 18.8622 108.474C16.2942 107.661 14.508 107.635 12.7761 107.61L12.6134 107.607H12.6106C12.5164 107.607 12.4422 107.681 12.4394 107.776C12.4394 107.87 12.5135 107.947 12.6077 107.95L12.7703 107.953C14.5737 107.979 16.4397 108.007 19.2018 108.949C20.1462 110.339 20.8424 111.979 21.2761 113.841C19.5813 112.645 16.3313 112.108 16.1829 112.085C16.0888 112.07 16.0032 112.133 15.9889 112.228C15.9746 112.322 16.0374 112.408 16.1316 112.422C16.1687 112.428 19.9094 113.043 21.3874 114.362C21.4102 114.477 21.4388 114.588 21.4587 114.703C21.7583 116.333 21.8725 118.15 21.8097 120.253C21.8069 120.348 21.881 120.428 21.9752 120.431C21.9781 120.431 21.9781 120.431 21.9809 120.431C22.0722 120.431 22.1493 120.356 22.1521 120.265C22.2177 118.13 22.1007 116.291 21.7954 114.634Z" fill="#6D9B7C"/>
<path d="M167.658 121.552H10.3421C9.97405 121.552 9.67731 121.255 9.67731 120.886C9.67731 120.517 9.97405 120.219 10.3421 120.219H167.655C168.023 120.219 168.32 120.517 168.32 120.886C168.323 121.255 168.026 121.552 167.658 121.552Z" fill="#454F6B"/>
<path d="M112.295 27.8479C108.905 34.5717 103.232 32.9895 101.269 27.8479V35.287H112.295V27.8479Z" fill="#85BA09"/>
<path d="M114.977 31.3043L114.874 29.2871L112.337 32.6605L106.782 36.2541L101.226 32.6605L98.6899 29.2871L98.5872 31.3043C98.3218 36.4716 96.7268 41.4787 93.9533 45.842L93.8877 45.9479H106.782H119.676L119.611 45.842C116.837 41.4787 115.242 36.4687 114.977 31.3043Z" fill="#85BA09"/>
<path d="M96.4529 32.1283C96.6241 32.8064 97.2062 33.2613 97.9024 33.2613H115.659C116.355 33.2613 116.937 32.8064 117.108 32.1283C117.279 31.4502 116.983 30.7721 116.369 30.4402L107.079 25.393V23.5847C107.079 23.0898 106.676 22.6892 106.186 22.6892C105.39 22.6892 104.736 22.0654 104.688 21.2786C104.685 21.2471 104.685 20.2715 104.685 20.24C104.685 19.4103 105.358 18.735 106.186 18.735H106.602H108.066C107.686 18.3631 107.17 18.1342 106.602 18.1342H106.186C105.027 18.1342 104.088 19.0784 104.088 20.24C104.088 20.2715 104.088 21.25 104.091 21.2815C104.14 22.3973 105.061 23.2929 106.188 23.2929C106.351 23.2929 106.485 23.4245 106.485 23.5905V25.3987L97.1948 30.4459C96.5784 30.7721 96.2817 31.4502 96.4529 32.1283ZM97.4744 30.9695L106.779 25.9138L116.084 30.9695C116.538 31.2156 116.606 31.6676 116.526 31.9824C116.446 32.2942 116.172 32.6605 115.656 32.6605H97.9024C97.3859 32.6605 97.112 32.2942 97.0321 31.9824C96.9551 31.6676 97.0236 31.2156 97.4744 30.9695Z" fill="#8D415F"/>
<path d="M119.676 45.945C112.686 41.224 112.78 37.0181 114.874 29.2842L112.295 27.8479L111.504 30.9437C111.005 32.9036 109.242 34.277 107.224 34.277H106.782H106.34C104.322 34.277 102.559 32.9065 102.06 30.9437L101.269 27.8479L98.6899 29.2842C100.781 37.0152 100.878 41.224 93.8877 45.945L94.5754 61.8132C94.7352 65.487 94.6125 69.1694 94.2102 72.826L93.8849 75.773H106.779H119.673L119.348 72.826C118.946 69.1694 118.826 65.487 118.983 61.8132L119.676 45.945Z" fill="#D8E29F"/>
<path d="M110.857 43.1639C110.702 44.5545 110.072 45.8849 109.107 46.895C108.945 47.0666 108.771 47.2297 108.591 47.3785C107.629 48.1768 106.462 48.6689 105.324 49.1753C104.185 49.6818 103.03 50.2254 102.134 51.0923C101.238 51.9621 100.63 53.2239 100.847 54.4542C101.05 55.593 102.122 56.5801 103.25 56.5143C104.659 52.0451 108.848 52.7375 109.775 47.9364C109.47 52.5115 105.706 52.5172 103.635 57.2554C103.121 58.4313 102.713 59.8934 102.485 61.7932C103.244 62.4399 104.117 62.5514 104.117 62.5514C103.872 61.3755 103.883 59.7046 104.248 58.2654C104.805 58.8691 105.612 59.2925 106.408 59.3841C107.863 59.5529 109.316 58.7747 110.254 57.6473C111.193 56.5172 111.684 55.0808 111.984 53.6417C112.705 50.1996 112.098 46.4572 110.857 43.1639Z" fill="#85BA09"/>
<path d="M109.222 38.9837L108.6 37.2498C108.548 37.1096 108.428 37.0009 108.283 36.9694L106.163 36.483C106.017 36.4487 105.863 36.4916 105.758 36.5975L104.445 37.8879C104.385 37.948 104.342 38.0224 104.325 38.1053L103.241 42.8549C103.187 43.0924 103.335 43.3299 103.572 43.3843L107.624 44.3142C107.861 44.3685 108.097 44.2197 108.152 43.9823L109.236 39.2327C109.256 39.1497 109.25 39.0638 109.222 38.9837ZM106.933 38.0023C106.691 37.948 106.539 37.7048 106.594 37.4616C106.648 37.2184 106.89 37.0667 107.133 37.1211C107.375 37.1755 107.527 37.4187 107.472 37.6619C107.418 37.9079 107.176 38.0596 106.933 38.0023Z" fill="white"/>
<path d="M107.104 39.2412L106.28 39.0524L106.571 39.9966L107.393 40.1854L107.104 39.2412Z" fill="#547374"/>
<path d="M106.2 40.1683L107.067 39.2327L106.246 39.0438L105.575 39.7677L105.324 39.6075L105.447 40.4573L106.448 40.3285L106.2 40.1683Z" fill="#6D9B7C"/>
<path d="M104.225 41.224L104.474 42.0309L105.144 41.307L104.896 40.5001L104.225 41.224Z" fill="#547374"/>
<path d="M105.478 41.5445L104.237 41.2583L104.485 42.0681L105.444 42.2884L105.432 42.5859L106.103 42.0538L105.492 41.2498L105.478 41.5445Z" fill="#6D9B7C"/>
<path d="M107.375 42.7319L107.952 42.1111L106.99 41.8907L106.417 42.5116L107.375 42.7319Z" fill="#547374"/>
<path d="M107.027 41.4816L107.401 42.7033L107.975 42.0853L107.686 41.1411L107.949 41.0038L107.156 40.6862L106.765 41.6189L107.027 41.4816Z" fill="#6D9B7C"/>
<path d="M107.027 37.4845C107.002 37.4988 106.973 37.5074 106.942 37.5102C106.585 37.5188 106.314 37.2041 106.257 36.8951C106.211 36.6461 106.268 36.3743 106.428 36.0624C106.474 35.9766 106.522 35.8936 106.568 35.8135C106.645 35.6819 106.719 35.556 106.771 35.4244C106.925 35.041 106.893 34.5775 106.688 34.2198C106.636 34.1311 106.668 34.0195 106.756 33.968C106.845 33.9165 106.956 33.948 107.007 34.0367C107.27 34.4974 107.31 35.0696 107.11 35.5617C107.047 35.7191 106.965 35.8622 106.882 35.9995C106.836 36.0796 106.791 36.154 106.751 36.2313C106.628 36.4659 106.585 36.6604 106.614 36.8264C106.642 36.9809 106.773 37.144 106.927 37.1411C107.027 37.1383 107.113 37.2184 107.116 37.3214C107.119 37.39 107.082 37.453 107.027 37.4845Z" fill="#85BA09"/>
<path d="M80.2289 27.8479C83.0594 28.6576 90.4666 28.5632 91.8277 27.8479L87.3336 44.6575V71.6729H84.7229V44.6575L80.2289 27.8479Z" fill="#495375"/>
<path d="M75.7006 32.1283C75.8718 32.8064 76.4539 33.2613 77.1501 33.2613H94.9064C95.6026 33.2613 96.1847 32.8064 96.3559 32.1283C96.5271 31.4502 96.2303 30.7721 95.6169 30.4402L86.3264 25.393V23.5847C86.3264 23.0898 85.9241 22.6892 85.4333 22.6892C84.6372 22.6892 83.9838 22.0654 83.9353 21.2786C83.9325 21.2471 83.9325 20.2715 83.9325 20.24C83.9325 19.4103 84.6058 18.735 85.4333 18.735H85.8499H87.3137C86.9342 18.3631 86.4177 18.1342 85.8499 18.1342H85.4333C84.2749 18.1342 83.3333 19.0784 83.3333 20.24C83.3333 20.2715 83.3333 21.25 83.3361 21.2815C83.3846 22.3973 84.3062 23.2929 85.4333 23.2929C85.5959 23.2929 85.7301 23.4245 85.7301 23.5905V25.3987L76.4396 30.4459C75.8261 30.7721 75.5294 31.4502 75.7006 32.1283ZM76.7221 30.9695L86.0268 25.9138L95.3315 30.9695C95.7852 31.2156 95.8537 31.6676 95.7738 31.9824C95.6939 32.2942 95.42 32.6605 94.9035 32.6605H77.1472C76.6308 32.6605 76.3569 32.2942 76.277 31.9824C76.1999 31.6676 76.2684 31.2156 76.7221 30.9695Z" fill="#8D415F"/>
<path d="M84.7228 44.6575L80.2288 27.8479L72.9956 32.0167C72.2937 32.4201 71.8229 33.1325 71.7259 33.9365L67.3175 70.1937L73.3095 71.1322L76.0202 45.8019L74.3082 73.2294L84.7228 73.5957V44.6575Z" fill="#797C99"/>
<path d="M80.2288 27.8479L77.7208 33.7105C77.4583 34.3257 77.775 35.0352 78.4056 35.247L80.2288 35.8593L78.5825 39.3356C78.3399 39.8478 78.5083 40.4601 78.9762 40.7748L84.7228 44.6546L80.2288 27.8479Z" fill="#99A3B0"/>
<path d="M72.7388 33.2614L76.0202 44.9694C75.0215 36.5746 74.117 33.9995 72.7388 33.2614Z" fill="#495375"/>
<path d="M67.3175 70.1938L71.8029 70.477C72.2509 70.5056 72.6447 70.1823 72.7046 69.736L73.0641 67.0893C73.124 66.6573 72.8501 66.251 72.4278 66.1423L69.2663 65.3297L73.8688 65.8962L73.3095 71.1322L67.3175 70.1938Z" fill="#495375"/>
<path d="M69.2064 68.2596C69.5499 68.2596 69.8284 67.9803 69.8284 67.6358C69.8284 67.2913 69.5499 67.0121 69.2064 67.0121C68.8629 67.0121 68.5844 67.2913 68.5844 67.6358C68.5844 67.9803 68.8629 68.2596 69.2064 68.2596Z" fill="#99A3B0"/>
<path d="M87.3336 44.6575L91.8276 27.8479L99.0609 32.0167C99.7628 32.4201 100.234 33.1325 100.331 33.9365L104.739 70.1937L98.747 71.1322L96.0363 45.8019L97.7483 73.2294L87.3336 73.5957V44.6575Z" fill="#797C99"/>
<path d="M91.8276 27.8479L94.3357 33.7105C94.5982 34.3257 94.2815 35.0352 93.6509 35.247L91.8276 35.8593L93.474 39.3356C93.7166 39.8478 93.5482 40.4601 93.0803 40.7748L87.3336 44.6546L91.8276 27.8479Z" fill="#99A3B0"/>
<path d="M99.3176 33.2614L96.0363 44.9694C97.035 36.5746 97.9395 33.9995 99.3176 33.2614Z" fill="#495375"/>
<path d="M104.739 70.1938L100.254 70.477C99.8056 70.5056 99.4118 70.1823 99.3519 69.736L98.9924 67.0893C98.9325 66.6573 99.2064 66.251 99.6287 66.1423L102.79 65.3297L98.1877 65.8962L98.747 71.1322L104.739 70.1938Z" fill="#495375"/>
<path d="M102.228 67.6358C102.228 67.9792 102.508 68.2596 102.85 68.2596C103.192 68.2596 103.472 67.9792 103.472 67.6358C103.472 67.2925 103.192 67.0121 102.85 67.0121C102.508 67.0121 102.228 67.2896 102.228 67.6358Z" fill="#99A3B0"/>
<path d="M61.2884 28.0625C65.2745 30.8035 70.2907 29.2785 71.7773 28.0625L66.5328 47.5645L61.2884 28.0625Z" fill="#A08B7C"/>
<path d="M56.1752 32.1283C56.3464 32.8064 56.9285 33.2613 57.6247 33.2613H75.381C76.0772 33.2613 76.6593 32.8064 76.8305 32.1283C77.0017 31.4502 76.705 30.7721 76.0915 30.4402L66.8011 25.393V23.5847C66.8011 23.0898 66.3987 22.6892 65.908 22.6892C65.1119 22.6892 64.4585 22.0654 64.41 21.2786C64.4071 21.2471 64.4071 20.2715 64.4071 20.24C64.4071 19.4103 65.0805 18.735 65.908 18.735H66.3246H67.7883C67.4088 18.3631 66.8924 18.1342 66.3246 18.1342H65.908C64.7495 18.1342 63.8108 19.0784 63.8108 20.24C63.8108 20.2715 63.8108 21.25 63.8136 21.2815C63.8621 22.3973 64.7838 23.2929 65.9108 23.2929C66.0735 23.2929 66.2076 23.4245 66.2076 23.5905V25.3987L56.9171 30.4459C56.3008 30.7721 56.004 31.4502 56.1752 32.1283ZM57.1967 30.9695L66.5015 25.9138L75.8062 30.9695C76.2599 31.2156 76.3283 31.6676 76.2484 31.9824C76.1686 32.2942 75.8946 32.6605 75.3782 32.6605H57.6219C57.1054 32.6605 56.8315 32.2942 56.7516 31.9824C56.6746 31.6676 56.7431 31.2156 57.1967 30.9695Z" fill="#8D415F"/>
<path d="M61.2884 28.0625L66.5329 47.5645V99.378C60.2812 99.378 55.285 100.522 52.3147 98.5196L54.0524 49.6989L52.3147 69.4011L46.3398 66.9577L51.998 36.051C52.4745 33.453 54.1922 31.2585 56.5947 30.1769L61.2884 28.0625Z" fill="#BBA389"/>
<path d="M61.2884 28.0625L66.5329 47.5645L60.5751 42.2426C60.227 41.9307 60.1014 41.4358 60.2612 40.9951L61.802 36.7606L58.9144 34.8807C58.4208 34.5603 58.2525 33.9165 58.5235 33.3929L61.2884 28.0625Z" fill="#CABFAB"/>
<path d="M71.7773 28.0625L66.5329 47.5645V102.311C72.7845 102.311 77.7807 100.522 80.751 98.5196L79.0133 49.7018L80.751 69.404L86.7259 66.9605L81.0677 36.051C80.5912 33.453 78.8735 31.2585 76.471 30.1769L71.7773 28.0625Z" fill="#BBA389"/>
<path d="M71.7773 28.0625L66.5329 47.5645L72.4906 42.2426C72.8387 41.9307 72.9643 41.4358 72.8045 40.9951L71.2637 36.7606L74.1513 34.8807C74.6449 34.5603 74.8132 33.9165 74.5422 33.3929L71.7773 28.0625Z" fill="#CABFAB"/>
<path d="M64.7638 99.4066C65.3402 99.3894 65.9308 99.378 66.53 99.378V47.5645L64.7638 99.4066Z" fill="#A08B7C"/>
<path d="M140.508 114.926H130.73V30.8064C130.73 24.4173 125.545 19.2185 119.174 19.2185H55.6987C49.3272 19.2185 44.1427 24.4173 44.1427 30.8064V114.926H34.3644C31.454 114.926 29.0857 117.301 29.0857 120.219H31.6537C31.6537 118.72 32.8692 117.501 34.3644 117.501H45.4267H56.4891C57.9843 117.501 59.1998 118.72 59.1998 120.219H61.7678C61.7678 117.301 59.3995 114.926 56.4891 114.926H46.7107V30.8064C46.7107 25.8365 50.7425 21.7936 55.6987 21.7936H119.174C124.13 21.7936 128.162 25.8365 128.162 30.8064V114.926H118.384C115.473 114.926 113.105 117.301 113.105 120.219H115.673C115.673 118.72 116.888 117.501 118.384 117.501H129.446H140.508C142.004 117.501 143.219 118.72 143.219 120.219H145.787C145.787 117.301 143.419 114.926 140.508 114.926Z" fill="#99A3B0"/>
<path d="M87.95 20.2372V20.6406C87.95 20.8065 87.8159 20.941 87.6504 20.941C87.4849 20.941 87.3508 20.8065 87.3508 20.6406V20.2372C87.3508 19.4074 86.6774 18.7322 85.8499 18.7322H87.3137C87.7046 19.1156 87.95 19.6478 87.95 20.2372Z" fill="#8D415F"/>
<path d="M108.702 20.2372V20.6406C108.702 20.8065 108.568 20.941 108.403 20.941C108.237 20.941 108.103 20.8065 108.103 20.6406V20.2372C108.103 19.4074 107.43 18.7322 106.602 18.7322H108.066C108.457 19.1156 108.702 19.6478 108.702 20.2372Z" fill="#8D415F"/>
<path d="M68.4246 20.2372V20.6406C68.4246 20.8065 68.2905 20.941 68.125 20.941C67.9595 20.941 67.8254 20.8065 67.8254 20.6406V20.2372C67.8254 19.4074 67.152 18.7322 66.3246 18.7322H67.7883C68.1792 19.1156 68.4246 19.6478 68.4246 20.2372Z" fill="#8D415F"/>
<path d="M72.1396 43.8364H71.569H70.9983C69.526 43.8364 68.0651 43.5961 66.6726 43.1211C67.5286 44.7691 69.2264 45.8049 71.0782 45.8049H71.569H72.0597C73.9115 45.8049 75.6121 44.772 76.4653 43.1211C75.0729 43.5932 73.6119 43.8364 72.1396 43.8364Z" fill="#547374"/>
<path d="M61.2399 47.7134C61.4111 48.3915 61.9932 48.8464 62.6894 48.8464H80.4457C81.1419 48.8464 81.724 48.3915 81.8952 47.7134C82.0664 47.0353 81.7696 46.3572 81.1562 46.0253L71.8657 40.9781V39.1698C71.8657 38.6748 71.4634 38.2743 70.9726 38.2743C70.1765 38.2743 69.5231 37.6505 69.4746 36.8637C69.4718 36.8322 69.4718 35.8566 69.4718 35.8251C69.4718 34.9953 70.1452 34.3201 70.9726 34.3201H71.3892H72.853C72.4735 33.9481 71.957 33.7192 71.3892 33.7192H70.9726C69.8142 33.7192 68.8726 34.6634 68.8726 35.8251C68.8726 35.8566 68.8726 36.8351 68.8754 36.8666C68.9239 37.9824 69.8456 38.878 70.9726 38.878C71.1353 38.878 71.2694 39.0096 71.2694 39.1756V40.9838L61.9789 46.031C61.3654 46.3572 61.0687 47.0353 61.2399 47.7134ZM62.2642 46.5517L71.569 41.496L80.8737 46.5517C81.3274 46.7978 81.3959 47.2499 81.316 47.5646C81.2361 47.8765 80.9621 48.2427 80.4457 48.2427H62.6922C62.1758 48.2427 61.9019 47.8765 61.822 47.5646C61.7421 47.2527 61.8106 46.7978 62.2642 46.5517Z" fill="#8D415F"/>
<path d="M73.4893 35.8223V36.2257C73.4893 36.3916 73.3552 36.5261 73.1897 36.5261C73.0242 36.5261 72.8901 36.3916 72.8901 36.2257V35.8223C72.8901 34.9925 72.2167 34.3173 71.3892 34.3173H72.853C73.2467 34.7007 73.4893 35.2328 73.4893 35.8223Z" fill="#8D415F"/>
<path d="M85.0852 50.8435C84.5516 48.4515 82.9766 46.4258 80.7966 45.3185L76.4653 43.1211C75.6093 44.7691 73.9115 45.8049 72.0597 45.8049H71.569H71.0782C69.2264 45.8049 67.5258 44.772 66.6726 43.1211L62.3413 45.3185C60.1613 46.4258 58.5863 48.4515 58.0527 50.8435L54.9511 64.7117L57.853 66.334L58.5663 88.2709C60.2469 89.9561 65.6997 90.3681 71.5718 90.3681C77.444 90.3681 82.8967 89.9561 84.5773 88.2709L85.2906 66.334L88.1925 64.7117L85.0852 50.8435Z" fill="#85BA09"/>
<path d="M85.2878 66.3312L82.112 68.108L81.9465 52.7062L81.1505 69.9421L83.2191 68.6688L84.9397 77.015L85.2878 66.3312Z" fill="#547374"/>
<path d="M73.6405 57.1238H69.6686L71.9884 61.1524H75.9602L73.6405 57.1238Z" fill="#B0C98F"/>
<path d="M70.4704 62.3312L73.4693 57.1238H69.4974L67.1777 61.1524L65.8651 60.6803L67.3203 64.4456L71.7715 62.8004L70.4704 62.3312Z" fill="#D8E29F"/>
<path d="M62.5125 69.2524L64.4984 72.7031L66.8182 68.6745L64.8322 65.2239L62.5125 69.2524Z" fill="#B0C98F"/>
<path d="M68.5986 69.4041H62.5981L64.584 72.8518H69.2235L69.4746 74.2281L71.997 71.0836L68.3504 68.0393L68.5986 69.4041Z" fill="#D8E29F"/>
<path d="M78.5539 72.8518L80.5398 69.4041H75.9003L73.9144 72.8518H78.5539Z" fill="#B0C98F"/>
<path d="M75.6407 67.4928L78.6395 72.703L80.6254 69.2524L78.3057 65.2238L79.37 64.3197L75.3896 63.7017L74.5849 68.3912L75.6407 67.4928Z" fill="#D8E29F"/>
<path d="M57.8501 66.3312L61.0259 68.108L61.1914 52.7062L61.9875 69.9421L59.9188 68.6688L58.1982 77.015L57.8501 66.3312Z" fill="#547374"/>
<path d="M74.2568 48.6547L72.6247 47.8077C72.4906 47.7391 72.3336 47.7419 72.2024 47.8163L70.3192 48.9064C70.1879 48.9808 70.1052 49.1182 70.0995 49.267L70.0139 51.1067C70.011 51.1897 70.031 51.2755 70.0738 51.347L72.502 55.5673C72.6247 55.779 72.8929 55.8506 73.104 55.7275L76.7049 53.6446C76.9161 53.5216 76.9874 53.2526 76.8647 53.0409L74.4365 48.8206C74.3937 48.7519 74.331 48.6947 74.2568 48.6547ZM71.9142 49.4958C71.6973 49.6217 71.4234 49.5474 71.2979 49.3299C71.1723 49.1124 71.2465 48.8378 71.4634 48.7119C71.6802 48.586 71.9542 48.6604 72.0797 48.8778C72.2024 49.0953 72.1282 49.3728 71.9142 49.4958Z" fill="white"/>
<path d="M72.8758 50.2885L72.1453 50.7119L72.9985 51.204L73.7289 50.7834L72.8758 50.2885Z" fill="#547374"/>
<path d="M72.8444 51.5846V50.3057L72.114 50.7291V51.7191L71.8229 51.7706L72.4877 52.3085L73.1326 51.5303L72.8444 51.5846Z" fill="#85BA09"/>
<path d="M72.114 53.7048L72.8444 54.1282V53.1411L72.114 52.7177V53.7048Z" fill="#547374"/>
<path d="M73.2496 53.0839L72.1453 53.7248L72.8758 54.1454L73.7289 53.6533L73.923 53.8793L74.0513 53.0324L73.0584 52.8607L73.2496 53.0839Z" fill="#85BA09"/>
<path d="M75.4466 52.6575V51.8135L74.5935 52.3056V53.1525L75.4466 52.6575Z" fill="#547374"/>
<path d="M74.3424 51.9822L75.4467 52.6232V51.7762L74.5935 51.2813L74.6934 51.0009L73.8944 51.3127L74.2425 52.2598L74.3424 51.9822Z" fill="#85BA09"/>
<path d="M71.7915 48.9923C71.7658 49.0066 71.7373 49.0152 71.7059 49.018C71.3492 49.0266 71.0782 48.7119 71.0211 48.4029C70.9755 48.1539 71.0325 47.8821 71.1923 47.5703C71.238 47.4844 71.2865 47.4014 71.3321 47.3213C71.4092 47.1897 71.4834 47.0638 71.5347 46.9322C71.6888 46.5488 71.6574 46.0853 71.452 45.7276C71.4006 45.6389 71.432 45.5274 71.5204 45.4759C71.6089 45.4244 71.7202 45.4558 71.7715 45.5445C72.034 46.0052 72.074 46.5774 71.8743 47.0695C71.8115 47.2269 71.7287 47.37 71.646 47.5073C71.6003 47.5874 71.5547 47.6618 71.5147 47.7391C71.392 47.9737 71.3492 48.1682 71.3778 48.3342C71.4063 48.4887 71.5376 48.6518 71.6916 48.6489C71.7915 48.6461 71.8771 48.7262 71.88 48.8292C71.8857 48.8979 71.8486 48.9608 71.7915 48.9923Z" fill="#B0C98F"/>
<path d="M45.0872 60.6803L52.2918 85.1808C52.717 86.6257 52.9338 88.1249 52.9338 89.6328V112.683H43.6605C42.7104 102.096 44.137 89.0291 44.137 89.0291L34.6269 70.9091V112.683H24.5432C23.1165 99.9017 25.5904 88.3624 25.5904 88.3624C22.3575 70.8147 23.4018 64.1853 24.4718 60.6803H45.0872Z" fill="#454F6B"/>
<path d="M34.624 70.9091C38.0594 71.0521 40.1281 70.3025 40.1281 70.3025C38.2848 72.0078 35.3773 72.3454 35.3773 72.3454L34.624 70.9091Z" fill="#422C4F"/>
<path d="M51.6013 111.252H51.316V89.1778C51.316 88.082 51.1562 86.9919 50.8452 85.9418L43.612 61.6788L43.8859 61.5958L51.1191 85.8588C51.4415 86.9375 51.6042 88.0534 51.6042 89.1778V111.252H51.6013Z" fill="#797C99"/>
<path d="M34.624 70.9091C34.1075 70.8776 33.5854 70.7317 33.0775 70.5171V72.1251C33.4284 72.2767 33.6567 72.3425 33.6567 72.3425L33.0775 74.0964V80.517L34.624 84.8202V70.9091Z" fill="#422C4F"/>
<path d="M29.3225 67.2982C29.4994 70.0221 31.5795 71.4126 32.795 71.9963V70.3912C31.0944 69.5729 29.6392 68.0135 29.3225 67.2982Z" fill="#422C4F"/>
<path d="M32.7208 75.1837C32.2358 76.6486 32.2557 78.2337 32.7779 79.6844L32.7922 79.7273V74.9634L32.7208 75.1837Z" fill="#422C4F"/>
<path d="M33.0775 72.125C32.989 72.0878 32.8949 72.0449 32.7921 71.9934V74.9605L33.0775 74.0964V72.125Z" fill="#797C99"/>
<path d="M32.7921 111.252H33.0775V80.5199L32.7921 79.7273V111.252Z" fill="#797C99"/>
<path d="M33.0775 70.5171C32.9805 70.4771 32.8863 70.437 32.7921 70.3912V71.9964C32.8949 72.045 32.989 72.0879 33.0775 72.128V70.5171Z" fill="#454F6B"/>
<path d="M32.7921 74.9633V79.7272L33.0775 80.5198V74.0992L32.7921 74.9633Z" fill="#454F6B"/>
<path d="M39.7343 62.9263C39.7343 62.9263 39.7771 63.3326 39.8171 63.9735C41.8058 63.7303 43.7746 63.324 45.6921 62.7404L45.0872 60.6803H24.4718C24.3263 61.1581 24.1808 61.6932 24.0467 62.3055C24.1922 62.357 24.3406 62.3999 24.489 62.4485C24.5061 62.3541 24.5232 62.2568 24.5432 62.1624C25.8357 62.4199 27.1112 62.5744 28.378 62.6087C28.378 62.6087 28.3581 62.9464 28.3153 63.4814C29.9388 63.8219 31.5881 64.0479 33.2458 64.1567C33.2858 63.6903 33.3371 63.2296 33.4028 62.7718C35.5057 62.9864 37.6229 63.0379 39.7343 62.9263Z" fill="#422C4F"/>
<path d="M33.243 64.1595C33.1231 65.53 33.1117 66.9234 33.2087 68.2796C34.1989 68.9291 35.2917 69.5757 36.4159 69.942C37.4859 69.5471 38.6472 69.1494 39.7172 68.7546C39.9455 67.0665 39.8855 65.1352 39.8142 63.9735C37.6371 64.2396 35.4343 64.3026 33.243 64.1595Z" fill="#797C99"/>
<path d="M39.8171 63.9736C39.7771 63.3327 39.7343 62.9264 39.7343 62.9264C37.6228 63.038 35.5057 62.9893 33.3999 62.7776C33.3343 63.2354 33.2829 63.6989 33.243 64.1624C35.4343 64.3026 37.6371 64.2397 39.8171 63.9736Z" fill="#454F6B"/>
<path d="M23.9126 67.2181C24.4405 67.859 25.0254 68.5057 25.6617 68.9034C26.3351 68.6201 27.0627 68.3397 27.7361 68.0565C28.0442 66.5057 28.2268 64.583 28.3153 63.49C27.0199 63.2182 25.7444 62.872 24.489 62.4542C24.1951 63.9735 24.0011 65.6845 23.9126 67.2181Z" fill="#797C99"/>
<path d="M24.5432 62.1653C24.5232 62.2597 24.5061 62.3541 24.489 62.4514C25.7444 62.8691 27.0227 63.2153 28.3153 63.4872C28.3581 62.9521 28.3781 62.6145 28.3781 62.6145C27.1112 62.5773 25.8358 62.4228 24.5432 62.1653Z" fill="#454F6B"/>
<path d="M55.1709 115.864L54.9939 115.799C53.9553 115.401 53.0708 114.683 52.4687 113.744L51.7897 112.686H46.5481C46.5481 112.686 45.4524 115.361 45.7149 118.265H57.8958C57.3137 117.18 56.3578 116.319 55.1709 115.864Z" fill="#422C4F"/>
<path d="M45.7149 118.262C45.772 118.912 45.8975 119.573 46.1201 120.216H58.495C58.4265 119.518 58.2154 118.857 57.8958 118.262H45.7149Z" fill="white"/>
<path d="M34.8494 115.864L34.6725 115.799C33.6339 115.401 32.7494 114.683 32.1473 113.744L31.4682 112.686H26.2266C26.2266 112.686 25.131 115.361 25.3935 118.265H37.5743C36.9923 117.18 36.0364 116.319 34.8494 115.864Z" fill="#422C4F"/>
<path d="M25.3906 118.262C25.4477 118.912 25.5732 119.573 25.7958 120.216H38.1736C38.1051 119.518 37.8939 118.857 37.5744 118.262H25.3906Z" fill="white"/>
<path d="M66.7582 36.6605C66.7582 36.5289 66.8039 36.4002 66.8895 36.3L67.015 36.1512C66.5585 36.2514 66.1105 36.2886 65.771 36.3058C65.7339 36.3887 65.7111 36.4803 65.7111 36.5718C65.7111 36.9295 65.9992 37.2185 66.3559 37.2185H67.3146C67.0093 37.2185 66.7582 36.9695 66.7582 36.6605Z" fill="#EBA58E"/>
<path d="M65.7111 36.5719C65.7111 36.4775 65.7339 36.3888 65.771 36.3058C65.6711 36.3115 65.5798 36.3144 65.5028 36.3172L65.0576 37.2214H66.3559C66.0021 37.2185 65.7111 36.9295 65.7111 36.5719Z" fill="#EBA58E"/>
<path d="M70.1452 34.6577L69.1408 32.775C68.8526 32.2371 68.2933 31.9023 67.6856 31.9023H65.868C64.4699 31.9023 63.1944 32.6978 62.5753 33.9538L61.8248 35.4788L55.6902 42.5374L52.503 39.0096L47.5582 43.4931L52.055 48.3457C54.429 50.9065 58.6262 50.2913 60.1699 47.1554L65.0577 37.2213L65.5028 36.3172C65.5798 36.3143 65.6711 36.3115 65.771 36.3057C66.1105 36.2886 66.5585 36.2514 67.0151 36.1512C67.6571 36.011 68.3048 35.7507 68.6671 35.2557L67.8825 36.3029C67.8083 36.403 67.7683 36.5232 67.7683 36.6462C67.7683 36.9609 68.0251 37.2185 68.339 37.2185H68.3704C68.6814 37.2185 68.9781 37.0811 69.1779 36.8408L70.0196 35.8336C70.2992 35.5046 70.3477 35.0382 70.1452 34.6577Z" fill="#F2C9AD"/>
<path d="M67.7712 36.6462C67.7712 36.5231 67.8111 36.403 67.8853 36.3028L68.67 35.2556C68.3076 35.7506 67.6599 36.011 67.0179 36.1512L66.8924 36.3C66.8068 36.4001 66.7611 36.5289 66.7611 36.6605C66.7611 36.9695 67.0094 37.2184 67.3175 37.2184H68.3419C68.0251 37.2184 67.7712 36.9638 67.7712 36.6462Z" fill="#EBA58E"/>
<path d="M53.2934 39.8822C53.2534 43.2299 49.3786 45.453 49.3786 45.453L47.561 43.4902L52.5059 39.0067L53.2934 39.8822Z" fill="#422C4F"/>
<path d="M57.8958 44.9781L55.6902 42.5346L56.0212 42.1541C58.4123 42.609 57.8958 44.9781 57.8958 44.9781Z" fill="#EBA58E"/>
<path d="M31.7678 28.6119H40.9042C43.7889 28.6119 46.5138 29.9281 48.3143 32.1856L53.5987 38.815C52.6 42.1054 47.5125 44.9666 47.5125 44.9666L45.0872 42.3428V51.0924C45.0872 53.6188 45.2498 56.1396 45.5751 58.6431L45.9432 61.4643C36.5272 63.6102 23.6872 61.4643 23.6872 61.4643L24.0467 57.822C24.235 55.9135 24.3292 53.9937 24.3292 52.0767V45.473C24.3292 41.4587 24.7686 37.4588 25.636 33.5418C26.2751 30.6634 28.8232 28.6119 31.7678 28.6119Z" fill="#367743"/>
<path d="M43.7461 60.5286C42.4221 60.6917 40.8956 60.8519 39.2664 60.9406C37.6371 61.0322 35.9051 61.0522 34.176 60.9835C32.4469 60.912 30.7235 60.746 29.1056 60.52C27.4878 60.2968 25.9812 60.0107 24.6744 59.7389C25.9242 60.211 27.4079 60.6545 29.0257 60.9835C30.6436 61.3154 32.3927 61.5357 34.1503 61.6101C35.908 61.6817 37.6685 61.6073 39.3092 61.4098C40.947 61.2153 42.4649 60.8948 43.7461 60.5286Z" fill="#1D3C32"/>
<path d="M26.3978 57.862C27.736 58.0909 29.3196 58.1939 31.006 58.068C32.6894 57.9478 34.4671 57.6016 36.1762 57.0323C37.8825 56.46 39.5117 55.6675 40.9327 54.7519C42.3537 53.8392 43.5606 52.8034 44.4965 51.8163C43.418 52.646 42.134 53.5359 40.6873 54.3399C39.2435 55.1467 37.6371 55.8677 35.9765 56.4257C34.313 56.9779 32.5981 57.367 30.9603 57.5931C29.3168 57.8191 27.7589 57.8792 26.3978 57.862Z" fill="#1D3C32"/>
<path d="M25.228 52.7061C25.9641 53.1839 26.8658 53.6646 27.8759 54.0708C28.8859 54.4771 30.0016 54.8062 31.1401 55.015C32.2786 55.2239 33.4399 55.3155 34.527 55.2954C35.6141 55.2783 36.627 55.1495 37.4859 54.9664C35.7368 55.0723 33.4513 55.0293 31.2171 54.6088C28.9744 54.2053 26.8258 53.4299 25.228 52.7061Z" fill="#1D3C32"/>
<path d="M42.5905 29.8451C42.0427 30.0568 41.452 30.4459 40.9584 31.0039C40.4619 31.5589 40.0681 32.2828 39.8855 33.0697C39.7029 33.8536 39.7315 34.6777 39.9283 35.3987C40.1224 36.1197 40.479 36.7349 40.8756 37.1669C40.636 36.629 40.4305 35.9995 40.3392 35.3157C40.2451 34.6319 40.265 33.8994 40.4305 33.2013C40.596 32.5003 40.9042 31.8365 41.2894 31.2671C41.6717 30.692 42.1368 30.2199 42.5905 29.8451Z" fill="#1D3C32"/>
<path d="M45.0872 42.3456L41.3122 38.2627C41.9456 45.3528 45.0872 49.7018 45.0872 49.7018V42.3456Z" fill="#1D3C32"/>
<path d="M32.2928 25.1298L30.421 19.3388C29.1627 15.4418 32.0589 11.4447 36.1448 11.4447C39.8741 11.4447 42.7046 14.8095 42.0769 18.4947L41.2894 23.1184C41.0925 24.2801 40.0881 25.1298 38.9097 25.1298H37.5686V28.6119H32.1958L32.2928 25.1298Z" fill="#F2C9AD"/>
<path d="M37.2976 22.3173L38.1422 22.509C38.7014 23.0812 39.4747 22.5919 39.4747 22.5919C38.9982 23.3301 38.1422 23.2729 38.1422 23.2729C37.5373 24.8122 35.5713 25.6992 35.5713 25.6992L35.6198 24.8351C34.4442 25.8594 32.6723 25.6019 32.6723 25.6019L32.8635 25.1813L32.2843 25.5046L32.2957 25.1356V22.1084L37.2976 22.3173Z" fill="#EBA58E"/>
<path d="M40.3221 21.024C40.3478 20.3459 40.3706 19.6392 40.0054 19.0412C39.8884 18.8495 39.7258 18.6836 39.5317 18.5691C38.827 18.1485 38.2249 18.5462 37.8597 19.0469C37.4887 19.5562 37.309 20.2 37.3603 20.8295C37.4117 21.4589 37.6942 22.0655 38.1422 22.5061C37.7199 23.8166 36.7897 25.0612 35.5713 25.6935C35.577 25.2157 35.6455 24.7236 35.6512 24.2457C34.8409 24.9496 33.7423 25.5447 32.6723 25.5962C32.8093 25.2615 33.0062 24.8952 33.1431 24.5633C32.4526 25.0469 31.6137 25.3273 30.772 25.3588C31.1115 25.024 31.3826 24.6263 31.5224 24.1714C29.3254 21.974 28.0499 18.881 27.8045 15.7794C27.7218 14.7294 27.7817 13.6135 28.3467 12.7294C28.9145 11.8453 30.1214 11.3045 31.0573 11.7823C31.1401 10.8153 32.1901 9.89396 33.1117 9.59353C34.0334 9.2931 35.0292 9.36749 35.9936 9.46764C36.958 9.56778 37.9424 9.68509 38.8869 9.45905C39.5346 9.30455 40.1566 8.98982 40.8243 8.98409C41.7545 8.97551 42.619 9.61356 43.0299 10.4519C43.4379 11.2902 43.4351 12.2888 43.1669 13.1815C42.8987 14.0742 42.3908 14.8782 41.8201 15.6135C41.977 16.0627 41.9428 16.5463 41.7859 16.9955C41.6289 17.4447 41.3151 17.8338 40.9127 18.0856L40.8928 19.4532C40.8814 20.0283 40.6816 20.5805 40.3221 21.024Z" fill="#8E5A61"/>
<path d="M39.3891 20.5377C39.1865 20.4776 38.9668 20.6092 38.8612 20.7923C38.7556 20.9754 38.7385 21.1929 38.7357 21.4046C38.7357 21.5105 38.7385 21.6163 38.7756 21.7136C38.8156 21.8109 38.8954 21.8967 39.001 21.911C39.0952 21.9225 39.1865 21.8767 39.2521 21.808C39.3177 21.7394 39.3548 21.6535 39.3919 21.5648C39.6259 20.9869 39.7115 20.346 39.6316 19.7279C39.6088 19.5591 39.5717 19.3846 39.4576 19.2616C39.3149 19.1042 39.0752 19.0641 38.8726 19.1271C38.67 19.19 38.5074 19.3417 38.3904 19.5191C38.2734 19.6936 38.1964 19.8939 38.1222 20.0913C38.1964 19.9483 38.339 19.7852 38.4418 19.6621C38.5445 19.5391 38.6757 19.4332 38.8327 19.396C38.9867 19.3588 39.1665 19.396 39.2749 19.5133C39.3691 19.6164 39.3976 19.7651 39.409 19.9053C39.4205 20.0999 39.4233 20.3431 39.3891 20.5377Z" fill="#EBA58E"/>
<path d="M130.299 58.7032L126.761 77.0922C126.07 80.6801 125.754 84.331 125.822 87.9848C125.928 93.5498 125.828 103.103 124.495 113.544H135.909C137.812 99.6184 135.244 84.2652 135.244 84.2652L140.759 68.623L143.422 85.5985C143.327 99.1406 140.948 113.544 140.948 113.544H153.217C153.882 98.2851 151.505 85.0263 151.505 85.0263C153.694 70.2425 154.595 68.5601 154.595 60.3971C146.346 53.3728 130.299 58.7032 130.299 58.7032Z" fill="#F0BF6C"/>
<path d="M154.595 61.2898C154.598 61.0008 154.598 60.7032 154.598 60.3971C146.346 53.3728 130.296 58.7032 130.296 58.7032L129.828 61.1295C137.658 64.3369 146.723 64.377 154.595 61.2898Z" fill="#E8916A"/>
<path d="M140.203 65.0666L140.759 68.6202L135.592 83.2724V76.9263C135.592 76.1366 135.877 75.3755 136.394 74.7804C136.993 74.0908 137.278 73.1838 137.176 72.2739L137.073 71.3584C136.927 70.0479 137.584 68.7804 138.734 68.1424L139.544 67.6932L137.538 66.7032C135.8 65.8448 134.251 64.6517 132.981 63.1868L140.203 65.0666Z" fill="#E8916A"/>
<path d="M140.203 65.0665L149.462 64.0908L148.492 64.7804C146.238 66.3826 143.29 66.6087 140.819 65.3755L140.203 65.0665Z" fill="#E8916A"/>
<path d="M131.62 83.527C130.362 85.0549 128.844 86.3653 127.149 87.3867C127.862 87.6156 128.664 87.5441 129.298 87.1493C129.897 86.7744 130.319 86.1736 130.659 85.5527C131.001 84.929 131.224 84.1135 131.62 83.527Z" fill="#E8916A"/>
<path d="M150.521 83.2695C149.907 85.178 148.478 86.8031 146.669 87.6558C147.288 87.8188 147.995 88.0878 148.572 87.8103C149.028 87.5899 149.325 87.1407 149.565 86.6915C150.104 85.6672 150.369 84.4169 150.521 83.2695Z" fill="#E8916A"/>
<path d="M144.683 82.64C145.122 83.7988 145.776 84.8746 146.6 85.7931C145.958 85.6557 145.396 85.238 145.025 84.6944C144.66 84.1564 144.577 83.2895 144.683 82.64Z" fill="#E8916A"/>
<path d="M133.672 25.5133C132.416 24.7007 131.555 23.2987 131.392 21.808C131.229 20.3173 131.771 18.7637 132.824 17.6993C131.566 16.9354 130.759 15.499 130.739 14.0255C130.719 12.552 131.498 11.0928 132.733 10.2917C132.214 9.04418 132.014 7.57352 132.562 6.33748C133.11 5.1043 134.488 4.20016 135.806 4.47484C135.86 3.04137 136.722 1.5421 138.049 1.00134C139.376 0.460569 141.002 0.77244 142.038 1.76528C143.901 0.277452 146.777 0.22595 148.783 1.51063C150.789 2.79531 151.839 5.41617 151.277 7.73661C152.401 8.14576 153.314 9.05276 153.622 10.2115C153.933 11.3703 153.645 12.6722 152.878 13.5935C154.447 14.2029 155.554 16.0312 155.391 17.7108C155.229 19.3903 153.856 20.8781 152.198 21.1728C152.723 22.5004 152.17 24.2515 151.02 25.0898C149.87 25.9281 148.321 26.0798 146.934 25.765C145.176 27.3759 142.974 28.3058 140.594 28.2428C138.22 28.177 135.672 26.8094 133.672 25.5133Z" fill="#422C4F"/>
<path d="M124.707 47.7534C123.023 47.8278 121.459 46.8864 120.735 45.3614L113.718 30.5747C111.393 30.3201 109.15 29.4331 107.159 28.1942C106.885 28.0225 106.733 27.7078 106.768 27.3845C106.853 26.5547 107.07 25.7221 107.41 24.9553C107.638 24.4403 108.28 24.2829 108.722 24.6263C109.35 25.1155 110.038 25.4989 110.794 25.8223C110.001 25.2586 109.327 24.4889 108.719 23.7078C108.54 23.4761 108.574 23.1442 108.796 22.9553L108.805 22.9496C109.028 22.7579 109.361 22.7751 109.561 22.9925C110.588 24.1084 111.815 25.044 113.205 25.642C112.974 24.8294 112.82 24.0111 112.734 23.1814C112.668 22.5233 113.176 21.951 113.835 21.951C114.514 24.7779 116.617 26.2085 116.463 29.0926L123.976 39.7019L126.384 34.2828L132.148 37.0267L128.33 45.3213C127.665 46.7434 126.27 47.6818 124.707 47.7534Z" fill="#BD6C67"/>
<path d="M126.381 34.2771L132.145 37.021L128.89 44.0939C126.59 40.3915 127.78 36.815 127.994 36.3858L126.179 34.7349L126.381 34.2771Z" fill="#422C4F"/>
<path d="M123.973 39.6991L125.931 42.4659C126.207 39.2242 124.13 39.3415 124.13 39.3415L123.973 39.6991Z" fill="#8C404C"/>
<path d="M133.697 24.4861C132.074 24.7178 130.642 25.6678 129.788 27.0697L125.631 33.9195L129.098 35.5704L133.697 24.4861Z" fill="#6D9B7C"/>
<path d="M128.208 35.1469C129.56 31.7822 130.453 30.28 131.7 29.2958L129.095 35.5704L128.208 35.1469Z" fill="#547374"/>
<path d="M138.528 26.5549C139.447 27.1958 140.645 27.3675 141.741 27.13C142.834 26.8925 143.824 26.2745 144.617 25.4848C145.017 25.0871 145.37 24.6436 145.69 24.1772L143.51 23.6679V19.1987L139.196 20.1286V23.7051L137.136 23.9998C137.141 24.9984 137.701 25.9769 138.528 26.5549Z" fill="#BD6C67"/>
<path d="M139.19 21.9482C140.528 22.8409 142.34 21.7308 143.504 20.6778V19.1929L139.19 20.1228V21.9482Z" fill="#8C404C"/>
<path d="M150.175 47.1611C150.175 41.7248 153.314 29.8508 150.389 25.2729L145.684 24.1742C145.368 24.6434 145.014 25.084 144.611 25.4817C143.818 26.2714 142.828 26.8894 141.735 27.1269C140.642 27.3644 139.441 27.1927 138.522 26.5518C137.695 25.9738 137.139 24.9953 137.127 23.9939L133.695 24.486L128.701 36.5117C127.991 38.2255 128.544 40.2055 130.042 41.2956C131.201 42.1396 131.823 43.5388 131.669 44.9665C131.229 49.0552 130.262 57.4156 129.412 60.3941C142.537 64.7575 154.592 60.3941 154.592 60.3941C154.598 56.2454 150.175 52.5973 150.175 47.1611Z" fill="#80AF12"/>
<path d="M144.577 42.3342H132.413C132.473 41.9479 132.938 41.8049 133.326 41.822C133.717 41.8392 134.103 41.9794 134.488 41.9222C135.09 41.8335 135.512 41.3042 135.943 40.8721C136.374 40.4401 137.01 40.051 137.561 40.3142C138.1 40.5717 138.226 41.3042 138.694 41.6761C139.079 41.9794 139.624 41.9823 140.097 41.8621C140.571 41.7391 141.013 41.5102 141.487 41.3929C142.528 41.1268 143.81 41.5817 144.577 42.3342Z" fill="#547374"/>
<path d="M151.545 29.2986H145.419L146.754 45.5502L136.411 48.5945C136.411 48.5945 133.532 45.7362 131.58 45.8478C131.458 46.9636 131.306 48.2884 131.138 49.6932C133.392 53.6045 136.103 52.6031 136.103 52.6031L148.227 55.4643C149.83 55.842 151.397 55.5616 152.686 54.8291C151.491 52.5573 150.178 50.1281 150.178 47.1668C150.175 42.9437 152.064 34.8522 151.545 29.2986Z" fill="#547374"/>
<path d="M149.773 25.1299C151.973 25.6449 153.679 27.3845 154.159 29.5991L155.788 37.1498L146.991 37.8651L145.419 29.2986C145.074 27.416 146.255 25.5905 148.11 25.1385C148.655 25.004 149.225 25.0011 149.773 25.1299Z" fill="#6D9B7C"/>
<path d="M147.61 37.8135L148.986 46.8778L136.194 49.5016L133.503 46.3685C133.064 45.8564 132.456 45.5102 131.786 45.4301C129.811 45.1983 128.633 46.8807 128.633 46.8807C128.967 47.2698 129.514 47.4129 129.985 47.2097C130.664 46.9179 131.272 46.9179 131.272 46.9179C129.994 47.3499 129.218 47.8678 128.758 48.2855C128.353 48.6546 128.151 49.1954 128.222 49.739L128.35 50.7319C128.444 51.4643 129.34 51.7648 129.857 51.2383C130.544 50.5344 131.052 50.3799 131.052 50.3799C132.63 53.3213 135.803 51.9279 135.803 51.9279L149.117 53.7619C152.512 54.2311 155.448 51.3842 155.095 47.9651L153.996 37.3014L147.61 37.8135Z" fill="#BD6C67"/>
<path d="M148.988 46.875L152.353 48.5918C151.354 45.8393 150.15 46.2398 148.897 46.2713L148.988 46.875Z" fill="#8C404C"/>
<path d="M147.61 37.8136L153.996 37.2928L154.05 37.8136L147.898 39.6991L147.61 37.8136Z" fill="#422C4F"/>
<path d="M146.118 16.323C145.262 15.3388 144.897 13.8281 145.313 12.592C144.492 12.0112 143.664 11.4247 142.962 10.7008C142.263 9.97689 141.73 9.09564 141.521 8.10852C140.32 9.5334 138.579 10.4776 136.739 10.7351C136.722 10.7523 136.705 10.7666 136.688 10.7837L136.283 12.7151C135.917 14.4604 135.934 16.2658 136.334 18.0054L136.368 18.1599C136.545 18.9324 136.93 19.6563 137.512 20.1914C138.505 21.1041 139.869 21.4045 141.11 21.0526L142.717 20.5977C143.647 20.3344 144.483 19.848 145.171 19.2014C145.148 18.1599 145.47 17.0669 146.118 16.323Z" fill="#BD6C67"/>
<path d="M144.095 14.3917L141.202 13.3159C141.624 12.9611 142.323 12.9468 142.828 13.1699C143.333 13.396 143.81 13.9196 144.095 14.3917Z" fill="#422C4F"/>
<path d="M142.183 15.1127C142.078 15.3989 141.798 15.5562 141.558 15.4675C141.319 15.3788 141.21 15.0755 141.316 14.7894C141.421 14.5033 141.701 14.3459 141.941 14.4346C142.18 14.5233 142.289 14.8266 142.183 15.1127Z" fill="#422C4F"/>
<path d="M136.699 11.645L138.348 12.2573C138.368 11.7537 138.109 11.3846 137.803 11.3045C137.498 11.2272 137.05 11.4075 136.699 11.645Z" fill="#422C4F"/>
<path d="M137.059 13.2072C136.953 13.4933 136.979 13.7652 137.116 13.8167C137.253 13.8682 137.447 13.6765 137.552 13.3932C137.658 13.1071 137.632 12.8353 137.495 12.7838C137.361 12.7323 137.164 12.924 137.059 13.2072Z" fill="#422C4F"/>
<path d="M139.187 16.3345L137.561 15.7308C137.587 16.0713 137.821 16.4032 138.134 16.5377C138.451 16.6693 138.925 16.5549 139.187 16.3345Z" fill="#8C404C"/>
<path d="M141.507 17.9453C140.217 17.8624 138.928 17.7794 137.638 17.6964C137.803 18.1685 138.214 18.5405 138.679 18.7236C139.144 18.9067 139.669 18.9067 140.152 18.7694C140.634 18.6349 141.128 18.2715 141.507 17.9453Z" fill="white"/>
<path d="M146.629 116.946C148.563 117.129 150.635 116.694 152.407 115.816C152.07 114.365 151.554 113.544 151.554 113.544H142.976C142.802 113.853 142.603 114.145 142.38 114.419C144.081 114.548 145.727 115.487 146.629 116.946Z" fill="#BD6C67"/>
<path d="M146.629 116.946C145.727 115.487 144.081 114.551 142.383 114.419C141.781 115.166 141.019 115.781 140.152 116.19C139.15 116.665 138.032 116.871 137.062 117.406C136.091 117.941 135.364 119.123 135.552 120.219H152.552C152.82 118.434 152.666 116.937 152.407 115.816C150.635 116.694 148.563 117.129 146.629 116.946Z" fill="white"/>
<path d="M142.976 113.541H151.554C147.322 115.83 142.976 113.541 142.976 113.541Z" fill="#422C4F"/>
<path d="M129.032 116.946C130.967 117.129 133.038 116.694 134.81 115.816C134.474 114.365 133.957 113.544 133.957 113.544H125.38C125.206 113.853 125.006 114.145 124.784 114.419C126.487 114.548 128.131 115.487 129.032 116.946Z" fill="#BD6C67"/>
<path d="M129.032 116.946C128.131 115.487 126.484 114.551 124.786 114.419C124.184 115.166 123.423 115.781 122.555 116.19C121.554 116.665 120.435 116.871 119.465 117.406C118.495 117.941 117.767 119.123 117.956 120.219H134.956C135.224 118.434 135.07 116.937 134.81 115.816C133.041 116.694 130.97 117.129 129.032 116.946Z" fill="white"/>
<path d="M125.383 113.541H133.96C129.728 115.83 125.383 113.541 125.383 113.541Z" fill="#422C4F"/>
</svg>
