<svg width="191" height="134" viewBox="0 0 191 134" fill="none" xmlns="http://www.w3.org/2000/svg">
<path d="M128.084 100.008C131.802 97.1228 129.268 91.2126 132.684 87.8196C135.24 85.2792 138.636 86.7785 141.886 85.4764C144.596 84.3889 145.521 79.0442 148.337 77.2694C151.21 75.4569 153.579 76.817 156.443 76.1239C159.188 75.4598 160.461 72.3046 163.1 71.2461C164.895 70.5269 166.949 71.0779 168.87 70.8981C170.49 70.7473 173.284 69.712 173.946 69.5525C170.077 72.4409 171.837 77.6348 168.57 80.8799C167.101 82.3386 164.861 82.4604 163.317 83.4348C162.344 84.0467 161.602 84.9776 160.775 85.7983C158.181 88.3764 158.389 92.8308 155.285 95.1711C152.771 97.0677 149.618 96.7226 147.998 98.335C147.253 99.0745 146.716 100.635 146.094 101.476C143.184 105.423 141.54 104.236 138.299 103.946C136.139 103.752 130.184 100.316 128.372 100.754C128.118 100.814 128.147 100.266 128.084 100.008Z" fill="#2EC27E"/>
<path d="M171.218 71.1127C167.917 73.5603 164.553 75.9412 161.157 78.2844C161.531 76.7184 162.495 74.6768 163.634 73.3254L163.22 72.9658C161.868 74.5724 160.763 76.9707 160.487 78.7426C156.6 81.4164 152.68 84.0525 148.757 86.6857C149.145 84.3599 150.56 81.2917 151.442 78.7658L150.928 78.5802C150.003 81.2279 148.403 84.5484 148.132 87.1033C143.315 90.3339 138.51 93.5732 133.788 96.8966C134.245 94.6114 135.791 91.4736 137.369 89.4697L136.944 89.1246C135.178 91.3692 133.474 94.8434 133.149 97.3461C132.475 97.8217 131.796 98.2915 131.129 98.77C128.689 100.519 125.159 100.846 122.603 102.462L122.888 102.931C125.276 101.423 128.829 101.093 131.44 99.2224C132.047 98.7874 132.664 98.3611 133.277 97.929C137.34 99.8343 142.065 98.8715 145.932 99.2195L145.98 98.6685C142.097 98.3205 137.606 99.1702 133.819 97.5491C138.619 94.1648 143.512 90.8675 148.417 87.576C149.55 87.8892 151.142 88.5852 152.734 89.0492C154.372 89.5277 156.038 89.7858 157.257 89.0173L156.968 88.5475C155.993 89.1623 154.472 88.9825 152.882 88.5185C151.507 88.1183 150.132 87.547 148.996 87.1874C152.854 84.6006 156.706 82.008 160.532 79.3777C160.566 79.4067 160.606 79.427 160.649 79.4357C161.91 79.7199 163.209 79.5343 164.467 79.3168C165.725 79.0993 166.941 78.8499 168.025 78.9456L168.074 78.3946C166.875 78.2873 165.62 78.5541 164.376 78.7716C163.271 78.963 162.181 79.0993 161.157 78.9514C164.658 76.5357 168.131 74.0852 171.538 71.5593L171.218 71.1127Z" fill="#26A269"/>
<path d="M126.078 88.7256C127.732 85.2385 123.348 82.247 124.557 78.5378C125.465 75.7612 128.684 75.3921 130.632 73.1746C132.257 71.3255 130.756 67.3041 132.176 64.9417C133.625 62.5307 136.001 62.4884 137.907 60.8427C139.733 59.2673 139.404 56.5954 140.987 54.7943C142.062 53.5696 143.865 53.1045 145.262 52.1966C146.44 51.4301 148.152 49.5819 148.592 49.2007C146.824 52.7521 150.322 55.5707 149.162 59.1195C148.642 60.7145 146.978 61.7137 146.198 63.01C145.708 63.8249 145.523 64.7644 145.229 65.6617C144.309 68.4806 146.311 71.4298 144.905 74.2954C143.765 76.6187 141.208 77.6736 140.632 79.4339C140.367 80.2434 140.603 81.526 140.475 82.3538C139.88 86.2345 138.131 86.0986 135.529 87.228C133.794 87.9817 127.814 88.0758 126.609 89.1151C126.438 89.2634 126.231 88.8773 126.078 88.7256Z" fill="#2EC27E"/>
<path d="M147.161 51.3808C145.646 54.3996 144.056 57.3976 142.426 60.384C142.064 59.1632 141.959 57.3791 142.272 55.9912L141.807 55.9158C141.436 57.5643 141.582 59.6497 142.106 60.9693C140.238 64.3825 138.326 67.7829 136.413 71.179C135.747 69.4362 135.563 66.7682 135.193 64.6851L134.725 64.7698C135.113 66.9525 135.26 69.8679 136.108 71.7211C133.757 75.8918 131.418 80.0675 129.178 84.2622C128.583 82.5193 128.47 79.7466 128.848 77.7359L128.379 77.6747C127.955 79.9262 128.089 82.9907 128.873 84.8289C128.554 85.4286 128.23 86.025 127.917 86.6271C126.773 88.8181 124.207 90.4835 122.918 92.629L123.332 92.8329C124.537 90.8293 127.12 89.1496 128.345 86.8061C128.629 86.2598 128.926 85.7184 129.215 85.1724C133.114 84.808 136.332 82.2203 139.434 80.8728L139.242 80.4784C136.127 81.8314 133.041 84.246 129.471 84.6942C131.745 80.4244 134.126 76.1753 136.52 71.9259C137.516 71.6768 139.022 71.4975 140.433 71.1618C141.884 70.818 143.267 70.3122 143.88 69.2889L143.466 69.0871C142.975 69.9048 141.735 70.4047 140.329 70.7387C139.11 71.0271 137.821 71.2016 136.802 71.4226C138.684 68.0831 140.562 64.7404 142.403 61.3821C142.441 61.3874 142.48 61.3845 142.516 61.3732C143.597 61.0511 144.516 60.3929 145.389 59.7299C146.262 59.067 147.09 58.3993 147.96 58.0227L147.768 57.6284C146.808 58.0449 145.958 58.7411 145.093 59.3983C144.327 59.9802 143.549 60.5193 142.704 60.8368C144.385 57.7588 146.027 54.6683 147.591 51.5538L147.161 51.3808Z" fill="#26A269"/>
<path d="M57.7322 88.2842C54.0149 89.1215 52.1449 84.119 48.3159 84.4701C45.4482 84.7336 44.3631 87.8261 41.7953 89.2431C39.6543 90.4256 36.142 88.031 33.5569 88.8953C30.9179 89.7781 30.3363 92.1116 28.3277 93.6165C26.402 95.0596 23.919 94.1275 21.8328 95.2814C20.4151 96.0651 19.5604 97.7347 18.3717 98.905C17.368 99.8923 15.2092 101.161 14.7467 101.508C18.5512 100.57 20.4566 104.658 24.1203 104.324C25.7676 104.174 27.1018 102.757 28.522 102.284C29.415 101.985 30.3562 102.015 31.2839 101.93C34.1931 101.663 36.5651 104.306 39.6303 103.57C42.1142 102.972 43.7067 100.691 45.5251 100.524C46.3617 100.448 47.5368 100.97 48.3581 101.034C52.2106 101.327 52.4803 99.5718 54.1519 97.2619C55.2679 95.7214 56.7174 89.8449 57.9862 88.8936C58.164 88.7604 57.8405 88.4699 57.7322 88.2842Z" fill="#2EC27E"/>
<path d="M17.1668 100.589C20.4028 99.7799 23.6358 98.8927 26.8665 97.9644C25.7798 97.3317 24.0942 96.8218 22.693 96.8149L22.7267 96.3396C24.3911 96.3484 26.3552 96.9657 27.5016 97.7781C31.194 96.7108 34.8854 95.5993 38.5748 94.4837C37.0586 93.4336 34.541 92.6448 32.632 91.8085L32.8183 91.3656C34.819 92.2431 37.5796 93.0491 39.1633 94.308C43.6941 92.9361 48.2238 91.5795 52.7511 90.3252C51.2172 89.3438 48.5864 88.6037 46.5741 88.5193L46.6213 88.0437C48.8751 88.136 51.7804 88.9627 53.3613 90.1559C54.008 89.9774 54.6542 89.7918 55.3014 89.6205C57.6607 88.9897 59.8383 86.8396 62.1874 86.0546L62.2871 86.508C60.0928 87.2406 57.8973 89.405 55.3748 90.0816C54.7866 90.2399 54.1999 90.4075 53.6127 90.5679C52.3788 94.3258 49.1674 96.9104 47.1728 99.6622L46.8385 99.3835C48.8408 96.6189 51.8564 94.1274 53.095 90.7088C48.487 91.982 43.8772 93.3647 39.262 94.7593C38.7969 95.6858 38.2839 97.1278 37.6424 98.4414C36.9824 99.7919 36.1842 101.04 35.0636 101.414L34.9639 100.961C35.8589 100.662 36.6204 99.5536 37.2606 98.243C37.8132 97.1096 38.273 95.8786 38.7169 94.9232C35.0892 96.0199 31.4595 97.1124 27.8252 98.1647C27.8234 98.2025 27.8104 98.2396 27.791 98.2743C27.237 99.2674 26.3979 100.025 25.5637 100.733C24.7294 101.441 23.903 102.107 23.343 102.877L23.0087 102.599C23.6264 101.747 24.4864 101.066 25.3101 100.364C26.0418 99.7396 26.7348 99.0957 27.2293 98.3359C23.8991 99.2952 20.5665 100.214 17.2282 101.047L17.1668 100.589Z" fill="#26A269"/>
<path d="M22.8657 47.6135C21.2271 50.508 23.4057 52.996 23.7162 53.329C23.7517 53.4361 23.78 53.5306 23.817 53.6415C24.0446 54.2936 24.3071 54.9297 24.5888 55.5429C23.893 54.7081 22.8161 53.9405 21.1968 53.9336C21.8131 56.9911 23.8683 57.7835 25.6663 57.6272C25.9882 58.1826 26.2832 58.6473 26.4992 58.9605C26.4992 58.9605 26.5007 58.9643 26.5033 58.9655C25.3993 58.2614 23.8365 57.719 22.0423 58.4376C23.9063 61.1512 26.0894 61.3579 27.7565 60.6743C28.2477 61.308 28.8154 62.004 29.4715 62.7487C29.5741 62.8666 29.6738 62.977 29.7787 63.0897C28.5495 62.3647 26.1216 61.4069 23.6534 63.1364C26.2725 65.6813 28.7674 65.1414 30.4359 63.8097C31.6154 65.0763 32.7107 66.123 33.533 66.8658C34.5186 67.7599 34.8232 67.9895 34.8247 67.9933L35.0483 68.1713L35.0466 68.0729L35.0414 67.7116L35.0362 67.3503L35.2593 67.4272C35.2619 67.4284 34.961 67.2193 33.9757 66.3537C33.1276 65.6057 31.9824 64.5369 30.7561 63.2337C32.3452 61.8541 33.3231 59.5293 31.4479 56.4611C29.2309 58.5604 29.6827 61.1984 30.1292 62.5524C30.0636 62.4792 29.997 62.4087 29.9315 62.3355C29.2322 61.5528 28.6361 60.8284 28.1253 60.1672C29.5694 59.0035 30.4914 56.9121 28.8959 53.9051C26.9123 55.6544 27.1966 58.0922 27.5543 59.413C27.3465 59.1318 27.159 58.8691 26.9875 58.6198C26.7745 58.3143 26.4555 57.8546 26.1088 57.3355C27.2119 55.9543 27.6783 53.878 25.6427 51.6551C24.6435 53.0635 24.6894 54.479 25.0043 55.5635C24.6409 54.9298 24.2952 54.2694 23.9874 53.5785C23.9417 53.4732 23.9043 53.3779 23.8613 53.2738C24.8479 51.7779 25.1355 49.6381 22.8657 47.6135Z" fill="#1C774D"/>
<path d="M48.6404 74.3128C50.175 58.3815 41.4895 50.386 29.036 46.9436C25.3546 63.6816 37.9986 76.4899 48.6404 74.3128Z" fill="#A3CB69"/>
<path d="M29.8166 48.6603C29.9539 48.5745 30.1362 48.6177 30.2223 48.7578C30.2223 48.7578 32.4005 52.2762 35.4791 56.8575C35.5105 54.7374 36.4983 52.983 36.4983 52.983C36.5799 52.8409 36.7573 52.7934 36.8998 52.8752C37.0407 52.9593 37.0893 53.1397 37.0101 53.2834C37.0101 53.2834 35.7885 55.4994 36.103 57.7801C36.8201 58.8373 37.5615 59.9255 38.3477 61.0448C38.7667 61.6434 39.2014 62.2494 39.6345 62.8579L41.7739 57.0421C41.8311 56.89 42.0007 56.8128 42.1513 56.8722C42.3019 56.9317 42.3798 57.1045 42.3227 57.2566L40.0464 63.4411C41.2449 65.102 42.4821 66.762 43.7088 68.3344C44.0281 67.5031 44.0846 66.2482 44.0128 65.1483C43.931 63.8878 43.722 62.8528 43.722 62.8528C43.7051 62.7748 43.7207 62.6949 43.7638 62.6307C43.8069 62.5665 43.8736 62.5188 43.9488 62.5048C44.1087 62.4731 44.2621 62.5799 44.2966 62.74C44.2966 62.74 44.5148 63.8128 44.5987 65.1165C44.6798 66.373 44.6629 67.8473 44.1368 68.873C46.9895 72.4807 49.7674 75.5654 51.8661 76.9947C52.0006 77.0884 52.0374 77.2709 51.9487 77.4081C51.8601 77.5452 51.6781 77.5789 51.5419 77.4877C49.2976 75.9605 46.4625 72.8012 43.5762 69.1352C39.226 69.0621 36.8344 68.2905 36.8344 68.2905C36.6791 68.2382 36.5924 68.0732 36.6424 67.9162C36.6909 67.7616 36.8543 67.673 37.0097 67.7253C37.0097 67.7253 39.1355 68.4026 43.091 68.5219C41.8918 66.9756 40.6891 65.357 39.5197 63.7303L32.9588 63.493C32.796 63.4879 32.6673 63.3494 32.6731 63.186C32.6766 63.021 32.8118 62.8918 32.973 62.8994L39.0858 63.1179C38.6754 62.5427 38.2603 61.9642 37.8609 61.3932C37.1553 60.3858 36.486 59.4071 35.833 58.4503C35.8251 58.4518 35.8188 58.4509 35.8109 58.4523C33.117 57.9762 31.5039 57.4639 30.5548 57.0615C30.0803 56.8603 29.7708 56.6867 29.5748 56.5608C29.3804 56.4325 29.2791 56.3305 29.2791 56.3305C29.166 56.21 29.1712 56.0218 29.289 55.9083C29.4067 55.7949 29.5924 55.8021 29.7055 55.9226C29.7055 55.9226 29.7321 55.9551 29.8911 56.0588C30.0524 56.1641 30.3304 56.3228 30.7782 56.5123C31.598 56.8596 33.0747 57.3119 35.3594 57.7474C32.081 52.8911 29.7158 49.0785 29.7158 49.0785C29.6346 48.9313 29.6777 48.7485 29.8166 48.6603C29.815 48.6627 29.815 48.6627 29.8166 48.6603Z" fill="#D3EAAC"/>
<path d="M45.1787 70.8797C44.1112 86.8898 34.2237 93.1546 21.3477 94.2256C20.4224 77.0214 35.0046 66.7425 45.1787 70.8797Z" fill="#A3CB69"/>
<path d="M22.3953 92.6723C22.5171 92.7832 22.7025 92.7741 22.8109 92.6519C22.8109 92.6519 25.5385 89.5831 29.3324 85.6349C29.0204 87.7357 29.7126 89.6548 29.7126 89.6548C29.769 89.8092 29.9379 89.8905 30.0925 89.8362C30.2445 89.7807 30.3231 89.6106 30.2679 89.4536C30.2679 89.4536 29.4186 87.0357 30.0985 84.8428C30.9808 83.932 31.8898 82.9952 32.8516 82.0377C33.3644 81.5242 33.8923 81.0049 34.4217 80.4893L35.597 86.635C35.6282 86.7971 35.7832 86.9038 35.9431 86.8738C36.1029 86.8439 36.2068 86.6882 36.1756 86.5261L34.9277 79.9918C36.3861 78.5735 37.8773 77.1667 39.3488 75.8426C39.5307 76.7245 39.3837 77.9745 39.1329 79.049C38.8475 80.2785 38.4722 81.2631 38.4722 81.2631C38.4443 81.3359 38.4466 81.4189 38.4778 81.4927C38.509 81.5665 38.5699 81.6219 38.6422 81.6508C38.7945 81.7122 38.9645 81.6363 39.0236 81.4828C39.0236 81.4828 39.4136 80.4637 39.708 79.1909C39.9923 77.9641 40.2157 76.5051 39.8627 75.3927C43.2723 72.3619 46.5238 69.8349 48.8338 68.8138C48.9839 68.748 49.0494 68.5721 48.9828 68.4195C48.9163 68.267 48.7417 68.1989 48.5916 68.2647C46.1214 69.3534 42.8018 71.9448 39.3478 75.0284C35.0287 74.2899 32.5353 74.6019 32.5353 74.6019C32.3735 74.6215 32.2618 74.7737 32.2828 74.9376C32.3039 75.1015 32.4554 75.2161 32.6172 75.1965C32.6172 75.1965 34.8333 74.9254 38.7673 75.5465C37.3266 76.8496 35.8735 78.226 34.4543 79.6112L27.9206 78.6177C27.7588 78.5932 27.6102 78.707 27.5876 78.8704C27.565 79.0338 27.679 79.1854 27.8407 79.2099L33.9267 80.137C33.4255 80.6304 32.9218 81.1226 32.4345 81.6128C31.5725 82.4758 30.7504 83.3187 29.95 84.1397C29.9421 84.1362 29.9357 84.1365 29.9278 84.133C27.1836 84.1002 25.5035 84.3035 24.4991 84.5229C23.9961 84.6307 23.6628 84.7445 23.4488 84.8355C23.2347 84.9265 23.1188 85.0075 23.1188 85.0075C22.9897 85.1048 22.9634 85.2918 23.0597 85.426C23.1571 85.5576 23.3421 85.5861 23.4738 85.4901C23.4738 85.4901 23.5043 85.4626 23.6796 85.389C23.8549 85.3155 24.1566 85.2098 24.6318 85.1085C25.5008 84.9204 27.0326 84.7492 29.3695 84.7461C25.334 88.9309 22.3724 92.2553 22.3724 92.2553C22.2625 92.3736 22.2734 92.5614 22.3953 92.6723Z" fill="#D3EAAC"/>
<path d="M43.502 72.3224C35.2717 58.4887 23.6561 57.3925 11.7574 62.3085C18.7667 78.122 36.3661 80.6632 43.502 72.3224Z" fill="#62AA4B"/>
<path d="M13.3831 63.1864C13.441 63.0316 13.6111 62.9535 13.7625 63.0139C13.7625 63.0139 17.5784 64.5183 22.7392 66.3267C21.5051 64.5866 21.2463 62.55 21.2463 62.55C21.2265 62.3841 21.339 62.2355 21.5005 62.2135C21.662 62.1914 21.8078 62.3105 21.8303 62.4763C21.8303 62.4763 22.178 65.0327 23.7816 66.6885C24.9778 67.1018 26.2116 67.525 27.4995 67.9457C28.1871 68.1717 28.8915 68.3939 29.5961 68.619L27.8384 62.5718C27.7934 62.413 27.882 62.245 28.0366 62.1999C28.1913 62.1547 28.3557 62.2467 28.4007 62.4055L30.269 68.8369C32.2052 69.4414 34.1716 70.0212 36.0777 70.5365C35.8371 69.6637 35.1367 68.6102 34.4266 67.762C33.6133 66.7897 32.8331 66.0794 32.8331 66.0794C32.7733 66.0265 32.7382 65.952 32.7343 65.8732C32.7303 65.7944 32.7549 65.7142 32.8062 65.6562C32.9141 65.5313 33.0991 65.5228 33.2215 65.6313C33.2215 65.6313 34.0315 66.3667 34.8722 67.3728C35.6826 68.3422 36.5447 69.5493 36.7368 70.7081C41.1403 71.8665 45.1739 72.6469 47.6863 72.5051C47.8484 72.4947 47.986 72.623 47.9972 72.7893C48.0084 72.9555 47.8841 73.0959 47.722 73.1063C45.0362 73.259 40.9129 72.4535 36.4481 71.2686C32.9565 73.9077 30.6027 74.7651 30.6027 74.7651C30.4485 74.819 30.2818 74.7389 30.2282 74.5804C30.1747 74.4219 30.2517 74.2515 30.406 74.1976C30.406 74.1976 32.4932 73.4286 35.6993 71.0718C33.8305 70.5607 31.9161 69.9932 30.0232 69.3983L24.6818 73.2755C24.5497 73.3723 24.3655 73.3398 24.2731 73.2036C24.1778 73.0675 24.2083 72.8788 24.3406 72.7849L29.3156 69.1704C28.6487 68.9581 27.9761 68.7462 27.3205 68.5305C26.163 68.1505 25.0513 67.7714 23.9656 67.3999C23.9602 67.406 23.9546 67.4092 23.9492 67.4153C21.5312 68.7 19.9483 69.2848 18.9571 69.5469C18.4615 69.678 18.1131 69.7291 17.8829 69.7485C17.6526 69.7649 17.5118 69.745 17.5118 69.745C17.3507 69.7173 17.243 69.5613 17.269 69.3963C17.295 69.2312 17.4464 69.1218 17.6076 69.1495C17.6076 69.1495 17.648 69.1593 17.8356 69.1449C18.0261 69.1303 18.3406 69.0866 18.808 68.9626C19.6641 68.736 21.1032 68.187 23.1728 67.1232C17.6904 65.2155 13.5516 63.5884 13.5516 63.5884C13.3996 63.5163 13.3254 63.3442 13.3831 63.1864Z" fill="#86C96D"/>
<path d="M49.0548 36.0668C45.8576 36.9247 45.6716 40.2389 45.6617 40.6954C45.6134 40.7939 45.5659 40.8834 45.5154 40.9872C45.2224 41.6086 44.9636 42.2451 44.7353 42.8762C44.8224 41.791 44.5874 40.4777 43.4371 39.3078C41.7377 41.9002 42.6523 43.9316 44.047 45.1153C43.8887 45.7364 43.7745 46.2761 43.7086 46.6509C43.7086 46.6509 43.7101 46.6547 43.7063 46.6562C43.41 45.3694 42.6715 43.8644 40.8867 43.0822C40.3186 46.3311 41.7357 48.0424 43.4051 48.7577C43.312 49.5561 43.2335 50.4525 43.1785 51.4477C43.1693 51.6015 43.1639 51.7538 43.1573 51.9087C42.7843 50.5153 41.7183 48.0979 38.7447 47.5428C38.8328 51.2122 40.9972 52.6237 43.1219 52.8874C43.0784 54.6265 43.1289 56.1452 43.1949 57.2604C43.2734 58.5958 43.3297 58.9775 43.3312 58.9813L43.3666 59.2653L43.4344 59.1944L43.6852 58.9363L43.936 58.6782L44.0419 58.8924C44.0434 58.8963 43.9738 58.5308 43.8772 57.2158C43.7947 56.0806 43.7244 54.5057 43.7607 52.7099C45.8622 52.8812 48.1907 51.9473 48.9956 48.4436C45.9406 48.3292 44.419 50.5048 43.7874 51.781C43.7921 51.682 43.7929 51.5845 43.7975 51.4856C43.8454 50.4335 43.9282 49.4979 44.0244 48.663C45.8708 48.8822 47.9934 48.0717 48.9598 44.8132C46.3144 44.6184 44.8141 46.5383 44.1439 47.7216C44.191 47.3763 44.2433 47.0554 44.2956 46.7566C44.3581 46.3897 44.4497 45.8369 44.5648 45.2219C46.3181 45.043 48.1086 43.9179 48.2085 40.8938C46.5081 41.1687 45.5508 42.1962 45.0171 43.1843C45.2026 42.4774 45.4185 41.765 45.6823 41.0581C45.7223 40.9496 45.7645 40.8578 45.8049 40.7558C47.5531 40.42 49.258 39.1212 49.0548 36.0668Z" fill="#1C774D"/>
<path d="M31.6673 99.4458C34.9817 99.4576 36.0095 96.3118 36.136 95.8754C36.2094 95.7912 36.2772 95.7203 36.3518 95.6334C36.7939 95.1098 37.2067 94.5669 37.5884 94.0165C37.2272 95.04 37.1181 96.3679 37.9329 97.7963C40.2411 95.7424 39.8763 93.5445 38.8277 92.0409C39.1408 91.4822 39.39 90.9929 39.5461 90.6486L39.5457 90.6422C39.5028 91.9615 39.8322 93.6039 41.361 94.825C42.7406 91.8447 41.8062 89.8234 40.3724 88.695C40.6659 87.9477 40.9746 87.106 41.28 86.1619C41.3279 86.0127 41.3724 85.8715 41.4166 85.7238C41.4216 87.1654 41.8341 89.7727 44.5712 91.0878C45.4216 87.5287 43.6898 85.602 41.6983 84.7912C42.1858 83.1261 42.5249 81.6477 42.745 80.5584C43.0091 79.2488 43.0529 78.8673 43.054 78.8646L43.0904 78.5809L43.0061 78.6319L42.6972 78.8137L42.3881 78.9954L42.3414 78.76C42.3399 78.7562 42.3135 79.1265 42.0728 80.4181C41.8631 81.5341 41.5285 83.0681 41.0352 84.7907C39.044 84.0747 36.5521 84.3647 34.8778 87.5299C37.806 88.4405 39.837 86.7435 40.7717 85.6808C40.7438 85.7757 40.7169 85.868 40.6863 85.9617C40.3689 86.9636 40.0523 87.8459 39.7464 88.6225C38.0154 87.9273 35.7544 88.1523 33.9861 91.0391C36.4957 91.9187 38.4392 90.4638 39.3922 89.4976C39.2553 89.8189 39.1259 90.115 39.0004 90.3876C38.8439 90.7254 38.615 91.2331 38.3469 91.796C36.6019 91.5081 34.5839 92.125 33.7132 95.0123C35.429 95.1925 36.6168 94.4536 37.3876 93.6433C37.0274 94.2758 36.6374 94.9046 36.2015 95.5162C36.1337 95.6093 36.0715 95.689 36.006 95.7768C34.2277 95.6477 32.2485 96.4523 31.6635 99.4473L31.6673 99.4458Z" fill="#1C774D"/>
<path d="M154.318 128.3C154.318 119.106 154.176 116.288 153.947 111.692C153.716 107.096 153.433 107.096 153.202 111.692C152.971 116.288 152.831 119.108 152.831 128.3H153.576H154.318Z" fill="#A9CE72"/>
<path d="M153.573 110.632C154.396 110.632 155.063 109.954 155.063 109.118C155.063 108.282 154.396 107.604 153.573 107.604C152.751 107.604 152.084 108.282 152.084 109.118C152.084 109.954 152.751 110.632 153.573 110.632Z" fill="#60B141"/>
<path d="M154.366 104.902C154.366 108.501 154.007 109.077 153.564 109.077C153.121 109.077 152.762 108.501 152.762 104.902C152.762 101.302 153.121 96.0413 153.564 96.0413C154.007 96.0388 154.366 101.3 154.366 104.902ZM149.62 110.456C152.688 108.656 153.357 108.683 153.578 109.074C153.8 109.464 153.488 110.069 150.42 111.868C147.352 113.668 142.69 115.983 142.468 115.593C142.25 115.202 146.553 112.255 149.62 110.456ZM156.725 111.856C153.657 110.056 153.345 109.452 153.566 109.062C153.788 108.673 154.459 108.644 157.524 110.444C160.592 112.243 164.895 115.189 164.674 115.579C164.455 115.971 159.792 113.656 156.725 111.856Z" fill="#A9CE72"/>
<path d="M153.573 109.686C153.882 109.686 154.133 109.432 154.133 109.118C154.133 108.804 153.882 108.549 153.573 108.549C153.265 108.549 153.014 108.804 153.014 109.118C153.014 109.432 153.265 109.686 153.573 109.686Z" fill="#60B141"/>
<path d="M169.826 129.903C169.826 113.577 169.572 108.574 169.167 100.413C168.757 92.252 168.254 92.252 167.844 100.413C167.434 108.574 167.185 113.582 167.185 129.903H168.507H169.826Z" fill="#A9CE72"/>
<path d="M172.391 96.4512C172.73 94.2793 171.272 92.2393 169.135 91.8947C166.998 91.5501 164.991 93.0314 164.652 95.2034C164.313 97.3753 165.771 99.4153 167.908 99.7599C170.045 100.104 172.052 98.6231 172.391 96.4512Z" fill="#60B141"/>
<path d="M169.91 88.3564C169.91 94.7475 169.272 95.7698 168.486 95.7698C167.7 95.7698 167.062 94.7475 167.062 88.3564C167.062 81.9652 167.7 72.6233 168.486 72.6233C169.272 72.6233 169.91 81.9652 169.91 88.3564ZM161.484 98.218C166.931 95.0224 168.119 95.0697 168.512 95.7655C168.905 96.457 168.351 97.5308 162.904 100.726C157.456 103.922 149.178 108.032 148.785 107.341C148.392 106.649 156.036 101.414 161.484 98.218ZM174.103 100.705C168.655 97.5093 168.102 96.4355 168.495 95.744C168.888 95.0525 170.08 95.001 175.523 98.1965C180.97 101.392 188.611 106.624 188.218 107.315C187.825 108.011 179.546 103.9 174.103 100.705Z" fill="#A9CE72"/>
<path d="M168.503 94.8378C169.053 94.8378 169.496 95.2888 169.496 95.8471C169.496 96.4055 169.053 96.8565 168.503 96.8565C167.954 96.8565 167.51 96.4055 167.51 95.8471C167.514 95.2888 167.958 94.8378 168.503 94.8378Z" fill="#60B141"/>
<path d="M173.846 133.111H10.2955C10.2955 133.111 20.3792 124.689 28.8222 125.948C37.2624 127.207 41.5652 125.171 46.841 122.654C52.1168 120.136 65.1651 119.69 77.8254 121.787C90.4885 123.883 102.621 128.497 108.952 126.821C115.284 125.142 122.143 121.369 132.167 122.628C142.191 123.886 145.358 128.5 151.159 127.241C156.963 125.98 171.734 127.659 173.846 133.111Z" fill="#26A269"/>
<path d="M111.551 10.2012C108.614 11.7786 109.135 15.0531 109.221 15.4994C109.196 15.6085 109.166 15.7038 109.14 15.8193C108.986 16.493 108.869 17.1722 108.78 17.8422C108.635 16.7635 108.131 15.5374 106.76 14.6644C105.651 17.5857 106.969 19.3541 108.58 20.183C108.554 20.8255 108.558 21.3791 108.575 21.7603C108.575 21.7603 108.576 21.7631 108.574 21.7667C108.014 20.581 106.977 19.2845 105.069 18.9396C105.202 22.2381 106.947 23.5765 108.725 23.8857C108.804 24.6848 108.914 25.5775 109.073 26.5599C109.098 26.713 109.125 26.8623 109.149 27.0126C108.492 25.7407 106.943 23.6324 103.924 23.781C104.785 27.3368 107.195 28.2103 109.323 27.9722C109.648 29.6758 110.02 31.1476 110.319 32.2171C110.678 33.501 110.814 33.8575 110.816 33.863L110.912 34.1324L110.963 34.048L111.154 33.74L111.344 33.432L111.491 33.6171C111.492 33.6198 111.35 33.2808 110.978 32.0226C110.655 30.9366 110.257 29.419 109.913 27.6576C111.998 27.3361 114.071 25.8882 114.119 22.2854C111.116 22.8822 110.09 25.358 109.746 26.7448C109.729 26.6468 109.711 26.5524 109.694 26.4543C109.52 25.4159 109.402 24.4867 109.32 23.6517C111.167 23.4348 113.065 22.1556 113.319 18.7544C110.699 19.1769 109.642 21.3979 109.236 22.7078C109.212 22.3595 109.191 22.0342 109.179 21.7335C109.162 21.3614 109.136 20.8033 109.118 20.1755C110.791 19.5939 112.297 18.0838 111.756 15.1118C110.155 15.7732 109.441 16.9979 109.13 18.084C109.16 17.3545 109.219 16.6093 109.328 15.8596C109.345 15.7441 109.365 15.646 109.384 15.536C111.01 14.7904 112.395 13.1292 111.551 10.2012Z" fill="#1C774D"/>
<path d="M82.1989 15.495C81.7747 18.8231 84.7233 20.2443 85.1353 20.4282C85.2071 20.5106 85.268 20.5875 85.347 20.6736C85.8037 21.1835 86.2842 21.6641 86.7739 22.1172C85.8168 21.6267 84.5333 21.3497 83.036 21.9912C84.7577 24.5658 86.9502 24.4726 88.5532 23.6066C89.0597 23.9901 89.507 24.3023 89.8249 24.5027C89.8257 24.5055 89.8285 24.5045 89.8285 24.5045C88.5463 24.2971 86.8981 24.4231 85.513 25.8064C88.2565 27.5647 90.3484 26.8781 91.628 25.5791C92.3199 25.9671 93.1075 26.3808 93.9927 26.8072C94.1316 26.8731 94.2668 26.9372 94.4047 27.0003C92.9975 26.8259 90.3934 26.9147 88.7679 29.4996C92.1416 30.7988 94.2431 29.299 95.282 27.402C96.8482 28.0984 98.2537 28.6236 99.2914 28.9804C100.539 29.4094 100.907 29.5018 100.91 29.5009L101.183 29.5731L101.145 29.4825L101.004 29.1492L100.864 28.8159L101.099 28.7975C101.103 28.7993 100.744 28.7253 99.5106 28.3218C98.4449 27.9715 96.9869 27.4426 95.3647 26.7316C96.3122 24.8228 96.339 22.2834 93.4531 20.2046C92.1976 23.0302 93.6041 25.2817 94.5288 26.3556C94.4405 26.3153 94.353 26.2778 94.2638 26.2348C93.3226 25.7937 92.5026 25.3635 91.7782 24.959C92.6723 23.3057 92.7353 21.0098 90.1321 18.8724C88.9574 21.284 90.1395 23.4192 90.9675 24.4922C90.6693 24.3156 90.3983 24.1481 90.1444 23.987C89.8337 23.7902 89.3646 23.4946 88.8478 23.1541C89.3452 21.4396 88.9961 19.3343 86.2795 18.0999C85.889 19.7997 86.463 21.0862 87.1604 21.9596C86.5874 21.5193 86.02 21.0497 85.4774 20.5352C85.3947 20.4565 85.3256 20.3823 85.2466 20.3054C85.5969 18.5461 85.0568 16.4565 82.1989 15.495Z" fill="#1C774D"/>
<path d="M113.28 33.182C124.255 35.269 130.356 29.5557 133.535 20.8628C122.138 17.1903 112.438 25.4348 113.28 33.182Z" fill="#A3CB69"/>
<path d="M132.018 21.0313C132.069 21.1343 132.027 21.2607 131.926 21.3156C131.926 21.3156 129.345 22.6543 125.964 24.5697C127.436 24.7255 128.594 25.5386 128.594 25.5386C128.686 25.6043 128.71 25.736 128.644 25.8302C128.578 25.9244 128.447 25.9499 128.355 25.8842C128.355 25.8842 126.894 24.8728 125.288 24.9559C124.508 25.4022 123.706 25.864 122.877 26.3584C122.434 26.6202 121.984 26.8926 121.536 27.1676L125.443 29.059C125.546 29.1086 125.59 29.2352 125.54 29.3401C125.489 29.445 125.364 29.491 125.261 29.4414L121.103 27.43C119.872 28.1825 118.641 28.9647 117.471 29.7446C118.03 30.0238 118.897 30.1421 119.666 30.1612C120.548 30.1817 121.282 30.0957 121.282 30.0957C121.338 30.0899 121.392 30.1049 121.434 30.1399C121.477 30.1749 121.504 30.225 121.51 30.2815C121.521 30.3971 121.438 30.5013 121.323 30.5143C121.323 30.5143 120.565 30.6043 119.653 30.5817C118.775 30.5623 117.752 30.4582 117.071 30.0182C114.383 31.8344 112.064 33.6269 110.939 35.0384C110.867 35.129 110.735 35.1456 110.645 35.072C110.557 35.0009 110.542 34.8674 110.615 34.7754C111.818 33.2664 114.194 31.4345 116.924 29.6004C117.251 26.495 117.938 24.8336 117.938 24.8336C117.983 24.7251 118.106 24.6741 118.21 24.7198C118.317 24.7641 118.366 24.8878 118.32 24.9938C118.32 24.9938 117.714 26.4724 117.38 29.2914C118.531 28.5294 119.732 27.7708 120.935 27.038L121.514 22.3633C121.53 22.2488 121.634 22.1653 121.746 22.1769C121.859 22.1911 121.94 22.2962 121.927 22.4093L121.39 26.7627C121.817 26.5031 122.245 26.2436 122.665 25.9948C123.409 25.5531 124.133 25.1357 124.84 24.7284C124.84 24.722 124.841 24.718 124.84 24.7116C125.341 22.8141 125.8 21.6939 126.137 21.0405C126.308 20.7143 126.446 20.5023 126.548 20.3713C126.649 20.2402 126.726 20.1724 126.726 20.1724C126.818 20.1001 126.947 20.1146 127.018 20.2061C127.088 20.2976 127.072 20.429 126.981 20.5014C126.981 20.5014 126.958 20.5182 126.873 20.6264C126.789 20.7345 126.663 20.9225 126.503 21.2326C126.21 21.7983 125.804 22.8251 125.355 24.4316C128.939 22.3896 131.736 20.9365 131.736 20.9365C131.842 20.8852 131.967 20.9283 132.018 21.0313Z" fill="#D3EAAC"/>
<path d="M111.036 39.6459C120.408 45.7709 128.167 42.7993 134.332 35.9489C125.156 28.1922 113.133 32.1379 111.036 39.6459Z" fill="#A3CB69"/>
<path d="M133.017 35.892C133.025 36.0067 132.94 36.108 132.826 36.1204C132.826 36.1204 129.943 36.3775 126.105 36.8641C127.409 37.5695 128.177 38.7639 128.177 38.7639C128.238 38.86 128.211 38.9911 128.115 39.0532C128.019 39.1153 127.889 39.0894 127.828 38.9933C127.828 38.9933 126.853 37.4994 125.337 36.9644C124.45 37.0808 123.537 37.2034 122.587 37.3455C122.081 37.4194 121.564 37.5004 121.047 37.5844L123.956 40.8255C124.033 40.9108 124.027 41.0449 123.942 41.123C123.856 41.2011 123.723 41.1958 123.646 41.1105L120.55 37.6627C119.132 37.8909 117.703 38.1466 116.332 38.4236C116.745 38.8952 117.502 39.335 118.206 39.6459C119.014 40.0009 119.725 40.2008 119.725 40.2008C119.778 40.2168 119.823 40.2513 119.849 40.2999C119.875 40.3486 119.883 40.4055 119.866 40.4599C119.834 40.5714 119.718 40.6362 119.608 40.6047C119.608 40.6047 118.873 40.3992 118.038 40.0306C117.234 39.6781 116.326 39.1918 115.86 38.5246C112.701 39.1836 109.891 39.9609 108.327 40.8402C108.227 40.897 108.099 40.8621 108.043 40.7596C107.987 40.6599 108.023 40.5305 108.126 40.4733C109.798 39.5332 112.675 38.7411 115.88 38.0816C117.335 35.3286 118.588 34.0509 118.588 34.0509C118.67 33.9675 118.802 33.9671 118.881 34.0491C118.964 34.1307 118.963 34.2641 118.881 34.3446C118.881 34.3446 117.772 35.4842 116.416 37.969C117.763 37.7012 119.156 37.4561 120.54 37.2354L122.811 33.1243C122.867 33.0211 122.996 32.9865 123.094 33.0399C123.194 33.0961 123.23 33.2244 123.176 33.3244L121.062 37.1536C121.554 37.076 122.046 36.9983 122.527 36.9279C123.378 36.8019 124.203 36.6911 125.007 36.583C125.009 36.5769 125.012 36.5737 125.014 36.5676C126.182 35.0001 127.022 34.137 127.576 33.6599C127.855 33.4226 128.062 33.279 128.204 33.1961C128.347 33.1133 128.443 33.08 128.443 33.08C128.555 33.0477 128.669 33.1105 128.7 33.2222C128.731 33.3339 128.668 33.4495 128.557 33.4819C128.557 33.4819 128.529 33.4885 128.41 33.5566C128.292 33.6246 128.106 33.7509 127.843 33.9774C127.362 34.3897 126.605 35.1865 125.594 36.5042C129.665 35.9774 132.791 35.6965 132.791 35.6965C132.908 35.6894 133.008 35.7745 133.017 35.892Z" fill="#D3EAAC"/>
<path opacity="0.1" d="M118.419 32.4885C116.684 33.0802 115.142 33.9804 113.895 35.1143C113.563 35.8805 113.357 36.7083 113.238 37.5128C113.181 37.8957 113.622 38.4473 113.729 38.7733C114.362 40.7361 115.388 40.6618 117.291 40.513C118.394 40.4254 119.231 39.7773 120.201 39.4518C121.94 38.8683 122.97 37.5453 123.753 35.9911C124.415 34.6771 124.131 32.9959 123.437 31.6989C121.669 31.6811 119.97 31.9625 118.419 32.4885Z" fill="black"/>
<path d="M101.092 35.4506C91.5083 29.5862 90.8296 21.2254 94.341 12.6264C105.312 17.6022 106.958 30.2696 101.092 35.4506Z" fill="#A3CB69"/>
<path d="M94.9569 13.7958C94.8493 13.8381 94.7946 13.9602 94.8327 14.0693C94.8327 14.0693 95.8513 16.8105 97.0759 20.5217C95.8712 19.6416 94.456 19.4633 94.456 19.4633C94.3426 19.4498 94.2355 19.5316 94.2209 19.6463C94.2063 19.7609 94.2862 19.8681 94.3997 19.8816C94.3997 19.8816 96.1761 20.1179 97.3184 21.266C97.5982 22.1257 97.8831 23.0111 98.1667 23.9396C98.3197 24.4337 98.4707 24.9406 98.6189 25.4484L94.4203 24.2121C94.3097 24.1793 94.191 24.2437 94.1573 24.3556C94.1236 24.4676 94.1862 24.5867 94.2968 24.6195L98.7637 25.936C99.1724 27.3284 99.5609 28.7428 99.9052 30.1142C99.2988 29.9437 98.5715 29.4452 97.9843 28.939C97.3123 28.3579 96.8228 27.7974 96.8228 27.7974C96.785 27.7553 96.7343 27.7297 96.6789 27.7271C96.6235 27.7244 96.5688 27.7429 96.5267 27.7814C96.4397 27.8595 96.4313 27.9935 96.5077 28.0804C96.5077 28.0804 97.0125 28.6601 97.7089 29.2605C98.3772 29.8399 99.2116 30.4547 100.018 30.5881C100.792 33.7562 101.308 36.6579 101.19 38.4685C101.182 38.584 101.269 38.6857 101.387 38.6919C101.501 38.6991 101.603 38.6099 101.61 38.4916C101.736 36.5563 101.205 33.5868 100.411 30.3765C102.273 27.8467 102.887 26.1462 102.887 26.1462C102.927 26.0352 102.87 25.9142 102.761 25.8777C102.651 25.8385 102.531 25.8974 102.494 26.0075C102.494 26.0075 101.943 27.5162 100.28 29.8384C99.9384 28.4936 99.5559 27.1168 99.1552 25.7584L101.893 21.8908C101.959 21.7953 101.938 21.6624 101.847 21.5956C101.753 21.5297 101.621 21.5529 101.554 21.6456L99.0024 25.246C98.8593 24.7638 98.7163 24.2817 98.5713 23.8124C98.3159 22.981 98.0584 22.1809 97.8071 21.3999C97.8117 21.3953 97.8135 21.3917 97.8181 21.3871C98.7312 19.6375 99.1482 18.4941 99.3398 17.7803C99.4338 17.4224 99.4741 17.1711 99.4874 17.0051C99.5007 16.839 99.4888 16.7363 99.4888 16.7363C99.4698 16.6208 99.3633 16.544 99.2486 16.5643C99.1339 16.5847 99.0566 16.6931 99.0756 16.8086C99.0756 16.8086 99.0817 16.837 99.0715 16.9746C99.0612 17.1122 99.0274 17.3369 98.9363 17.6755C98.7719 18.2948 98.3785 19.3327 97.6239 20.8307C96.3341 16.8886 95.2321 13.9163 95.2321 13.9163C95.1876 13.8064 95.0672 13.7525 94.9569 13.7958Z" fill="#D3EAAC"/>
<path d="M102.445 32.2736C100.643 28.5612 96.9935 20.7988 101.959 19.3187C107.983 17.5236 106.141 25.9555 108.654 26.6451C109.28 26.8169 109.755 26.6595 110.16 26.1362C110.886 25.2005 111.086 23.3875 111.398 22.1873C112.056 19.6358 114.717 17.7878 116.685 18.8866C121.477 21.5647 115.71 27.2628 115.692 29.3152C115.657 33.2472 123.55 28.4636 123.41 34.1096C123.237 41.0102 106.944 41.546 102.445 32.2736Z" fill="#62AA4B"/>
<path d="M102.221 21.871C102.11 21.8996 102.042 22.0168 102.069 22.1293C102.677 24.5871 103.731 26.7999 104.853 28.975C104.933 29.1331 105.027 29.2839 105.125 29.43C105.108 29.4237 105.095 29.4191 105.078 29.4128C104.729 29.2844 104.294 29.0392 103.872 28.75C103.45 28.4608 103.035 28.1296 102.713 27.831C102.391 27.5325 102.159 27.243 102.12 27.1497C102.074 27.0437 101.952 26.9936 101.847 27.0414C101.741 27.0892 101.691 27.2128 101.737 27.3188C101.844 27.5683 102.091 27.8286 102.43 28.1426C102.769 28.4567 103.196 28.7989 103.637 29.0999C104.078 29.401 104.53 29.6617 104.937 29.8101C105.135 29.8829 105.322 29.9292 105.501 29.9325C105.932 30.4833 106.395 30.9865 106.687 31.5476C107.279 32.6945 108.204 33.9205 108.975 34.7057C108.985 34.7176 108.996 34.7258 109.008 34.734C108.785 35.1287 108.561 35.5235 108.332 35.9173C107.906 36.6417 107.299 37.7407 106.666 38.7601C106.033 39.7768 105.359 40.7158 104.886 41.0735C104.794 41.1442 104.772 41.2759 104.841 41.3682C104.91 41.4605 105.04 41.4803 105.132 41.4097C105.726 40.963 106.377 40.0131 107.018 38.9818C107.659 37.9504 108.27 36.8441 108.69 36.1306C108.932 35.7176 109.166 35.3009 109.401 34.8869C109.469 34.9005 109.532 34.9187 109.603 34.9314C109.842 34.9721 110.1 35.0036 110.25 35.0381C111.307 35.2739 112.424 35.462 113.564 35.5814C113.605 35.6619 113.659 35.7377 113.721 35.808C113.989 36.1158 114.422 36.3738 114.912 36.6126C115.402 36.8486 115.952 37.0579 116.443 37.2234C117.008 37.4126 117.743 37.2584 118.186 37.2548C118.3 37.2555 118.394 37.1602 118.396 37.044C118.397 36.9278 118.303 36.8319 118.189 36.834C117.671 36.8359 116.958 36.9489 116.579 36.8216C116.099 36.6615 115.563 36.4567 115.098 36.2307C114.705 36.0412 114.363 35.8315 114.149 35.6361C116.589 35.8363 119.098 35.6969 121.277 34.9608C121.386 34.924 121.446 34.8031 121.411 34.6934C121.376 34.5837 121.257 34.5236 121.148 34.5604C118.961 35.2992 116.392 35.4195 113.899 35.1883C113.911 35.1389 113.938 35.0839 114.009 35.0115C114.206 34.8081 114.738 34.5463 115.709 34.3184C115.822 34.2926 115.894 34.18 115.869 34.0638C115.845 33.9504 115.734 33.8784 115.621 33.9042C115.122 34.0214 114.723 34.1438 114.412 34.2734C114.101 34.4057 113.873 34.5498 113.716 34.712C113.594 34.8385 113.515 34.9869 113.492 35.1406C112.413 35.0247 111.353 34.8447 110.351 34.6207C110.163 34.5781 109.908 34.5484 109.685 34.5113C109.663 34.5068 109.649 34.5022 109.627 34.5004C111.091 31.8839 112.395 29.2238 113.478 26.4864C113.997 26.0252 114.73 25.4794 115.386 24.8689C116.097 24.2061 116.726 23.4675 116.851 22.6256C116.868 22.5103 116.789 22.4034 116.675 22.3872C116.561 22.371 116.453 22.4498 116.437 22.5679C116.337 23.2341 115.786 23.9249 115.102 24.5602C114.67 24.9618 114.212 25.3323 113.787 25.6825C114.368 24.1427 114.88 22.5801 115.309 20.9819C115.339 20.8684 115.275 20.7533 115.163 20.7242C115.051 20.6952 114.936 20.7613 114.906 20.8748C114.433 22.6276 113.864 24.3431 113.208 26.0304C112.742 25.2391 112.7 24.0828 112.816 23.3169C112.834 23.2016 112.754 23.0947 112.64 23.0784C112.586 23.0694 112.531 23.085 112.484 23.119C112.44 23.152 112.408 23.2024 112.402 23.2591C112.265 24.1751 112.269 25.5968 113.009 26.5385C111.944 29.2027 110.664 31.7969 109.232 34.3512C108.505 33.5997 107.619 32.4185 107.065 31.3438C106.769 30.7689 106.347 30.2821 105.957 29.7999C105.978 29.7833 105.998 29.7678 106.016 29.7494C106.258 29.5065 106.356 29.1541 106.39 28.7717C106.427 28.3883 106.398 27.9602 106.346 27.534C106.242 26.6843 106.038 25.8229 106.015 25.4872C106.008 25.3711 105.907 25.2834 105.792 25.2919C105.677 25.3004 105.589 25.403 105.596 25.5192C105.627 25.9619 105.827 26.7729 105.929 27.5897C105.979 27.9985 106.003 28.401 105.974 28.7359C105.942 29.0689 105.854 29.3207 105.724 29.4499C105.717 29.4582 105.707 29.4646 105.694 29.4719C105.522 29.2445 105.36 29.0133 105.235 28.7666C104.116 26.597 103.078 24.418 102.484 22.0132C102.444 21.9081 102.332 21.8397 102.221 21.871Z" fill="#86C96D"/>
<path opacity="0.1" d="M94.7193 29.4533C94.7193 29.4533 98.3426 27.161 108.53 31.346C118.718 35.531 121.339 39.6482 121.825 40.7931C122.312 41.938 121.229 44.8015 121.229 44.8015L94.7193 29.4533Z" fill="black"/>
<path d="M90.4292 129.976C118.41 129.976 141.093 106.922 141.093 78.4837C141.093 50.0453 118.41 26.9913 90.4292 26.9913C62.4483 26.9913 39.7654 50.0453 39.7654 78.4837C39.7654 106.922 62.4483 129.976 90.4292 129.976Z" fill="#A9CE72"/>
<path d="M90.4292 26.9913C81.8349 27.029 73.3919 29.291 65.8934 33.5598C66.0303 34.424 66.2729 35.3056 66.698 36.2307C68.0248 39.1249 70.0221 41.1375 73.0096 42.0046C81.0617 44.342 78.8503 35.9784 85.9494 34.946C90.024 34.3544 95.1115 37.9475 98.8893 36.5497C102.456 35.2331 103.089 31.8981 104.319 28.9662C99.8052 27.6583 95.1286 26.9942 90.4292 26.9913ZM120.928 37.3936C117.587 40.92 109.992 37.7561 106.784 42.6484C104.219 46.5576 110.166 49.9883 108.993 53.5553C108.348 55.5215 96.5867 56.5684 99.2089 61.8957C101.589 66.7358 110.571 59.4452 110.571 68.6324C110.571 70.1375 110.796 71.9326 109.624 73.1245C106.727 76.068 101.406 74.4208 98.5754 77.2947C96.2243 79.6843 98.9178 83.1585 97.9449 85.6351C97.0632 87.8768 94.3725 89.2108 92.8945 91.0871C92.4151 91.6961 87.5245 113.858 87.5273 113.864C88.5317 115.905 95.6593 106.04 97.942 105.523C100.096 105.036 102.402 106.045 104.57 105.845C108.234 105.506 116.591 103.372 118.144 99.4275C119.179 96.7972 117.339 92.8764 118.774 90.4462C119.953 88.451 122.578 88.0624 122.877 85.3132C123.12 83.1005 123.191 80.8153 123.191 78.5765C123.191 76.8133 122.706 75.1168 124.455 74.4063C130.461 71.9645 129.888 84.3852 134.239 86.5979C135.771 87.378 138.342 85.9077 139.606 85.3161C139.963 85.1479 140.268 84.9768 140.599 84.8086C140.89 82.7148 141.053 80.6036 141.087 78.4866C141.084 62.3307 133.617 47.1173 120.928 37.3936ZM49.6864 47.9264C43.2522 56.7743 39.7768 67.4811 39.7654 78.4837C39.7796 84.0778 40.6899 89.6313 42.4618 94.9267C44.345 95.3472 46.2681 95.6256 48.0771 95.2573C51.8978 94.4801 53.4329 90.829 57.8612 91.728C63.197 92.8126 64.5295 98.775 70.8011 97.1829C75.8372 95.904 69.4315 83.2745 68.5926 81.143C66.4212 75.6243 74.3193 73.2666 72.6957 68.3105C70.7326 62.3278 65.6879 64.3955 62.281 60.9329C60.2352 58.8536 61.679 55.188 59.4391 52.9144C56.4859 49.91 48.9388 54.6573 49.6864 47.9264Z" fill="#60B141"/>
<path d="M79.4438 46.5867C80.5053 46.1952 81.4155 45.4702 82.4398 44.9917C83.4642 44.5103 84.7425 44.3073 85.6755 44.954C86.8397 45.7602 86.9338 47.4944 86.5315 48.8661C86.1834 50.0493 85.55 51.16 84.6426 51.9778C82.5739 53.8396 79.5294 53.9208 76.9643 54.9706C76.0912 55.3273 75.2409 55.8087 74.305 55.8783C73.3035 55.9537 72.3219 55.5506 71.4602 55.0257C70.8039 54.6255 70.1733 54.1325 69.8138 53.4481C69.0862 52.0677 69.694 50.2755 70.8096 49.1967C71.8311 48.2078 73.5774 47.2914 74.9612 46.9811C76.445 46.6418 77.9401 47.1406 79.4438 46.5867Z" fill="#60B141"/>
<path d="M57.67 107.478C58.3177 108.003 59.071 108.426 59.8899 108.554C61.4621 108.797 63.1284 107.794 63.7048 106.286C64.2812 104.778 63.7448 102.919 62.4807 101.939C61.8387 101.44 61.017 101.127 60.5947 100.425C60.2038 99.7784 60.2437 98.9287 59.8271 98.2994C59.4762 97.7716 58.8399 97.4903 58.215 97.4613C56.0664 97.3656 53.7353 99.5145 54.1547 101.748C54.5228 103.722 56.1492 106.251 57.67 107.478Z" fill="#60B141"/>
<path d="M68.9236 109.009C69.6797 109.578 70.7297 109.807 71.5772 109.395C72.416 108.986 72.8897 108.049 73.078 107.121C73.1779 106.634 73.2093 106.106 72.9953 105.66C72.6843 105.01 71.9538 104.703 71.2804 104.474C70.3702 104.16 69.383 103.882 68.4613 104.157C65.7963 104.949 67.5112 107.945 68.9236 109.009Z" fill="#60B141"/>
<path d="M77.0612 96.3187C77.4036 96.5768 77.8773 96.6812 78.2625 96.4927C78.642 96.3071 78.856 95.8837 78.9416 95.4661C78.9872 95.2457 79.0015 95.0079 78.9045 94.8049C78.7647 94.512 78.4337 94.3728 78.1284 94.2684C77.7175 94.1263 77.2695 94.0016 76.853 94.1263C75.646 94.483 76.4221 95.8373 77.0612 96.3187Z" fill="#60B141"/>
<path d="M77.3267 85.6293C78.5936 85.8961 80.0573 85.2668 80.5452 84.0517C80.9105 83.1411 80.6936 82.0652 80.1743 81.2358C79.655 80.4064 78.8675 79.7829 78.0514 79.2522C72.9097 75.9056 72.7357 84.6665 77.3267 85.6293Z" fill="#60B141"/>
<path d="M100.073 41.4217C99.9765 42.0713 100.325 42.7992 100.935 43.0138C101.392 43.1762 101.914 43.037 102.308 42.7499C102.701 42.4628 102.987 42.0481 103.224 41.6189C104.73 38.919 100.422 39.0669 100.073 41.4217Z" fill="#60B141"/>
<path d="M77.4294 60.7908C77.9686 60.4515 78.2825 59.7265 78.0542 59.1262C77.883 58.6767 77.4493 58.3693 76.9899 58.2504C76.5306 58.1315 76.0426 58.1808 75.5775 58.2707C72.6358 58.8391 75.4777 62.0175 77.4294 60.7908Z" fill="#60B141"/>
<path d="M95.899 67.052C94.9174 67.4116 93.9131 67.922 93.3937 68.8413C92.96 69.6069 92.9344 70.532 92.9201 71.4136C92.9144 71.8138 92.9115 72.2343 93.097 72.5852C93.3081 72.9854 93.7219 73.2232 94.127 73.4117C96.9062 74.6964 100.347 74.3658 102.841 72.5794C103.118 72.3822 103.389 72.1618 103.572 71.8718C103.791 71.5238 103.865 71.1004 103.891 70.6857C104.231 65.4048 99.3287 65.7905 95.899 67.052Z" fill="#60B141"/>
<path d="M124.312 100.915C124.626 101.652 125.42 102.09 126.204 102.162C126.989 102.235 127.774 101.997 128.501 101.692C129.545 101.257 130.53 100.68 131.426 99.9814C131.857 99.645 132.276 99.268 132.507 98.7692C132.744 98.2646 132.764 97.6846 132.781 97.1249C132.798 96.513 132.807 95.8605 132.487 95.3414C132.179 94.8339 131.617 94.5526 131.075 94.3235C126.792 92.5371 122.212 96.0055 124.312 100.915Z" fill="#60B141"/>
<path d="M113.381 124.399C106.491 127.964 98.6896 129.976 90.4292 129.976C89.907 129.973 89.3877 129.965 88.8684 129.947C88.6744 129.843 88.4861 129.727 88.3034 129.596C87.1079 128.732 86.3974 126.922 87.2734 125.725C87.573 125.313 88.0153 125.035 88.4461 124.768C90.8486 123.268 93.2797 121.755 95.9561 120.859C96.9633 120.519 98.0733 120.273 99.0719 120.629C99.6084 120.821 100.073 121.175 100.604 121.386C102.873 122.294 105.332 120.406 107.766 120.563C109.826 120.696 111.978 122.48 113.381 124.399Z" fill="#60B141"/>
<path opacity="0.1" d="M84.6254 30.4598C69.226 32.397 54.6398 45.8588 54.6398 59.0103C54.6398 72.1618 67.2658 85.6352 84.9393 82.1059C102.616 78.5766 117.764 78.2576 118.711 59.0103C119.662 39.7601 102.393 28.2239 84.6254 30.4598Z" fill="white"/>
<path opacity="0.2" d="M141.093 78.4838C141.093 98.5257 129.828 115.894 113.381 124.399C106.491 127.964 98.6895 129.976 90.4291 129.976C89.907 129.973 89.3876 129.965 88.8683 129.947C62.7261 129.066 41.4231 108.012 39.9822 81.2968C48.0828 93.877 67.6024 116.79 97.5681 105.845C126.812 95.1617 136.673 81.1344 140.388 69.9346C140.856 72.7592 141.093 75.6186 141.093 78.4838Z" fill="#A9CE72"/>
<path d="M57.2871 66.5762C57.2871 66.5762 59.2959 68.9571 61.082 68.6178C62.8682 68.2785 63.65 68.2785 64.9883 68.5047C66.3265 68.7309 68.4465 66.6893 68.4465 66.6893C68.4465 66.6893 66.6603 66.8024 65.0995 65.8947C63.5359 64.987 62.5315 64.987 61.1933 65.6685C59.8523 66.3471 57.2871 66.5762 57.2871 66.5762Z" fill="#986A44"/>
<path d="M62.6428 65.7816C63.3076 61.7506 59.7952 61.6259 57.6209 58.9753C57.1587 58.4127 56.1629 56.983 56.1714 55.1184C57.0959 56.058 59.8979 57.1164 60.9708 58.1807C61.8353 59.0391 62.1406 60.7907 62.1977 60.7907C62.2119 60.7907 62.1777 60.2658 62.1977 60.2223C62.4031 59.8047 62.4402 59.274 62.6428 58.8622C64.0609 55.9796 61.6213 53.7785 64.8741 50.4696C64.9939 50.3478 65.4961 49.675 65.6559 49.675C65.673 49.675 65.4334 51.1656 65.4334 51.2642C65.4334 54.0598 66.6603 54.8951 65.3221 57.6153C64.9854 58.2997 63.9411 59.0188 63.5359 59.4306C63.319 59.651 63.0965 60.5588 63.3133 60.3383C65.7273 57.8849 68.6205 60.2136 71.3483 59.6568C71.5167 59.622 72.8264 58.5519 72.912 58.636C73.1317 58.8593 71.394 61.0865 71.1258 61.3591C69.2996 63.2151 64.9512 62.5307 64.6544 62.8323C63.8954 63.6037 63.65 64.1431 63.65 65.6685C63.65 65.8135 63.9125 66.0832 63.8726 66.1209C63.6129 66.3819 62.7798 65.8512 62.6428 65.7816Z" fill="#3F7C25"/>
<path d="M102.104 91.2755C102.104 91.2755 104.113 93.6564 105.899 93.3171C107.685 92.9778 108.467 92.9778 109.806 93.204C111.144 93.4302 113.264 91.3886 113.264 91.3886C113.264 91.3886 111.478 91.5017 109.917 90.594C108.353 89.6863 107.349 89.6863 106.011 90.3678C104.672 91.0493 102.104 91.2755 102.104 91.2755Z" fill="#986A44"/>
<path d="M108.596 90.3678C107.931 86.3368 111.443 86.2121 113.618 83.5615C114.08 82.9989 115.076 81.5692 115.067 79.7045C114.143 80.6441 111.341 81.7026 110.268 82.7669C109.403 83.6253 109.098 85.3769 109.041 85.3769C109.027 85.3769 109.061 84.852 109.041 84.8085C108.835 84.3909 108.798 83.8602 108.596 83.4484C107.178 80.5658 109.617 78.3647 106.364 75.0558C106.245 74.934 105.742 74.2612 105.583 74.2612C105.566 74.2612 105.805 75.7518 105.805 75.8504C105.805 78.646 104.578 79.4812 105.917 82.2014C106.253 82.8858 107.298 83.605 107.703 84.0168C107.92 84.2372 108.142 85.1449 107.925 84.9245C105.511 82.4711 102.618 84.7998 99.8903 84.243C99.7219 84.2082 98.4122 83.1381 98.3266 83.2222C98.1069 83.4455 99.8446 85.6727 100.113 85.9453C101.939 87.8013 106.287 87.1169 106.584 87.4185C107.343 88.1899 107.589 88.7293 107.589 90.2547C107.589 90.3997 107.326 90.6694 107.366 90.7071C107.626 90.9681 108.459 90.4374 108.596 90.3678Z" fill="#3F7C25"/>
<path d="M3.48743 133.111H190.361C190.361 133.111 180.112 127.934 170.467 128.752C160.823 129.57 155.396 130.66 149.37 129.025C143.341 127.389 127.667 124.394 113.201 125.757C98.7346 127.12 84.8673 130.115 77.6341 129.025C70.4009 127.934 62.5628 125.484 51.1096 126.302C39.6563 127.12 36.0383 130.115 29.4071 129.297C22.7788 128.48 5.89849 129.57 3.48743 133.111Z" fill="#2EC27E"/>
<path d="M160.364 78.5691L173.858 133.109H173.41L173.036 131.596H164.525L164.898 133.109H164.45L150.963 78.5865L151.405 78.5662H159.916L160.364 78.5691ZM160.042 79.0824H151.531L153.568 87.3213H162.079L160.042 79.0824ZM162.208 87.8346H153.696L155.734 96.0735H164.245L162.208 87.8346ZM164.373 96.5868H155.862L157.899 104.826H166.411L164.373 96.5868ZM166.539 105.339H158.028L160.065 113.578H168.576L166.539 105.339ZM168.705 114.091H160.193L162.231 122.33H170.742L168.705 114.091ZM170.87 122.843H162.359L164.396 131.082H172.908L170.87 122.843Z" fill="#124C03"/>
<path d="M130.051 78.5691L116.557 133.109H117.005L117.379 131.596H125.89L125.517 133.109H125.965L139.452 78.5865L139.01 78.5662H130.499L130.051 78.5691ZM130.373 79.0824H138.885L136.847 87.3213H128.336L130.373 79.0824ZM128.207 87.8346H136.719L134.682 96.0735H126.17L128.207 87.8346ZM126.042 96.5868H134.553L132.516 104.826H124.004L126.042 96.5868ZM123.879 105.339H132.39L130.353 113.578H121.842L123.879 105.339ZM121.713 114.091H130.225L128.187 122.33H119.676L121.713 114.091ZM119.548 122.843H128.059L126.022 131.082H117.51L119.548 122.843Z" fill="#124C03"/>
<path d="M160.036 76.7421H130.524C129.349 76.7421 128.393 77.3163 128.393 78.0239C128.393 78.7315 129.346 79.3057 130.524 79.3057H160.036C161.212 79.3057 162.168 78.7315 162.168 78.0239C162.165 77.3163 161.212 76.7421 160.036 76.7421Z" fill="#124C03"/>
<path d="M179.264 131.508C179.264 124.508 179.155 122.362 178.981 118.863C178.806 115.364 178.59 115.364 178.414 118.863C178.238 122.362 178.132 124.51 178.132 131.508H178.699H179.264Z" fill="#A9CE72"/>
<path d="M178.697 115.751C179.324 115.751 179.831 116.267 179.831 116.904C179.831 117.541 179.324 118.057 178.697 118.057C178.07 118.057 177.563 117.541 177.563 116.904C177.563 116.267 178.07 115.751 178.697 115.751Z" fill="#60B141"/>
<path d="M179.3 113.694C179.3 116.434 179.027 116.872 178.69 116.872C178.353 116.872 178.079 116.434 178.079 113.694C178.079 110.953 178.353 106.948 178.69 106.948C179.027 106.946 179.3 110.952 179.3 113.694ZM175.687 117.922C178.023 116.552 178.532 116.572 178.701 116.871C178.869 117.169 178.632 117.627 176.296 118.998C173.96 120.368 170.411 122.13 170.242 121.834C170.074 121.537 173.352 119.292 175.687 117.922ZM181.096 118.987C178.76 117.616 178.523 117.156 178.691 116.859C178.86 116.563 179.371 116.541 181.705 117.911C184.04 119.281 187.317 121.524 187.148 121.821C186.981 122.119 183.432 120.359 181.096 118.987Z" fill="#A9CE72"/>
<path d="M178.697 116.471C178.932 116.471 179.123 116.664 179.123 116.904C179.123 117.143 178.932 117.337 178.697 117.337C178.461 117.337 178.271 117.143 178.271 116.904C178.271 116.666 178.461 116.471 178.697 116.471Z" fill="#60B141"/>
<path d="M149.819 45.8C149.819 45.8 150.243 48.8799 150.023 51.4371C149.804 53.9904 149.713 59.448 149.517 61.3589C149.321 63.2738 149.58 73.81 149.58 73.81C149.58 73.81 148.638 74.6278 147.637 73.9177C146.196 65.7872 145.474 61.0038 145.368 58.9892C145.266 56.9745 145.352 46.8612 145.352 46.8612L149.819 45.8Z" fill="#006600"/>
<path d="M149.972 69.2461L146.243 68.9948L147.115 74.9151L144.603 76.4311C144.603 76.4311 149.976 76.9537 150.785 76.6864C150.228 72.0746 149.972 69.2461 149.972 69.2461Z" fill="#FF5F3A"/>
<path d="M143.798 23.2756C143.798 23.2756 144.151 24.8355 144.422 25.8887C144.693 26.9419 144.921 27.5922 145.482 27.5962C145.98 27.6002 146.601 27.3608 147.425 26.91C148.485 26.3315 148.846 25.7411 148.83 25.0349C148.807 24.0376 148.367 22.4019 147.617 21.6519C146.868 20.9019 145.686 21.0734 144.658 21.62C143.633 22.1665 143.735 22.8966 143.798 23.2756Z" fill="#F4B58E"/>
<path d="M152.795 45.7761C152.795 45.7761 153.458 48.8241 153.313 51.3893C153.164 53.9545 153.313 59.4081 153.164 61.335C153.014 63.2579 153.827 73.7661 153.827 73.7661C153.827 73.7661 152.72 74.6478 151.468 74.0055C149.329 65.9867 148.222 61.2552 148.002 59.2485C147.782 57.2418 147.413 47.1405 147.413 47.1405L152.795 45.7761Z" fill="#006600"/>
<path d="M148.634 25.2065L149.945 28.6375L147.295 29.7425C147.295 29.7425 147.492 27.6441 146.903 26.6787C147.711 26.1121 148.634 25.2065 148.634 25.2065Z" fill="#F4B58E"/>
<path d="M148.493 27.8516C150.239 27.7798 150.667 28.7333 151.586 32.3876C152.343 35.3957 155.322 51.912 155.099 63.1543C153.454 64.2912 147.087 65.7833 144.917 65.0612C143.445 57.7805 144.76 51.2258 145.191 46.0275C145.58 41.32 145.089 37.6816 144.018 36.417C142.263 34.3504 143.986 32.5911 145.443 30.9315C146.483 29.7506 147.28 27.9035 148.493 27.8516Z" fill="#FFC407"/>
<path d="M153.78 69.1942H150.043L151.146 75.0467L148.697 76.7303C148.697 76.7303 154.086 76.8899 154.879 76.5707C154.149 71.9988 153.78 69.1942 153.78 69.1942Z" fill="#FF5F3A"/>
<path d="M136.838 39.9196C136.838 39.9196 132.737 39.76 129.42 41.8425C129.734 44.8106 130.998 49.6219 131.551 50.6632C135.103 50.5834 138.891 48.9796 138.891 48.9796C138.891 48.9796 138.887 42.9675 136.838 39.9196Z" fill="#E5A50A"/>
<path d="M136.285 40.2428C136.285 40.2428 133.761 42.6484 130.052 41.8466C132.262 40.4822 136.285 40.2428 136.285 40.2428Z" fill="#63452C"/>
<path d="M133.6 40.9648C133.6 40.9648 132.733 38.1563 132.654 36.3929C132.576 34.6296 132.022 32.7825 132.022 32.7825L131.547 32.942C131.547 32.942 132.101 34.3064 132.179 35.2679C132.258 36.2294 132.415 37.7533 132.493 38.3956C132.572 39.0379 133.204 41.284 133.204 41.284L133.6 40.9648Z" fill="#4B8720"/>
<path d="M132.536 36.7959C132.576 36.5965 133.208 34.2706 135.496 34.2307C134.943 36.4728 132.536 36.7959 132.536 36.7959Z" fill="#4B8720"/>
<path d="M132.222 34.9089C132.222 34.9089 130.919 32.8224 129.067 33.1057C129.498 34.869 132.222 34.9089 132.222 34.9089Z" fill="#4B8720"/>
<path d="M132.615 32.1442C133.074 31.8729 133.211 31.1747 133.129 30.6601C132.96 29.6308 131.999 30.6681 131.826 30.5803C131.63 30.4806 131.382 30.1056 131.076 30.3409C130.868 30.5005 130.817 30.9354 130.64 31.0231C130.295 31.1987 129.922 30.5883 129.577 30.9433C129.49 31.0311 129.459 31.2505 129.459 31.3862C129.459 32.3157 130.244 32.6269 130.958 32.8702C131.551 33.0657 132.25 32.3915 132.615 32.1442Z" fill="#FFC407"/>
<path d="M132.101 33.1455C132.246 32.7346 132.623 32.607 132.811 32.224C133.121 31.5936 132.25 32.0764 132.218 32.0644C132.105 32.0085 132.042 31.8609 131.904 31.825C131.641 31.7572 131.641 31.9726 131.508 32.1043C131.382 32.2319 131.088 31.9487 130.915 32.0644C130.727 32.1921 130.798 32.2998 130.798 32.4234C130.798 32.4594 130.582 32.5631 130.641 32.7426C130.856 33.3929 131.689 33.2493 132.101 33.1455Z" fill="#4B8720"/>
<path d="M136.709 42.5406C136.709 42.5406 136.411 42.78 135.708 42.796C135.005 42.8119 134.562 42.7401 133.969 42.9077C133.373 43.0752 133.129 43.0633 132.89 43.0034C132.65 42.9436 132.595 43.159 132.756 43.3226C132.917 43.4901 133.212 43.6457 133.494 43.5061C133.777 43.3705 134.134 43.2947 134.016 43.5141C133.899 43.7295 133.259 43.9848 132.909 44.2362C132.56 44.4915 132.101 44.8745 131.897 45.2854C131.693 45.6963 131.959 46.0594 132.262 46.3107C132.564 46.562 133.353 46.4663 133.946 46.3386C134.538 46.211 135.838 45.1378 136.195 44.8665C136.552 44.5952 137.357 43.7734 137.357 43.7734L136.709 42.5406Z" fill="#F4B58E"/>
<path d="M148.728 28.2266C151.04 29.0723 149.965 32.4634 149.019 34.3065C148.073 36.1496 145.388 39.038 144.599 39.7601C143.81 40.4821 138.601 43.5301 137.023 44.1724C136.548 43.933 135.998 42.8878 135.998 42.8878C135.998 42.8878 140.1 38.639 142.075 37.3544C144.049 36.0698 145.678 28.5617 148.728 28.2266Z" fill="#FFC407"/>
<path d="M149.941 29.4154C150.459 30.8197 149.705 32.966 149.023 34.3025C148.077 36.1456 145.392 39.034 144.603 39.7561C144.159 40.163 142.322 41.296 140.516 42.3333C141.686 41.4117 143.916 39.6164 145.549 38.0725C147.837 35.9062 148.783 33.74 149.415 32.22C149.764 31.3822 149.894 30.2652 149.941 29.4154Z" fill="#E5A50A"/>
<path d="M148.728 28.2266C148.838 28.2665 148.936 28.3143 149.03 28.3622C148.563 28.4101 147.978 28.6255 147.366 29.2518C145.945 30.696 143.735 35.5073 143.735 35.5073C143.735 35.5073 143.343 37.1909 142.471 38.3119C142.64 37.7613 142.707 37.1869 142.726 36.7002C144.43 34.478 146.02 28.5258 148.728 28.2266Z" fill="#F6D32D"/>
<path d="M146.569 23.8741C146.569 23.8741 147.127 23.3075 147.405 23.9299C147.684 24.5523 147.182 24.9512 147.515 25.2903C147.849 25.6294 148.575 26.2558 148.744 25.6294C148.913 25.0071 148.854 23.3594 148.465 22.2823C148.077 21.2051 147.35 20.6945 146.679 20.6945C146.008 20.6945 145.286 20.9219 144.559 21.2051C143.833 21.4884 143.276 22.0549 143.445 22.7929C143.613 23.5309 144.171 23.6985 144.618 23.8701C145.062 24.0456 146.012 24.2132 146.569 23.8741Z" fill="#63452C"/>
<path d="M147.331 21.1134C147.331 21.1134 147.291 18.1053 150.012 18.3886C152.732 18.6718 152.854 22.0788 152.693 24.6041C152.536 27.1295 153.756 27.9313 153.756 27.9313C153.756 27.9313 153.046 28.6135 151.864 27.692C150.679 26.7704 150.326 24.9672 149.972 23.1998C149.619 21.4365 148.948 20.5947 148.394 20.874C147.841 21.1533 147.684 21.5562 147.684 21.5562L147.331 21.1134Z" fill="#63452C"/>
<path d="M11.1755 101.148L10.6246 104.821L22.9616 119.861L24.3011 107.387L36.8165 107.77L36.9116 109.796C37.4981 109.477 38.2947 109.123 39.2458 108.901C39.7571 108.785 40.3119 108.708 40.9024 108.7C42.6699 108.672 44.7386 109.236 46.744 111.076C49.5181 113.622 49.5775 117.867 47.6555 121.368C45.8879 124.586 42.4203 127.26 37.7637 127.655L37.942 131.409L21.7767 130.914L22.165 127.281C19.2205 123.116 9.78839 107.778 8.99578 106.489L5.02081 106.267L11.1755 101.148ZM41.3027 109.856C40.6606 109.836 40.0543 109.912 39.5034 110.041C38.3541 110.307 37.4664 110.79 36.975 111.101L37.7082 126.475C41.9685 126.1 45.0676 123.676 46.6488 120.792C48.3807 117.642 48.2816 114.057 45.9712 111.938C44.3186 110.42 42.7175 109.9 41.3027 109.856Z" fill="#006600"/>
<mask id="mask0_12_791" style="mask-type:luminance" maskUnits="userSpaceOnUse" x="5" y="101" width="44" height="31">
<path d="M11.1755 101.148L10.6246 104.821L22.9616 119.861L24.3011 107.387L36.8165 107.77L36.9116 109.796C37.4981 109.477 38.2947 109.123 39.2458 108.901C39.7571 108.785 40.3119 108.708 40.9024 108.7C42.6699 108.672 44.7386 109.236 46.744 111.076C49.5181 113.622 49.5775 117.867 47.6555 121.368C45.8879 124.586 42.4203 127.26 37.7637 127.655L37.942 131.409L21.7767 130.914L22.165 127.281C19.2205 123.116 9.78839 107.778 8.99578 106.489L5.02081 106.267L11.1755 101.148ZM41.3027 109.856C40.6606 109.836 40.0543 109.912 39.5034 110.041C38.3541 110.307 37.4664 110.79 36.975 111.101L37.7082 126.475C41.9685 126.1 45.0676 123.676 46.6488 120.792C48.3807 117.642 48.2816 114.057 45.9712 111.938C44.3186 110.42 42.7175 109.9 41.3027 109.856Z" fill="white"/>
</mask>
<g mask="url(#mask0_12_791)">
<path d="M3.63774 103.025L9.23755 105.55C9.23755 105.55 19.2364 122.294 20.9682 122.729C22.7001 123.164 22.9616 119.857 22.9616 119.857L22.1651 127.277L1.90192 107.246L3.63774 103.025Z" fill="#054205"/>
</g>
<mask id="mask1_12_791" style="mask-type:luminance" maskUnits="userSpaceOnUse" x="5" y="101" width="44" height="31">
<path d="M11.1755 101.148L10.6246 104.821L22.9616 119.861L24.3011 107.387L36.8165 107.77L36.9116 109.796C37.4981 109.477 38.2947 109.123 39.2458 108.901C39.7571 108.785 40.3119 108.708 40.9024 108.7C42.6699 108.672 44.7386 109.236 46.744 111.076C49.5181 113.622 49.5775 117.867 47.6555 121.368C45.8879 124.586 42.4203 127.26 37.7637 127.655L37.942 131.409L21.7767 130.914L22.165 127.281C19.2205 123.116 9.78839 107.778 8.99578 106.489L5.02081 106.267L11.1755 101.148ZM41.3027 109.856C40.6606 109.836 40.0543 109.912 39.5034 110.041C38.3541 110.307 37.4664 110.79 36.975 111.101L37.7082 126.475C41.9685 126.1 45.0676 123.676 46.6488 120.792C48.3807 117.642 48.2816 114.057 45.9712 111.938C44.3186 110.42 42.7175 109.9 41.3027 109.856Z" fill="white"/>
</mask>
<g mask="url(#mask1_12_791)">
<path d="M36.9116 109.792L37.7637 127.651L45.2182 127.575L39.341 105.84L36.9116 109.792Z" fill="#054205"/>
</g>
<path d="M28.9587 116.607C29.46 116.607 29.8759 117.15 30.2639 117.701C30.4207 117.925 30.6123 118.231 30.7792 118.516L30.2337 118.75L32.0549 118.888L33.1475 117.5L32.4662 117.793C31.9416 116.988 31.3612 116.606 30.9933 116.606H28.9587V116.607ZM27.451 123.261C27.2004 122.819 27.4549 122.182 27.7311 121.564C27.8429 121.314 28.0082 120.993 28.168 120.703L28.6398 121.066L27.8475 119.394L26.1187 119.127L26.7084 119.58C26.2839 120.444 26.2498 121.146 26.4337 121.47L27.451 123.261ZM33.8738 121.261C33.6231 121.702 32.9527 121.796 32.2885 121.862C32.0192 121.888 31.663 121.903 31.3363 121.908L31.4101 121.311L30.3811 122.844L31.0174 124.5L31.109 123.754C32.058 123.695 32.6726 123.374 32.8565 123.05L33.8738 121.261Z" fill="#A9CE72"/>
<path d="M27.0475 118.519L28.7469 119.26C28.7469 119.26 29.3126 118.236 29.6874 117.702C30.0754 117.15 30.4905 116.608 30.9926 116.608H28.9587C28.4908 116.607 27.7358 117.257 27.0475 118.519ZM30.0358 123.986L29.817 122.12C29.817 122.12 28.6615 122.135 28.019 122.071C27.3548 122.006 26.6844 121.911 26.4337 121.47L27.451 123.261C27.6846 123.672 28.6158 124.012 30.0358 123.986ZM33.2002 118.623L31.7197 119.748C31.7197 119.748 32.3094 120.758 32.5763 121.355C32.8526 121.972 33.1079 122.609 32.8565 123.051L33.8738 121.261C34.1081 120.849 33.932 119.859 33.2002 118.623Z" fill="#A9CE72"/>
<path d="M63.9005 67.6894C64.136 66.9677 68.7153 56.3816 68.7153 56.3816C68.7153 56.3816 69.266 58.0643 68.9508 59.2684C68.6356 60.4725 66.9003 64.0809 66.9003 64.0809C66.9003 64.0809 66.3496 63.9189 66.0308 64.5633C65.7156 65.204 64.2954 67.6894 64.2954 67.6894" fill="#DEDDDA"/>
<path d="M66.6031 67.6894C66.3677 66.9677 61.7883 56.3816 61.7883 56.3816C61.7883 56.3816 61.2376 58.0643 61.5528 59.2684C61.868 60.4725 63.6034 64.0809 63.6034 64.0809C63.6034 64.0809 64.1541 63.9189 64.4729 64.5633C64.7881 65.204 66.2082 67.6894 66.2082 67.6894" fill="white"/>
<path d="M76.7364 80.739L73.3743 79.9142C73.3743 79.9142 70.7405 73.7171 69.9543 70.6941C69.1573 69.328 67.6248 67.7152 66.9618 67.9546C65.3315 68.5474 66.0561 70.4695 66.7408 70.8451C67.4255 71.217 68.9001 70.6978 69.0377 71.935C69.1754 73.1759 69.871 80.4923 70.2623 81.6779C70.6499 82.8636 75.8922 84.318 75.8922 84.318L76.7364 80.739Z" fill="#F4B58E"/>
<path d="M84.9785 127.572C84.9785 127.572 85.0908 128.761 85.8697 129.329C86.6523 129.896 89.4419 130.746 89.7752 131.427C90.1085 132.109 88.6593 131.994 87.6558 132.05C86.6523 132.105 85.4784 131.994 85.0328 132.05C84.5872 132.105 83.3591 132.388 83.1344 131.766C82.9098 131.144 83.4677 130.293 83.638 129.553C83.8083 128.813 83.5837 127.797 83.5837 127.797L84.9785 127.572Z" fill="#F4B58E"/>
<path d="M86.5798 129.719C87.7065 130.245 89.5107 130.893 89.7752 131.431C90.1085 132.112 88.6593 131.998 87.6558 132.053C86.6522 132.109 85.4784 131.998 85.0328 132.053C84.5872 132.109 83.359 132.392 83.1344 131.77C82.9677 131.302 83.2395 130.709 83.4532 130.131C83.801 130.209 84.2285 130.29 84.6959 130.352C85.5219 130.466 86.2102 130.024 86.5798 129.719Z" fill="#1B404E"/>
<path d="M63.9005 66.7284L61.4551 72.502L62.4007 72.9844L64.9258 67.0487L63.9005 66.7284Z" fill="#FF5F3A"/>
<path d="M68.8059 81.0998L65.4439 80.275C65.4439 80.275 64.3824 74.8328 64.9294 71.7508C64.7736 70.1712 63.5817 67.9177 62.8789 67.903C60.8392 67.8625 61.0131 69.7993 61.4804 70.4289C61.9478 71.0622 63.4984 71.2169 63.1107 72.4025C62.7231 73.5882 61.9441 80.8494 62.3354 82.035C62.7231 83.2207 67.9654 84.6751 67.9654 84.6751L68.8059 81.0998Z" fill="#F4B58E"/>
<path d="M81.852 83.5705C81.852 83.5705 82.0114 82.488 80.0369 81.6042C78.0624 80.7205 74.4359 80.0798 74.4359 80.0798C74.4359 80.0798 72.9759 80.4407 73.2114 82.4843C76.7256 84.2517 81.852 83.5705 81.852 83.5705Z" fill="#E5A50A"/>
<path d="M78.8594 82.1161C78.8594 82.1161 78.1203 82.3922 77.8486 82.0388C77.5769 81.6853 77.537 80.1425 77.537 80.1425L75.1677 80.183C75.1677 80.183 75.0517 81.9578 74.78 82.1161C74.5083 82.2744 73.5374 82.2744 73.5374 82.2744C73.5374 82.2744 73.9649 84.2075 74.8959 84.3659C75.827 84.5242 77.3052 84.4837 78.0044 84.0492C78.7036 83.6147 78.8594 82.1161 78.8594 82.1161Z" fill="#F4B58E"/>
<path d="M69.8566 127.572C69.8566 127.572 69.7442 128.761 68.9653 129.329C68.1828 129.896 65.3932 130.746 65.0599 131.427C64.7265 132.109 66.1757 131.994 67.1792 132.05C68.1828 132.105 69.3566 131.994 69.8022 132.05C70.2478 132.105 71.476 132.388 71.7006 131.766C71.9252 131.144 71.3673 130.293 71.197 129.553C71.0268 128.813 71.2514 127.797 71.2514 127.797L69.8566 127.572Z" fill="#F4B58E"/>
<path d="M83.2105 98.5385C83.2105 98.5385 83.9858 105.406 84.1416 108.959C84.2974 112.512 85.3081 127.926 85.3081 127.926C85.3081 127.926 84.2213 128.636 83.1344 127.926C82.312 125.149 80.8774 116.975 80.468 115.082C79.8122 112.056 79.1311 109.441 78.8195 108.572C78.1058 106.577 77.2545 106.974 76.6349 108.742C76.0661 110.362 74.5011 115.749 74.0373 117.826C73.4396 120.488 72.6208 124.785 71.4035 128.415C70.8202 128.415 69.9869 128.397 69.5812 127.811C69.9 123.172 70.371 116.596 70.5304 115.458C70.9253 112.645 71.639 103.045 71.9505 101.701C72.2621 100.361 72.494 98.8588 72.494 98.8588L83.2105 98.5385Z" fill="#FF5F3A"/>
<path d="M72.2332 99.2969L71.1427 87.956C70.9615 86.0633 70.3782 85.5883 69.4073 85.2717C68.4364 84.955 66.3387 84.3254 66.3387 84.3254C65.1649 84.3622 65.5888 80.1019 66.4655 80.3781C66.4655 80.3781 69.6609 81.0924 70.6137 81.2508C71.5665 81.4091 73.2512 81.8399 74.1243 81.9982C74.3852 82.8267 74.8453 82.5984 76.577 82.6242C78.3305 82.6537 78.4899 82.7089 78.7978 82.1161C81.736 81.9099 82.4062 82.1824 82.8482 90.1689C82.8301 91.2736 83.4714 97.246 83.5112 98.8256C83.5547 100.402 72.2332 99.2969 72.2332 99.2969Z" fill="#344804"/>
<path d="M78.5479 77.0237C78.5479 77.0237 78.6638 78.6033 78.2762 79.6675C77.8885 80.7316 76.9574 81.0078 76.3741 81.0888C75.7909 81.1661 74.8996 80.89 74.6279 80.3376C74.3562 79.7853 74.0845 77.9295 74.1606 76.707C74.2366 75.4846 75.1713 74.8107 76.414 74.7334C77.6567 74.6561 78.5116 75.6024 78.5479 77.0237Z" fill="#F4B58E"/>
<path d="M79.9318 77.5796C79.6673 78.5554 79.2181 79.3691 78.4174 80.4259C77.566 81.549 75.8234 80.6358 75.117 79.7521C74.8235 79.3839 74.8742 79.0451 74.7293 78.6069C74.5301 77.9994 74.7547 77.2666 74.5554 76.5597C74.3453 75.8159 74.175 75.9411 74.1062 75.363C74.0808 75.1568 73.9975 74.0926 74.3091 73.4814C74.5953 72.9143 74.9829 72.4872 75.856 72.2147C76.4212 72.0343 81.4715 71.9275 79.9318 77.5796Z" fill="#63452C"/>
<path d="M68.2552 129.719C67.1285 130.245 65.3243 130.893 65.0599 131.431C64.7265 132.112 66.1757 131.998 67.1792 132.053C68.1828 132.109 69.3566 131.998 69.8022 132.053C70.2478 132.109 71.476 132.392 71.7006 131.77C71.8673 131.302 71.5955 130.709 71.3818 130.131C71.034 130.209 70.6065 130.29 70.1391 130.352C69.3131 130.466 68.6248 130.024 68.2552 129.719Z" fill="#1B404E"/>
<path d="M66.6032 66.7284L69.0486 72.502L68.103 72.9844L65.5779 67.0487L66.6032 66.7284Z" fill="#FF5F3A"/>
<path d="M109.009 58.0474C109.009 58.0474 109.64 56.2842 111.298 55.6404C112.956 54.9995 113.666 56.3625 114.297 56.522C114.927 56.6815 115.795 56.1218 116.822 57.0846C117.846 58.0474 113.9 60.1325 109.009 58.0474Z" fill="#986A44"/>
<path d="M115.241 40.8853C113.703 44.2348 114.371 45.6181 113.52 47.4625C112.67 49.3069 112.45 51.0701 112.45 51.0701C112.45 51.0701 111.706 48.9212 111.135 47.941C110.319 46.5374 109.055 46.1981 107.189 45.6152C107.052 49.7042 111.435 50.7482 112.165 52.4331C112.898 54.118 112.02 56.7628 112.02 56.7628C112.973 57.424 113.68 56.7918 113.675 56.844C113.675 56.844 113.272 54.7589 113.158 53.4771C113.155 53.4423 113.152 53.4104 113.15 53.3756C113.772 53.3263 115.204 53.1726 116.342 52.7144C117.84 52.1141 119.184 53.5147 119.184 53.5147C119.184 53.5147 119.027 51.189 116.342 50.9077C114.462 50.7105 113.515 51.6356 113.115 52.2069C113.144 51.4007 113.312 50.6061 113.757 49.7042C114.434 48.3412 114.981 48.4775 115.96 47.0768C116.425 46.4185 117.515 43.6896 115.241 40.8853Z" fill="#3F7C25"/>
<path d="M68.5264 24.4296C68.2297 23.8061 68.4608 23.0956 68.3667 22.3793C67.893 18.6992 63.8641 16.7678 61.4331 20.0622C58.089 13.0558 51.4778 16.5039 51.8687 23.2986C45.7768 20.2565 38.8575 29.4727 48.3134 29.5858C49.5917 34.365 52.9729 31.5462 55.2642 30.4152C58.0661 35.4873 64.4519 34.1069 66.8173 29.4379C69.8761 32.8019 78.1536 26.3291 72.3727 24.2933C71.2114 23.8786 69.6763 24.4441 68.5264 24.4296Z" fill="#E8F4D3"/>
<path d="M73.8251 25.1401C72.0247 28.7593 69.0829 28.7564 66.7774 26.6742C66.649 28.7622 63.4362 31.5056 59.841 31.5056C56.2429 31.5056 55.3441 27.3267 55.3441 27.3267C55.3441 27.3267 53.2897 29.5452 51.3609 29.9367C49.4349 30.3282 48.9213 29.0232 51.8745 27.0628C48.2992 28.4055 45.483 27.2629 43.8109 26.1493C43.2403 27.8429 44.2989 29.5307 48.3135 29.58C49.5918 34.3592 52.973 31.5404 55.2642 30.4094C58.0662 35.4815 64.452 34.1011 66.8174 29.4321C69.528 32.4162 76.3247 27.6776 73.8251 25.1401Z" fill="#D7E8B1"/>
<path d="M54.2113 40.0316C52.545 42.3864 51.3466 46.5421 53.9374 46.3797C56.8649 46.1999 54.2113 40.0316 54.2113 40.0316Z" fill="#E8F4D3"/>
<path d="M67.9158 36.3312C66.2494 38.686 65.051 42.8417 67.6419 42.6793C70.5694 42.4966 67.9158 36.3312 67.9158 36.3312Z" fill="#E8F4D3"/>
<path d="M59.5498 34.9885C57.8835 37.3433 56.6851 41.499 59.2759 41.3366C62.2034 41.1568 59.5498 34.9885 59.5498 34.9885Z" fill="#E8F4D3"/>
<path d="M61.4302 44.6019C60.4943 45.9243 59.821 48.2588 61.2762 48.1689C62.9225 48.0674 61.4302 44.6019 61.4302 44.6019Z" fill="#E8F4D3"/>
<path d="M72.8892 31.0967C71.9533 32.4191 71.2799 34.7536 72.7351 34.6637C74.3815 34.5622 72.8892 31.0967 72.8892 31.0967Z" fill="#E8F4D3"/>
<path d="M48.8784 34.5448C47.9425 35.8672 47.2691 38.2017 48.7243 38.1118C50.3706 38.0103 48.8784 34.5448 48.8784 34.5448Z" fill="#E8F4D3"/>
</svg>
