<svg width="196" height="137" viewBox="0 0 196 137" fill="none" xmlns="http://www.w3.org/2000/svg">
<path d="M195.037 25.9677V110.717C195.037 124.307 183.577 133.473 169.73 135.324C153.183 137.535 135.748 136.504 102.905 134.324C83.7326 133.052 45.4227 135.157 26.2278 135.324C12.2519 135.444 0.920776 124.307 0.920776 110.717V25.9677C0.920776 12.3779 12.2752 0.561992 26.2278 1.36107C39.1849 2.10341 58.2425 5.04202 78.1096 3.24292C101.739 1.10259 146.587 -0.715427 169.73 1.36107C183.647 2.61012 195.037 12.3771 195.037 25.9677Z" fill="#DAEBE8"/>
<path opacity="0.5" d="M99.7756 124.207C142.302 124.207 176.777 119.74 176.777 114.229C176.777 108.719 142.302 104.252 99.7756 104.252C57.249 104.252 22.7744 108.719 22.7744 114.229C22.7744 119.74 57.249 124.207 99.7756 124.207Z" fill="#B8D5DC"/>
<path d="M39.5617 111.135H37.1232L39.3067 91.0247H41.7452L39.5617 111.135Z" fill="#99C4CC"/>
<path d="M60.2461 97.3227H24.9345L19.5349 76.0526H54.8472L60.2461 97.3227Z" fill="#99C4CC"/>
<path d="M61.5944 97.3227H26.2829L20.884 76.0526H56.1956L61.5944 97.3227Z" fill="#B8D5DC"/>
<path d="M57.5463 81.2222H22.2347V81.5272H57.5463V81.2222Z" fill="#99C4CC"/>
<path d="M58.8946 86.5352H23.5831V86.8401H58.8946V86.5352Z" fill="#99C4CC"/>
<path d="M60.2437 91.8473H24.9322V92.1523H60.2437V91.8473Z" fill="#99C4CC"/>
<path d="M27.3481 76.0157L27.0583 76.0917L32.4573 97.362L32.7471 97.2861L27.3481 76.0157Z" fill="#99C4CC"/>
<path d="M34.8148 76.0143L34.525 76.0903L39.924 97.3607L40.2138 97.2847L34.8148 76.0143Z" fill="#99C4CC"/>
<path d="M42.2786 76.0161L41.9888 76.092L47.3878 97.3624L47.6776 97.2864L42.2786 76.0161Z" fill="#99C4CC"/>
<path d="M49.7452 76.0143L49.4554 76.0903L54.8544 97.3607L55.1442 97.2847L49.7452 76.0143Z" fill="#99C4CC"/>
<path d="M37.8009 109.305H41.9344C42.9291 109.305 43.7347 110.124 43.7347 111.135H37.8009V109.305Z" fill="#99C4CC"/>
<path d="M76.3705 109.276H74.7663L76.203 96.0453H77.8073L76.3705 109.276Z" fill="#99C4CC"/>
<path d="M89.9797 103.042H66.7467L63.1948 89.0482H86.427L89.9797 103.042Z" fill="#99C4CC"/>
<path d="M90.8667 103.042H67.6337L64.0818 89.0482H87.3147L90.8667 103.042Z" fill="#B8D5DC"/>
<path d="M88.2033 92.4486H64.9703V92.6503H88.2033V92.4486Z" fill="#99C4CC"/>
<path d="M89.0911 95.9436H65.8582V96.1453H89.0911V95.9436Z" fill="#99C4CC"/>
<path d="M89.9774 99.4393H66.7452V99.6411H89.9774V99.4393Z" fill="#99C4CC"/>
<path d="M68.3383 89.019L68.1476 89.069L71.6998 103.064L71.8905 103.014L68.3383 89.019Z" fill="#99C4CC"/>
<path d="M73.2471 89.0223L73.0564 89.0723L76.6088 103.068L76.7995 103.018L73.2471 89.0223Z" fill="#99C4CC"/>
<path d="M78.1591 89.0221L77.9684 89.0721L81.5208 103.067L81.7115 103.017L78.1591 89.0221Z" fill="#99C4CC"/>
<path d="M83.071 89.0219L82.8803 89.0719L86.4327 103.067L86.6234 103.017L83.071 89.0219Z" fill="#99C4CC"/>
<path d="M75.2121 108.072H77.9313C78.5857 108.072 79.116 108.611 79.116 109.276H75.2121V108.072Z" fill="#99C4CC"/>
<g opacity="0.8">
<path d="M150.335 31.4636C150.335 31.4636 148.723 28.3114 144.642 28.7062C140.561 29.101 141.047 32.2611 139.104 31.9648C137.16 31.6685 134.44 31.9648 133.857 33.9396C133.274 35.9144 130.651 34.8285 130.554 36.5071C130.457 38.1856 133.566 39.3708 137.16 37.8893C140.755 36.4078 142.504 39.0398 147.557 38.5631C152.609 38.0863 153.234 37.4937 156.225 37.79C159.216 38.0863 159.144 36.0051 157.784 34.6228C156.424 33.2414 150.918 33.373 150.335 31.4636Z" fill="white"/>
</g>
<g opacity="0.6">
<path d="M93.3913 16.4292C93.3913 16.4292 92.2662 14.2298 89.4191 14.5056C86.5719 14.7814 86.9108 16.9864 85.5547 16.7791C84.1986 16.5727 82.3005 16.7791 81.8942 18.1574C81.4871 19.5357 79.6573 18.7776 79.589 19.9486C79.5208 21.1197 81.6903 21.9463 84.1986 20.9132C86.7069 19.8801 87.9273 21.7162 91.4521 21.3837C94.9769 21.0511 95.4142 20.6374 97.5007 20.8446C99.5872 21.0511 99.5376 19.5995 98.5885 18.635C97.6395 17.6696 93.7975 17.7618 93.3913 16.4292Z" fill="white"/>
</g>
<g opacity="0.6">
<path d="M45.194 34.9735C45.194 34.9735 43.9208 32.2035 40.6984 32.551C37.4768 32.8978 37.8598 35.6741 36.3261 35.414C34.7917 35.1539 32.6439 35.414 32.1834 37.1493C31.7228 38.8845 29.6518 37.9302 29.5751 39.4054C29.4983 40.8807 31.9531 41.9217 34.7917 40.6198C37.6303 39.3188 39.0112 41.6309 42.9997 41.2124C46.9889 40.794 47.4828 40.2731 49.8438 40.5331C52.2048 40.7932 52.149 38.9649 51.0751 37.7505C50.0012 36.5354 45.6537 36.6504 45.194 34.9735Z" fill="white"/>
</g>
<path d="M163.731 110.023H161.752L161.917 95.2083L162.171 72.5166H163.068L163.422 92.5629L163.731 110.023Z" fill="white"/>
<path d="M163.422 92.5629C162.981 93.2319 162.437 94.1334 161.917 95.2083L162.17 72.5166H163.067L163.422 92.5629Z" fill="#B8D5DC"/>
<path d="M162.516 72.9351L162.112 71.6916C161.68 70.359 161.943 68.8948 162.811 67.8041L170.52 58.123C170.655 57.9536 170.915 58.1262 170.817 58.32L163.4 73.0052C163.206 73.3906 162.651 73.3472 162.516 72.9351Z" fill="white"/>
<path d="M162.89 72.1699L164.177 72.1116C165.556 72.0486 166.872 72.7026 167.67 73.8477L174.754 84.0103C174.878 84.1884 174.644 84.3964 174.487 84.2483L162.585 73.0163C162.272 72.7215 162.464 72.1896 162.89 72.1699Z" fill="white"/>
<path d="M163.299 72.467L162.644 73.5947C161.942 74.8028 160.683 75.5656 159.304 75.6184L147.059 76.092C146.844 76.1007 146.801 75.7878 147.009 75.735L162.768 71.7444C163.182 71.6403 163.516 72.0943 163.299 72.467Z" fill="white"/>
<path d="M163.696 73.1079C163.969 72.5896 163.777 71.9444 163.267 71.6668C162.757 71.3892 162.123 71.5843 161.85 72.1027C161.576 72.621 161.768 73.2662 162.278 73.5438C162.788 73.8213 163.423 73.6262 163.696 73.1079Z" fill="#366F90"/>
<path d="M166.252 110.626H159.23C159.23 109.454 160.165 108.503 161.318 108.503H164.164C165.318 108.504 166.252 109.454 166.252 110.626Z" fill="white"/>
<path d="M153.335 112.63H150.082L150.354 92.2177L150.77 60.9529H152.244L152.827 88.573L153.335 112.63Z" fill="white"/>
<path d="M152.827 88.573C152.102 89.495 151.209 90.737 150.354 92.2177L150.77 60.9529H152.245L152.827 88.573Z" fill="#B8D5DC"/>
<path d="M151.654 60.3855L152.444 62.1806C153.293 64.1042 153.12 66.3344 151.986 68.0996L141.924 83.7714C141.748 84.0457 141.333 83.829 141.45 83.5232L150.321 60.4186C150.555 59.8118 151.391 59.7913 151.654 60.3855Z" fill="white"/>
<path d="M151.211 61.5873L149.296 61.8757C147.245 62.1846 145.179 61.4123 143.814 59.8252L131.693 45.7389C131.481 45.4923 131.8 45.1448 132.057 45.3418L151.54 60.2752C152.051 60.6676 151.844 61.4919 151.211 61.5873Z" fill="white"/>
<path d="M150.556 61.2067L151.364 59.4194C152.231 57.5045 153.997 56.1687 156.051 55.874L174.282 53.2577C174.601 53.212 174.714 53.673 174.41 53.7841L151.457 62.2036C150.854 62.425 150.287 61.7985 150.556 61.2067Z" fill="white"/>
<path d="M152.639 60.0632C153.11 60.8047 152.901 61.7945 152.172 62.2744C151.442 62.7535 150.468 62.5408 149.996 61.7992C149.524 61.0577 149.734 60.0679 150.463 59.588C151.193 59.1088 152.167 59.3216 152.639 60.0632Z" fill="#366F90"/>
<path d="M157.478 113.622H145.939C145.939 111.696 147.475 110.135 149.37 110.135H154.047C155.942 110.134 157.478 111.696 157.478 113.622Z" fill="white"/>
<path d="M72.1153 79.5602C72.2402 83.2892 72.534 87.0096 72.7349 90.7346C72.8155 92.2335 72.9101 93.7253 72.4922 95.1855C72.1518 96.3762 71.4935 97.4117 70.5623 98.2132C68.016 100.405 64.4261 100.226 61.3052 100.528C58.6101 100.789 55.5761 101.553 53.8207 103.826C51.8962 106.317 52.4335 109.7 54.3068 112.05C56.3522 114.618 59.7452 115.559 62.842 115.9C66.4521 116.298 70.1754 115.882 73.6141 114.693C74.4546 114.403 75.2858 114.06 76.0612 113.619C76.8388 113.177 77.5475 112.625 78.2663 112.093C79.5999 111.106 81.0212 110.298 82.5858 109.756C89.1904 107.467 96.2066 109.47 102.316 112.306C103.127 112.682 103.93 113.075 104.729 113.476C105.43 113.827 106.049 112.76 105.345 112.406C99.2026 109.324 92.5019 106.729 85.5361 107.764C83.9474 108.001 82.4005 108.442 80.9258 109.087C79.3735 109.767 78.06 110.745 76.6915 111.733C73.801 113.819 70.0467 114.63 66.5521 114.782C63.3344 114.921 59.7157 114.586 56.9399 112.774C54.6829 111.3 52.9259 108.161 54.2277 105.472C55.4187 103.011 58.3907 102.09 60.8811 101.811C64.15 101.444 67.6717 101.652 70.5476 99.7538C72.8178 98.2549 73.9297 95.8057 74.0282 93.1035C74.0933 91.3044 73.8863 89.473 73.7754 87.6786C73.6614 85.8314 73.5412 83.9843 73.4459 82.1363C73.4017 81.2781 73.3637 80.4199 73.335 79.561C73.3078 78.7643 72.089 78.7611 72.1153 79.5602Z" fill="#367743"/>
<path d="M72.5425 79.5602C72.6674 83.2892 72.9612 87.0096 73.162 90.7346C73.2427 92.2335 73.3373 93.7253 72.9194 95.1855C72.579 96.3762 71.9207 97.4117 70.9895 98.2132C68.4432 100.405 64.8533 100.226 61.7324 100.528C59.0373 100.789 56.0033 101.553 54.2479 103.826C52.3234 106.317 52.8607 109.7 54.734 112.05C56.7794 114.618 60.1716 115.559 63.2692 115.9C66.8793 116.298 70.6026 115.882 74.0413 114.693C74.8818 114.403 75.713 114.06 76.4883 113.619C77.266 113.177 77.9747 112.625 78.6935 112.093C80.0271 111.106 81.4483 110.298 83.013 109.756C89.6176 107.467 96.6338 109.47 102.743 112.306C103.554 112.682 104.357 113.075 105.157 113.476C105.858 113.827 106.476 112.76 105.772 112.406C99.6298 109.324 92.9291 106.729 85.9633 107.764C84.3746 108.001 82.8277 108.442 81.353 109.087C79.8007 109.767 78.4872 110.745 77.1187 111.733C74.2282 113.819 70.4739 114.63 66.9793 114.782C63.7615 114.921 60.1429 114.586 57.3671 112.774C55.1101 111.3 53.3531 108.161 54.6549 105.472C55.8459 103.011 58.8178 102.09 61.3083 101.811C64.5772 101.444 68.0989 101.652 70.9747 99.7538C73.245 98.2549 74.3569 95.8057 74.4553 93.1035C74.5205 91.3044 74.3135 89.473 74.2026 87.6786C74.0886 85.8314 73.9684 83.9843 73.8731 82.1363C73.8289 81.2781 73.7909 80.4199 73.7622 79.561C73.735 78.7643 72.5154 78.7611 72.5425 79.5602Z" fill="#17BA09"/>
<path d="M73.6312 87.7267C71.9339 87.7267 70.5584 86.3287 70.5584 84.6037V82.6446C70.5584 80.9196 71.9339 79.5216 73.6312 79.5216C75.3284 79.5216 76.7039 80.9196 76.7039 82.6446V84.6037C76.7039 86.3287 75.3284 87.7267 73.6312 87.7267Z" fill="#367743"/>
<path d="M61.9627 28.2002V58.6802C61.9627 60.1459 60.9997 61.395 59.684 61.804C59.3878 61.8962 59.0745 61.9458 58.7489 61.9458C56.9818 61.9458 55.5358 60.4761 55.5358 58.6802V28.2002C55.5358 26.4043 56.9818 24.9346 58.7489 24.9346C59.0737 24.9346 59.3878 24.9842 59.684 25.0764C60.1934 25.2348 60.6501 25.5193 61.0184 25.8936C61.6014 26.4862 61.9627 27.3019 61.9627 28.2002Z" fill="#B8D5DC"/>
<path d="M61.9627 28.2002V58.6802C61.9627 60.1459 60.9997 61.395 59.6839 61.804C58.3689 61.395 57.4052 60.1459 57.4052 58.6802V28.2002C57.4052 26.7345 58.3682 25.4854 59.6839 25.0764C60.1934 25.2348 60.65 25.5193 61.0183 25.8936C61.6014 26.4862 61.9627 27.3018 61.9627 28.2002Z" fill="white"/>
<path d="M89.5695 28.2002V58.6802C89.5695 60.1459 88.6065 61.395 87.2907 61.804C86.9945 61.8962 86.6813 61.9458 86.3556 61.9458C84.5886 61.9458 83.1425 60.4761 83.1425 58.6802V28.2002C83.1425 26.4043 84.5886 24.9346 86.3556 24.9346C86.6805 24.9346 86.9945 24.9842 87.2907 25.0764C87.8001 25.2348 88.2568 25.5193 88.6251 25.8936C89.2074 26.4862 89.5695 27.3019 89.5695 28.2002Z" fill="#B8D5DC"/>
<path d="M89.5695 28.2002V58.6802C89.5695 60.1459 88.6065 61.395 87.2908 61.804C85.9757 61.395 85.012 60.1459 85.012 58.6802V28.2002C85.012 26.7345 85.975 25.4854 87.2908 25.0764C87.8002 25.2348 88.2569 25.5193 88.6251 25.8936C89.2074 26.4862 89.5695 27.3018 89.5695 28.2002Z" fill="white"/>
<path d="M88.353 83.8353H51.5046C49.2158 83.8353 47.3596 81.9495 47.3596 79.6224V48.6996C47.3596 46.3733 49.215 44.4867 51.5046 44.4867H88.353C90.6418 44.4867 92.498 46.3725 92.498 48.6996V79.6224C92.498 81.9495 90.6418 83.8353 88.353 83.8353Z" fill="#367743"/>
<path d="M91.5413 83.8354H57.4098C55.1977 83.8354 53.4051 82.0126 53.4051 79.7651V48.5578C53.4051 46.3095 55.1985 44.4875 57.4098 44.4875H91.5413C93.7534 44.4875 95.546 46.3103 95.546 48.5578V79.7651C95.546 82.0126 93.7526 83.8354 91.5413 83.8354Z" fill="#A1E00E"/>
<path d="M68.3393 75.9541L74.1321 67.2612H67.6617L75.8301 54.0205H81.1949L74.4283 64.4526H81.1949L68.3393 75.9541Z" fill="#ACAB58"/>
<path d="M68.3393 75.9541L72.9807 67.2612H66.5103L74.6787 54.0205H80.0434L73.2768 64.4526H80.0434L68.3393 75.9541Z" fill="white"/>
<path d="M143.28 97.5457C143.228 97.8578 143.259 98.5119 143.212 98.8255C143.192 98.9618 143.155 99.4268 143.281 99.4788C143.391 99.5237 143.588 99.1856 143.663 99.0107C144.126 100.086 145.101 101.319 144.271 99.1281C144.271 99.1281 144.272 99.1273 144.274 99.1273C144.358 99.3102 144.938 100.674 145.181 100.476C145.359 100.331 144.851 99.2219 144.714 98.9193C144.716 98.9177 144.719 98.9161 144.721 98.9153C144.884 99.2124 145.331 100.134 145.508 100.005C145.741 99.835 145.13 98.6632 145.13 98.6632C145.13 98.6632 145.615 99.6474 145.788 99.3511C145.886 99.1849 145.581 98.6112 145.387 98.2565C145.346 98.1825 145.31 98.1171 145.284 98.0682C145.262 98.0272 145.239 97.9933 145.214 97.9642C144.856 97.3897 144.54 97.0761 144.54 97.0761C144.54 97.0761 144.226 96.6426 143.741 96.8578C143.431 96.9933 143.302 97.4102 143.28 97.5457Z" fill="#FFB27D"/>
<path d="M124.136 83.4909C124.103 83.1757 123.898 82.5579 123.859 82.2427C123.842 82.1063 123.754 81.6485 123.618 81.6359C123.5 81.6248 123.402 82.007 123.377 82.1969C122.645 81.3002 121.379 80.4018 122.762 82.2616C122.761 82.2624 122.76 82.2624 122.76 82.2631C122.629 82.1118 121.708 80.9723 121.528 81.2332C121.396 81.4247 122.18 82.3404 122.392 82.591C122.391 82.5933 122.388 82.5949 122.387 82.5973C122.151 82.3593 121.475 81.6051 121.339 81.7809C121.161 82.0125 122.061 82.9582 122.061 82.9582C122.061 82.9582 121.332 82.1552 121.245 82.4901C121.195 82.6784 121.641 83.1402 121.922 83.4239C121.981 83.483 122.033 83.535 122.072 83.5744C122.104 83.6075 122.135 83.6336 122.167 83.654C122.664 84.1009 123.051 84.3097 123.051 84.3097C123.051 84.3097 123.468 84.6336 123.878 84.286C124.138 84.0646 124.151 83.6272 124.136 83.4909Z" fill="#FFB27D"/>
<path d="M134.325 116.155C134.325 116.155 134.351 116.873 133.868 117.104C133.387 117.335 131.966 117.599 132.529 118.03C132.852 118.278 134.288 118.024 134.696 118C135.105 117.977 135.499 118.13 135.786 117.844C136.101 117.53 135.679 116.078 135.679 116.078C135.679 116.078 135.338 116.278 135.02 116.289C134.563 116.303 134.325 116.155 134.325 116.155Z" fill="#331832"/>
<path d="M141.424 113.554C141.424 113.554 142.472 116.384 142.26 116.891C142.048 117.399 141.156 118.585 141.851 118.514C142.249 118.473 143.159 117.284 143.449 116.982C143.739 116.68 144.131 116.519 144.163 116.106C144.198 115.652 142.807 114.203 142.807 114.203C142.807 114.203 142.673 112.139 142.442 112.368C142.11 112.697 141.424 113.554 141.424 113.554Z" fill="#331832"/>
<path d="M134.627 81.8888C134.627 81.8888 134.708 80.65 135.819 80.7525C136.93 80.8557 136.535 81.6193 136.694 81.8644C136.854 82.1095 136.242 82.6241 135.702 82.6036C135.162 82.5839 134.627 81.8888 134.627 81.8888Z" fill="#EF8062"/>
<path d="M130.561 98.3613C130.76 96.0838 135.363 98.7198 135.363 98.7198C135.363 98.7198 136.974 114.416 136.031 116.592C135.845 117.021 135.083 116.997 134.728 116.947C132.214 116.601 131.765 108.765 131.184 105.312C130.892 103.58 130.44 99.7388 130.561 98.3613Z" fill="#EF8062"/>
<path d="M139.537 98.5299C139.392 99.0871 137.267 99.6253 134.752 98.9736C132.238 98.3219 130.279 97.6449 130.424 97.0878C130.569 96.5307 132.763 96.3045 135.277 96.9562C137.792 97.6079 139.682 97.9728 139.537 98.5299Z" fill="#331832"/>
<path d="M131.598 89.6826C130.982 89.3878 130.424 88.967 130.424 88.967C130.424 88.967 131.81 86.6581 134.606 86.8779C134.993 86.9087 136.738 87.2625 137.112 87.3389C141.913 88.3185 139.559 98.3132 139.538 98.5299C134.713 96.2572 130.425 97.087 130.425 97.087C130.474 93.2579 131.517 89.8725 131.598 89.6826Z" fill="#358A53"/>
<path d="M138.666 98.6261C138.666 98.6261 134.448 97.1808 130.93 97.3172C130.768 97.3235 130.637 97.4464 130.623 97.6048C130.623 97.6048 130.525 98.8862 130.547 99.3125C130.595 100.257 138.938 100.104 138.938 100.104L138.666 98.6261Z" fill="#EF8062"/>
<path d="M136.636 87.2389C136.198 87.7165 135.715 87.8623 135.09 87.8481C134.144 87.826 134.606 86.8788 134.606 86.8788C134.839 86.8788 134.969 86.7661 134.993 86.5383L135.023 86.2594L135.038 86.1207L135.085 85.6786L135.127 85.2814L135.3 83.6517L135.699 85.324L135.767 85.6084L136.001 86.5888C136.077 86.9016 136.318 87.1475 136.632 87.2381C136.633 87.2373 136.635 87.2381 136.636 87.2389Z" fill="#FFB27D"/>
<path d="M135.766 85.6077C135.766 85.6077 135.476 86.0836 135.037 86.1199L135.084 85.6778C135.359 85.6313 135.766 85.6077 135.766 85.6077Z" fill="#331832"/>
<path d="M137.455 84.2277C137.455 84.2277 137.285 84.4445 137.201 85.0095C137.077 85.8361 136.087 85.751 135.963 85.4421C135.948 85.4043 136.549 84.1773 136.549 84.1773L136.894 84.1434L137.455 84.2277Z" fill="#EF8062"/>
<path d="M136.846 84.5964C137.301 83.6564 137.042 82.581 136.269 82.1943C135.495 81.8077 134.5 82.2563 134.045 83.1963C133.59 84.1363 133.848 85.2117 134.622 85.5984C135.395 85.985 136.391 85.5364 136.846 84.5964Z" fill="#FFB27D"/>
<path d="M135.492 82.3152C135.507 82.3861 134.88 83.1687 136.458 84.1466C138.036 85.1246 137.936 82.6738 136.722 82.0638C134.968 81.182 134.173 82.2388 134.152 82.7399C134.13 83.2411 135.492 82.3152 135.492 82.3152Z" fill="#EF8062"/>
<path d="M136.401 83.7802C136.401 83.7802 136.763 84.7999 136.197 85.4138C136.197 85.4138 136.788 85.1703 136.869 85.0158C136.95 84.8613 137.105 84.2404 137.105 84.2404L136.401 83.7802Z" fill="#EF8062"/>
<path d="M136.57 84.7187C136.339 84.7959 136.108 84.7076 136.05 84.5224C135.994 84.3373 136.134 84.1245 136.363 84.0473C136.594 83.97 136.826 84.0583 136.883 84.2435C136.939 84.4287 136.799 84.6414 136.57 84.7187Z" fill="#FFB27D"/>
<path d="M135.309 83.8479C135.3 83.8408 135.296 83.8305 135.296 83.8195C135.296 83.8006 135.313 83.7856 135.332 83.7864C135.344 83.7872 135.611 83.7769 135.71 84.0701C135.716 84.0882 135.707 84.1079 135.688 84.1142C135.669 84.1205 135.653 84.1087 135.643 84.0922C135.539 83.9259 135.339 83.8573 135.33 83.8565C135.322 83.8558 135.315 83.8526 135.309 83.8479Z" fill="#080435"/>
<path d="M135.407 84.3136C135.375 84.3901 135.303 84.4334 135.246 84.4098C135.189 84.3861 135.169 84.3042 135.201 84.2277C135.233 84.1513 135.305 84.1079 135.362 84.1316C135.418 84.1552 135.438 84.2372 135.407 84.3136Z" fill="#080435"/>
<path d="M134.078 83.4838C134.068 83.4806 134.058 83.4728 134.054 83.4617C134.047 83.4436 134.057 83.4239 134.075 83.4168C134.086 83.4129 134.328 83.3025 134.531 83.539C134.544 83.5539 134.543 83.576 134.529 83.5886C134.514 83.6012 134.495 83.5965 134.479 83.5855C134.319 83.4704 134.109 83.4806 134.1 83.4838C134.093 83.4862 134.085 83.4862 134.078 83.4838Z" fill="#080435"/>
<path d="M134.347 83.881C134.347 83.9646 134.298 84.0316 134.237 84.0308C134.175 84.03 134.125 83.9614 134.125 83.8779C134.125 83.7944 134.175 83.7274 134.236 83.7282C134.297 83.7297 134.347 83.7975 134.347 83.881Z" fill="#080435"/>
<path opacity="0.3" d="M136.142 84.1411C136.087 84.6092 135.759 85.0127 135.411 85.0434C135.063 85.0742 134.827 84.7195 134.882 84.2515C134.938 83.7834 135.265 83.3799 135.614 83.3491C135.962 83.3184 136.198 83.673 136.142 84.1411Z" fill="white"/>
<path opacity="0.3" d="M134.529 83.9981C134.726 83.5657 134.674 83.115 134.412 82.9914C134.149 82.8678 133.777 83.1181 133.579 83.5504C133.382 83.9828 133.435 84.4335 133.697 84.5571C133.959 84.6807 134.332 84.4304 134.529 83.9981Z" fill="white"/>
<path d="M136.142 84.3294C136.16 84.271 136.176 84.2104 136.185 84.1481C136.189 84.1268 136.192 84.1055 136.194 84.0843C136.198 84.048 136.201 84.0126 136.202 83.9771C136.208 83.7297 136.136 83.5137 135.997 83.3727C135.888 83.2608 135.749 83.208 135.594 83.2206C135.562 83.2237 135.531 83.2285 135.5 83.2363C135.25 83.2994 135.02 83.5287 134.893 83.825C134.879 83.8589 134.865 83.892 134.855 83.9275C134.827 84.0102 134.807 84.0953 134.797 84.1836C134.788 84.2687 134.787 84.3514 134.795 84.4294C134.813 84.6186 134.882 84.7817 134.993 84.896C135.038 84.9417 135.089 84.9787 135.145 85.0039C135.161 85.0118 135.178 85.0181 135.195 85.0244C135.258 85.0457 135.326 85.0544 135.397 85.048C135.47 85.0425 135.543 85.0213 135.613 84.9882C135.789 84.9046 135.946 84.7407 136.054 84.535C136.066 84.5145 136.077 84.4925 136.087 84.4704C136.108 84.4247 136.126 84.3782 136.142 84.3294ZM134.924 84.6903C134.888 84.6115 134.864 84.5208 134.855 84.4239C134.847 84.3498 134.847 84.2702 134.856 84.1907C134.865 84.1103 134.882 84.0323 134.906 83.9574C134.917 83.9211 134.931 83.8873 134.945 83.8534C135.067 83.5634 135.29 83.3411 135.531 83.2883C135.554 83.282 135.577 83.2797 135.601 83.2773C135.664 83.2718 135.723 83.2789 135.779 83.2978C135.845 83.3191 135.904 83.3577 135.957 83.4113C136.029 83.4846 136.082 83.5831 136.112 83.6973C136.125 83.743 136.133 83.7903 136.138 83.8408C136.138 83.8439 136.139 83.8463 136.139 83.8486C136.139 83.8502 136.139 83.8518 136.139 83.8534C136.142 83.8794 136.144 83.9054 136.143 83.9314C136.145 83.9779 136.142 84.0267 136.136 84.0756C136.13 84.1292 136.121 84.1812 136.108 84.2316C136.099 84.2663 136.089 84.2994 136.078 84.3325C136.066 84.3672 136.052 84.4018 136.039 84.4349V84.4357C135.942 84.6524 135.79 84.829 135.615 84.9204C135.544 84.959 135.469 84.9826 135.392 84.9882C135.311 84.9945 135.235 84.9803 135.165 84.948C135.118 84.9259 135.075 84.8944 135.036 84.8542C134.992 84.8093 134.955 84.7541 134.926 84.6918C134.926 84.6926 134.925 84.6918 134.924 84.6903Z" fill="#331832"/>
<path d="M134.548 83.9299C134.558 83.9071 134.565 83.8834 134.574 83.8598C134.563 83.8606 134.555 83.8613 134.551 83.8621C134.515 83.9898 134.462 84.1088 134.397 84.212C134.397 84.2112 134.398 84.2105 134.399 84.2105C134.406 84.1994 134.414 84.1876 134.422 84.1766C134.423 84.175 134.424 84.1726 134.425 84.1711C134.434 84.1577 134.443 84.1435 134.451 84.1285C134.463 84.1072 134.476 84.0859 134.487 84.0639C134.499 84.0418 134.509 84.0197 134.52 83.9961C134.53 83.9748 134.54 83.952 134.548 83.9299ZM134.548 83.9299C134.558 83.9071 134.565 83.8834 134.574 83.8598C134.563 83.8606 134.555 83.8613 134.551 83.8621C134.515 83.9898 134.462 84.1088 134.397 84.212C134.397 84.2112 134.398 84.2105 134.399 84.2105C134.406 84.1994 134.414 84.1876 134.422 84.1766C134.423 84.175 134.424 84.1726 134.425 84.1711C134.434 84.1577 134.443 84.1435 134.451 84.1285C134.463 84.1072 134.476 84.0859 134.487 84.0639C134.499 84.0418 134.509 84.0197 134.52 83.9961C134.53 83.9748 134.54 83.952 134.548 83.9299ZM134.548 83.9299C134.558 83.9071 134.565 83.8834 134.574 83.8598C134.563 83.8606 134.555 83.8613 134.551 83.8621C134.515 83.9898 134.462 84.1088 134.397 84.212C134.397 84.2112 134.398 84.2105 134.399 84.2105C134.406 84.1994 134.414 84.1876 134.422 84.1766C134.423 84.175 134.424 84.1726 134.425 84.1711C134.434 84.1577 134.443 84.1435 134.451 84.1285C134.463 84.1072 134.476 84.0859 134.487 84.0639C134.499 84.0418 134.509 84.0197 134.52 83.9961C134.53 83.9748 134.54 83.952 134.548 83.9299ZM134.548 83.9299C134.558 83.9071 134.565 83.8834 134.574 83.8598C134.563 83.8606 134.555 83.8613 134.551 83.8621C134.515 83.9898 134.462 84.1088 134.397 84.212C134.397 84.2112 134.398 84.2105 134.399 84.2105C134.406 84.1994 134.414 84.1876 134.422 84.1766C134.423 84.175 134.424 84.1726 134.425 84.1711C134.434 84.1577 134.443 84.1435 134.451 84.1285C134.463 84.1072 134.476 84.0859 134.487 84.0639C134.499 84.0418 134.509 84.0197 134.52 83.9961C134.53 83.9748 134.54 83.952 134.548 83.9299ZM134.548 83.9299C134.558 83.9071 134.565 83.8834 134.574 83.8598C134.563 83.8606 134.555 83.8613 134.551 83.8621C134.515 83.9898 134.462 84.1088 134.397 84.212C134.397 84.2112 134.398 84.2105 134.399 84.2105C134.406 84.1994 134.414 84.1876 134.422 84.1766C134.423 84.175 134.424 84.1726 134.425 84.1711C134.434 84.1577 134.443 84.1435 134.451 84.1285C134.463 84.1072 134.476 84.0859 134.487 84.0639C134.499 84.0418 134.509 84.0197 134.52 83.9961C134.53 83.9748 134.54 83.952 134.548 83.9299ZM134.548 83.9299C134.558 83.9071 134.565 83.8834 134.574 83.8598C134.563 83.8606 134.555 83.8613 134.551 83.8621C134.515 83.9898 134.462 84.1088 134.397 84.212C134.397 84.2112 134.398 84.2105 134.399 84.2105C134.406 84.1994 134.414 84.1876 134.422 84.1766C134.423 84.175 134.424 84.1726 134.425 84.1711C134.434 84.1577 134.443 84.1435 134.451 84.1285C134.463 84.1072 134.476 84.0859 134.487 84.0639C134.499 84.0418 134.509 84.0197 134.52 83.9961C134.53 83.9748 134.54 83.952 134.548 83.9299ZM134.548 83.9299C134.558 83.9071 134.565 83.8834 134.574 83.8598C134.563 83.8606 134.555 83.8613 134.551 83.8621C134.515 83.9898 134.462 84.1088 134.397 84.212C134.397 84.2112 134.398 84.2105 134.399 84.2105C134.406 84.1994 134.414 84.1876 134.422 84.1766C134.423 84.175 134.424 84.1726 134.425 84.1711C134.434 84.1577 134.443 84.1435 134.451 84.1285C134.463 84.1072 134.476 84.0859 134.487 84.0639C134.499 84.0418 134.509 84.0197 134.52 83.9961C134.53 83.9748 134.54 83.952 134.548 83.9299ZM134.548 83.9299C134.558 83.9071 134.565 83.8834 134.574 83.8598C134.563 83.8606 134.555 83.8613 134.551 83.8621C134.515 83.9898 134.462 84.1088 134.397 84.212C134.397 84.2112 134.398 84.2105 134.399 84.2105C134.406 84.1994 134.414 84.1876 134.422 84.1766C134.423 84.175 134.424 84.1726 134.425 84.1711C134.434 84.1577 134.443 84.1435 134.451 84.1285C134.463 84.1072 134.476 84.0859 134.487 84.0639C134.499 84.0418 134.509 84.0197 134.52 83.9961C134.53 83.9748 134.54 83.952 134.548 83.9299ZM134.613 83.8582C134.623 83.8235 134.631 83.7873 134.637 83.7518C134.641 83.7329 134.644 83.7132 134.647 83.6935C134.69 83.3925 134.628 83.1214 134.481 82.9677C134.445 82.9322 134.408 82.9031 134.366 82.8826C134.333 82.8661 134.297 82.8542 134.26 82.8479C134.233 82.844 134.206 82.8424 134.178 82.844H134.177C134.171 82.844 134.163 82.8448 134.156 82.8448C133.823 82.8747 133.494 83.2971 133.423 83.7881C133.381 84.0891 133.442 84.3602 133.589 84.5138C133.626 84.5533 133.668 84.5832 133.714 84.6045C133.767 84.6289 133.826 84.6407 133.888 84.6384C133.888 84.6384 133.889 84.6384 133.89 84.6384C133.898 84.6384 133.905 84.6376 133.912 84.6368C134.033 84.6258 134.154 84.5643 134.261 84.465V84.4642H134.261C134.368 84.3665 134.461 84.2333 134.531 84.0804C134.565 84.0103 134.593 83.9354 134.613 83.8582ZM134.388 84.2262C134.322 84.3271 134.245 84.4122 134.162 84.4729C134.093 84.5249 134.019 84.5588 133.947 84.5714C133.946 84.5714 133.946 84.5722 133.945 84.5722C133.945 84.573 133.944 84.5722 133.944 84.5722C133.942 84.573 133.938 84.5737 133.936 84.5737C133.927 84.5761 133.918 84.5769 133.909 84.5777C133.898 84.5785 133.887 84.5793 133.877 84.5785C133.785 84.5785 133.701 84.543 133.634 84.4729C133.502 84.3342 133.445 84.0875 133.482 83.8086C133.482 83.8078 133.482 83.807 133.482 83.8062C133.482 83.8054 133.482 83.8038 133.483 83.8038C133.484 83.8038 133.483 83.803 133.484 83.8023C133.484 83.7999 133.484 83.7983 133.484 83.7959C133.552 83.3302 133.857 82.9291 134.165 82.9015C134.185 82.8999 134.204 82.8999 134.223 82.9015C134.262 82.9039 134.299 82.9133 134.333 82.9291C134.371 82.9472 134.408 82.9724 134.44 83.0063C134.442 83.0087 134.444 83.0118 134.447 83.015C134.51 83.0843 134.556 83.1797 134.581 83.2908C134.606 83.4074 134.61 83.5406 134.59 83.6833C134.587 83.7053 134.583 83.7274 134.579 83.7494C134.572 83.7873 134.563 83.8251 134.552 83.8621C134.516 83.9898 134.463 84.1088 134.398 84.212C134.394 84.216 134.391 84.2215 134.388 84.2262ZM134.548 83.9299C134.558 83.9071 134.565 83.8834 134.574 83.8598C134.563 83.8606 134.555 83.8613 134.551 83.8621C134.515 83.9898 134.462 84.1088 134.397 84.212C134.397 84.2112 134.398 84.2105 134.399 84.2105C134.406 84.1994 134.414 84.1876 134.422 84.1766C134.423 84.175 134.424 84.1726 134.425 84.1711C134.434 84.1577 134.443 84.1435 134.451 84.1285C134.463 84.1072 134.476 84.0859 134.487 84.0639C134.499 84.0418 134.509 84.0197 134.52 83.9961C134.53 83.9748 134.54 83.952 134.548 83.9299ZM134.548 83.9299C134.558 83.9071 134.565 83.8834 134.574 83.8598C134.563 83.8606 134.555 83.8613 134.551 83.8621C134.515 83.9898 134.462 84.1088 134.397 84.212C134.397 84.2112 134.398 84.2105 134.399 84.2105C134.406 84.1994 134.414 84.1876 134.422 84.1766C134.423 84.175 134.424 84.1726 134.425 84.1711C134.434 84.1577 134.443 84.1435 134.451 84.1285C134.463 84.1072 134.476 84.0859 134.487 84.0639C134.499 84.0418 134.509 84.0197 134.52 83.9961C134.53 83.9748 134.54 83.952 134.548 83.9299ZM134.548 83.9299C134.558 83.9071 134.565 83.8834 134.574 83.8598C134.563 83.8606 134.555 83.8613 134.551 83.8621C134.515 83.9898 134.462 84.1088 134.397 84.212C134.397 84.2112 134.398 84.2105 134.399 84.2105C134.406 84.1994 134.414 84.1876 134.422 84.1766C134.423 84.175 134.424 84.1726 134.425 84.1711C134.434 84.1577 134.443 84.1435 134.451 84.1285C134.463 84.1072 134.476 84.0859 134.487 84.0639C134.499 84.0418 134.509 84.0197 134.52 83.9961C134.53 83.9748 134.54 83.952 134.548 83.9299ZM134.548 83.9299C134.558 83.9071 134.565 83.8834 134.574 83.8598C134.563 83.8606 134.555 83.8613 134.551 83.8621C134.515 83.9898 134.462 84.1088 134.397 84.212C134.397 84.2112 134.398 84.2105 134.399 84.2105C134.406 84.1994 134.414 84.1876 134.422 84.1766C134.423 84.175 134.424 84.1726 134.425 84.1711C134.434 84.1577 134.443 84.1435 134.451 84.1285C134.463 84.1072 134.476 84.0859 134.487 84.0639C134.499 84.0418 134.509 84.0197 134.52 83.9961C134.53 83.9748 134.54 83.952 134.548 83.9299ZM134.548 83.9299C134.558 83.9071 134.565 83.8834 134.574 83.8598C134.563 83.8606 134.555 83.8613 134.551 83.8621C134.515 83.9898 134.462 84.1088 134.397 84.212C134.397 84.2112 134.398 84.2105 134.399 84.2105C134.406 84.1994 134.414 84.1876 134.422 84.1766C134.423 84.175 134.424 84.1726 134.425 84.1711C134.434 84.1577 134.443 84.1435 134.451 84.1285C134.463 84.1072 134.476 84.0859 134.487 84.0639C134.499 84.0418 134.509 84.0197 134.52 83.9961C134.53 83.9748 134.54 83.952 134.548 83.9299ZM134.548 83.9299C134.558 83.9071 134.565 83.8834 134.574 83.8598C134.563 83.8606 134.555 83.8613 134.551 83.8621C134.515 83.9898 134.462 84.1088 134.397 84.212C134.397 84.2112 134.398 84.2105 134.399 84.2105C134.406 84.1994 134.414 84.1876 134.422 84.1766C134.423 84.175 134.424 84.1726 134.425 84.1711C134.434 84.1577 134.443 84.1435 134.451 84.1285C134.463 84.1072 134.476 84.0859 134.487 84.0639C134.499 84.0418 134.509 84.0197 134.52 83.9961C134.53 83.9748 134.54 83.952 134.548 83.9299ZM134.548 83.9299C134.558 83.9071 134.565 83.8834 134.574 83.8598C134.563 83.8606 134.555 83.8613 134.551 83.8621C134.515 83.9898 134.462 84.1088 134.397 84.212C134.397 84.2112 134.398 84.2105 134.399 84.2105C134.406 84.1994 134.414 84.1876 134.422 84.1766C134.423 84.175 134.424 84.1726 134.425 84.1711C134.434 84.1577 134.443 84.1435 134.451 84.1285C134.463 84.1072 134.476 84.0859 134.487 84.0639C134.499 84.0418 134.509 84.0197 134.52 83.9961C134.53 83.9748 134.54 83.952 134.548 83.9299Z" fill="#331832"/>
<path d="M134.511 83.8589C134.496 83.8519 134.484 83.8392 134.48 83.8219C134.473 83.7928 134.491 83.7636 134.52 83.7565C134.53 83.7541 134.754 83.7061 134.998 83.8905C135.022 83.9086 135.027 83.9433 135.009 83.9669C134.991 83.9905 134.956 83.9945 134.932 83.9764C134.73 83.8227 134.549 83.8621 134.547 83.8621C134.534 83.8652 134.522 83.8637 134.511 83.8589Z" fill="#331832"/>
<path d="M136.972 82.5563C136.972 82.5563 137.616 81.4988 138.566 82.089C139.517 82.6785 139.057 83.1426 138.841 83.4642C138.681 83.7037 138.085 83.9315 137.609 83.6706C137.134 83.4106 136.972 82.5563 136.972 82.5563Z" fill="#EF8062"/>
<path d="M136.584 86.287C136.574 86.287 136.563 86.2814 136.556 86.2712C136.555 86.268 136.344 85.9473 135.944 85.7755C135.927 85.7684 135.919 85.7479 135.926 85.7314C135.933 85.7117 135.952 85.7054 135.97 85.7133C136.39 85.8937 136.604 86.2208 136.613 86.2349C136.623 86.2507 136.619 86.272 136.604 86.2822C136.597 86.2846 136.591 86.287 136.584 86.287Z" fill="#EF8062"/>
<path d="M134.77 85.0733C134.609 85.0733 134.358 85.0402 134.266 84.8448C134.262 84.8353 134.265 84.8243 134.275 84.8196C134.283 84.8164 134.294 84.8188 134.299 84.8282C134.424 85.0962 134.906 85.0308 134.909 85.0276C134.917 85.0284 134.927 85.0331 134.929 85.0434C134.931 85.0536 134.924 85.0631 134.914 85.0646C134.907 85.0654 134.849 85.0733 134.77 85.0733Z" fill="#020202"/>
<path d="M134.606 86.878C134.606 86.878 134.192 87.8039 135.09 87.8473C135.09 87.8473 134.608 88.3012 134.282 88.1073C133.955 87.9135 134.275 87.7543 134.137 87.6266C133.999 87.499 133.847 87.406 133.991 87.2633C134.135 87.1215 134 86.863 134 86.863C134 86.863 134.392 86.7842 134.606 86.878Z" fill="#DAEBE8"/>
<path d="M134.24 89.194C134.242 89.1176 134.18 89.0537 134.102 89.0522C134.025 89.0506 133.96 89.1113 133.958 89.1877C133.957 89.2641 134.019 89.328 134.096 89.3295C134.174 89.3311 134.238 89.2704 134.24 89.194Z" fill="#DAEBE8"/>
<path d="M133.547 93.6402C133.549 93.5637 133.487 93.4999 133.409 93.4983C133.331 93.4967 133.267 93.5574 133.265 93.6339C133.263 93.7103 133.326 93.7741 133.403 93.7757C133.481 93.7773 133.546 93.7166 133.547 93.6402Z" fill="#DAEBE8"/>
<path d="M133.592 91.6195C133.594 91.5431 133.532 91.4793 133.454 91.4777C133.376 91.4761 133.312 91.5368 133.31 91.6132C133.308 91.6897 133.371 91.7535 133.448 91.7551C133.526 91.7567 133.591 91.696 133.592 91.6195Z" fill="#DAEBE8"/>
<path d="M131.087 90.5999C131.087 90.5999 130.515 92.737 130.45 96.2651L133.999 86.8637C133.999 86.8637 131.865 86.9465 129.234 86.2806C127.613 85.8708 124.722 83.3814 124.42 83.2033C124.092 83.011 122.928 84.435 122.928 84.435C122.668 84.8992 126.751 89.5462 131.087 90.5999Z" fill="#358A53"/>
<path d="M137.273 87.376C137.273 87.376 140.367 87.4477 144.664 96.5661C144.789 96.8309 144.689 97.1524 144.438 97.2888L143.439 97.8294C143.009 98.0626 142.48 97.9208 142.212 97.4992C141.306 96.0768 139.233 93.0349 137.536 92.135C135.296 90.9474 137.273 87.376 137.273 87.376Z" fill="#358A53"/>
<path d="M136.636 87.2389L137.273 87.376C137.273 87.376 137.379 87.7054 137.064 87.8023C136.748 87.8985 136.685 87.8969 136.58 88.1333C136.474 88.3697 136.083 88.3705 135.949 88.2846C135.814 88.1987 135.566 88.5037 135.343 88.499C135.12 88.4935 134.998 88.1034 135.09 87.848C135.09 87.848 135.929 87.7267 136.636 87.2389Z" fill="#DAEBE8"/>
<path d="M140.109 94.5676C140.101 94.5676 140.093 94.5629 140.089 94.555C139.616 93.5053 138.422 92.6464 138.41 92.6377C138.4 92.6306 138.397 92.6164 138.405 92.6062C138.412 92.5967 138.425 92.5936 138.435 92.6007C138.447 92.6101 139.65 93.4754 140.129 94.5361C140.134 94.5471 140.129 94.5597 140.118 94.5661C140.116 94.5668 140.112 94.5676 140.109 94.5676Z" fill="#331832"/>
<path d="M131.087 90.6227C131.085 90.6227 131.082 90.6227 131.081 90.6219C131.069 90.618 131.063 90.6062 131.066 90.5943L131.286 89.878C131.289 89.867 131.303 89.8607 131.313 89.863C131.324 89.867 131.331 89.8788 131.327 89.8906L131.108 90.607C131.106 90.6164 131.097 90.6227 131.087 90.6227Z" fill="#331832"/>
<path d="M133.155 98.5299C133.155 98.5299 135.879 110.816 140.666 115.21C141.13 115.635 141.796 115.72 142.349 115.433L143.225 114.98C143.823 114.67 144.066 113.91 143.764 113.288C142.524 110.731 139.583 104.257 138.665 98.6261L133.155 98.5299Z" fill="#EF8062"/>
<path d="M136.088 107.872C136.076 107.839 134.862 104.58 134.455 102.736C134.052 100.91 132.635 100.242 132.621 100.235L132.646 100.178C132.66 100.185 134.105 100.866 134.514 102.722C134.92 104.561 136.133 107.817 136.146 107.849L136.088 107.872Z" fill="#331832"/>
<path d="M79.2448 30.0159C79.2448 30.0159 78.5686 28.7463 76.897 29.0048C75.2253 29.2625 74.0684 31.1294 72.7697 30.0088C71.4702 28.8882 70.0994 28.9378 69.3007 29.9568C68.5021 30.9757 69.5171 32.2271 67.4298 31.8725C65.3425 31.5179 65.2797 33.3903 66.7847 35.2083C68.2897 37.0263 72.665 37.9144 74.5988 37.0192C76.5325 36.124 78.7245 34.8852 79.4735 34.012C80.2225 33.1389 80.5195 30.785 79.2448 30.0159Z" fill="#331832"/>
<path d="M79.0052 30.2255C79.0021 30.2105 78.6911 28.7652 77.3986 28.7227C76.5015 28.6943 75.7347 29.1514 75.0617 29.5557C74.4158 29.9434 73.8575 30.2783 73.3978 29.9962C72.2518 29.2909 71.4183 29.0166 70.2963 29.588L70.256 29.506C71.5307 28.8574 72.4921 29.3311 73.445 29.9174C73.8583 30.1719 74.3693 29.8646 75.0159 29.4768C75.6998 29.0663 76.4744 28.5998 77.4025 28.6313C78.7664 28.6762 79.0912 30.1924 79.0943 30.2074L79.0052 30.2255Z" fill="#331832"/>
<path d="M73.1574 31.6479C72.6348 31.6479 72.0277 31.3768 71.4004 30.8449C71.3942 30.8393 71.3935 30.8291 71.3989 30.8228C71.4043 30.8165 71.4144 30.8181 71.4198 30.8212C72.4945 31.7322 73.504 31.8693 74.1243 31.1884C74.7865 30.4571 75.7378 30.1719 76.4923 30.4816C77.2715 30.7976 77.7716 30.2625 77.777 30.2578C77.7825 30.2515 77.7918 30.2515 77.7987 30.257C77.8049 30.2625 77.8049 30.2727 77.7995 30.2783C77.7956 30.283 77.4878 30.6132 76.9807 30.6132C76.8311 30.6132 76.6636 30.5848 76.4822 30.5099C75.737 30.205 74.8004 30.4887 74.1468 31.2097C73.8785 31.5029 73.5404 31.6479 73.1574 31.6479Z" fill="#331832"/>
<path d="M70.0009 33.7716C68.9526 32.4422 68.3168 30.5406 68.3106 30.5052L69.9265 30.2089C70.8127 32.536 73.3792 34.302 75.6021 34.0608L77.4079 36.6779C76.127 37.1657 72.0983 36.4313 70.0009 33.7716Z" fill="#FFB27D"/>
<path d="M69.8629 30.7306C69.9257 30.4658 69.9319 29.9032 69.9892 29.6368C70.0141 29.521 70.0714 29.1238 69.9613 29.0726C69.866 29.0276 69.6737 29.3066 69.5985 29.4524C69.2426 28.5044 68.4393 27.3909 69.0642 29.3169C69.0635 29.3169 69.0627 29.3176 69.0619 29.3176C68.996 29.1553 68.5517 27.9527 68.3253 28.1088C68.1594 28.223 68.554 29.2034 68.6595 29.4713C68.6572 29.4721 68.6548 29.4737 68.6525 29.4745C68.523 29.2105 68.1733 28.3941 68.009 28.4949C67.7926 28.6273 68.2757 29.6675 68.2757 29.6675C68.2757 29.6675 67.895 28.796 67.726 29.0395C67.6306 29.1766 67.8717 29.6864 68.026 30.0017C68.0586 30.0679 68.0873 30.1254 68.1074 30.1695C68.1245 30.2058 68.1439 30.2365 68.164 30.2625C68.4525 30.7755 68.7176 31.0632 68.7176 31.0632C68.7176 31.0632 68.9743 31.4525 69.417 31.2956C69.7 31.1955 69.8357 30.8457 69.8629 30.7306Z" fill="#FFB27D"/>
<path d="M69.172 54.9512C69.172 54.9512 69.2092 56.3791 69.0092 56.7818C68.8091 57.1845 68.0105 58.0868 68.5959 58.0947C68.9324 58.0994 69.7465 57.1963 70.0024 56.9725C70.2583 56.7487 70.6227 56.6557 70.639 56.3121C70.6467 56.149 70.3746 55.9189 70.2699 55.6328C70.0924 55.145 70.0365 54.5855 70.0365 54.5855C70.0365 54.5855 69.6124 54.1032 69.4093 54.2711C69.117 54.5138 69.172 54.9512 69.172 54.9512Z" fill="#331832"/>
<path d="M80.7971 44.1833C80.6435 44.7066 78.6788 44.5734 76.4085 43.8855C74.1382 43.1975 72.4224 42.2156 72.5759 41.6923C72.7294 41.1691 74.6942 41.3022 76.9644 41.991C79.2347 42.6797 80.9506 43.6601 80.7971 44.1833Z" fill="#331832"/>
<path d="M61.7255 47.635C61.7255 47.635 60.4267 48.118 60.0003 48.0511C59.5746 47.9841 58.5193 47.4971 58.6783 48.0644C58.7698 48.3899 59.8297 48.8927 60.108 49.0692C60.3856 49.2465 60.5748 49.568 60.895 49.4758C61.047 49.4317 61.1804 49.0976 61.413 48.9069C61.81 48.5822 62.307 48.3537 62.307 48.3537C62.307 48.3537 62.6287 47.7941 62.4163 47.6507C62.1108 47.4443 61.7255 47.635 61.7255 47.635Z" fill="#331832"/>
<path d="M79.4254 35.9522C79.4254 35.9522 78.9199 34.1941 76.7589 34.1358C75.7378 34.1082 74.7748 34.0656 74.1638 35.8443C73.6148 37.4408 73.2985 38.2029 72.5751 41.6915C72.5751 41.6915 76.9458 40.9027 80.797 44.1833C81.2739 42.5371 81.2452 38.8459 80.9203 36.3202C80.8187 35.5314 79.6014 36.5157 79.4254 35.9522Z" fill="#EF8062"/>
<path d="M81.5143 35.1981L81.0204 37.2367C81.0204 37.2367 74.7546 38.0303 74.2437 37.0917C73.4831 35.6929 73.8886 33.8852 73.8886 33.8852C73.8886 33.8852 75.4912 34.0034 76.6225 33.9388C77.4614 33.8907 77.684 33.793 78.6617 34.0964C80.9064 34.7922 81.5143 35.1981 81.5143 35.1981Z" fill="#EF8062"/>
<path d="M81.5143 35.1981C81.6724 35.4321 81.4507 36.2556 80.9723 36.827C80.4729 37.4235 79.9744 37.8656 79.6518 37.6552C79.1967 37.3589 79.8069 36.2304 80.2962 35.7213C80.9351 35.057 81.4011 35.031 81.5143 35.1981Z" fill="#331832"/>
<path d="M76.6403 34.6818C76.3565 34.5407 76.6225 33.9379 76.6225 33.9379C76.8683 33.915 77.0296 33.8835 77.0714 33.6944L77.1218 33.4611L77.1466 33.3453L77.2273 32.9765L77.2994 32.6447L77.5948 31.2845L77.7661 32.7353L77.7956 32.982C77.7956 32.982 77.8305 33.8819 78.3686 34.0159C78.3872 34.0064 77.2575 34.9891 76.6403 34.6818Z" fill="#FFB27D"/>
<path d="M77.7956 32.982C77.7956 32.982 77.5126 33.3563 77.1474 33.3453L77.228 32.9765C77.4583 32.9631 77.7956 32.982 77.7956 32.982Z" fill="#F09962"/>
<path d="M79.1509 31.5186C79.1509 31.5186 79.0354 31.7219 79.0284 32.2073C79.0183 32.9174 78.1957 32.9662 78.0608 32.7212C78.0437 32.6912 78.4027 31.5864 78.4027 31.5864L78.6818 31.5162L79.1509 31.5186Z" fill="#331832"/>
<path d="M78.7092 31.8543C78.9591 31.0022 78.6065 30.1433 77.9216 29.9357C77.2367 29.7282 76.4789 30.2507 76.2289 31.1028C75.979 31.9549 76.3316 32.8139 77.0165 33.0214C77.7014 33.2289 78.4592 32.7064 78.7092 31.8543Z" fill="#FFB27D"/>
<path d="M77.3482 31.4579C77.3404 31.4532 77.335 31.4453 77.3342 31.4351C77.3327 31.4185 77.3443 31.4043 77.3606 31.4027C77.3699 31.402 77.5886 31.361 77.7018 31.5958C77.7087 31.6108 77.7033 31.6281 77.6886 31.636C77.6738 31.6431 77.6591 31.6352 77.649 31.6226C77.5451 31.4957 77.3738 31.4611 77.366 31.4619C77.3598 31.4626 77.3536 31.4611 77.3482 31.4579Z" fill="#080435"/>
<path d="M77.556 31.8505C77.5382 31.919 77.4839 31.9639 77.4343 31.9506C77.3846 31.9372 77.3598 31.871 77.3769 31.8024C77.3947 31.7338 77.449 31.6889 77.4986 31.7023C77.549 31.7157 77.5738 31.7819 77.556 31.8505Z" fill="#080435"/>
<path d="M76.2984 31.3012C76.2899 31.2996 76.2813 31.2941 76.2775 31.2854C76.2697 31.2712 76.2751 31.2531 76.2899 31.2452C76.2984 31.2405 76.4845 31.1184 76.6775 31.2925C76.6899 31.3036 76.6915 31.3217 76.6806 31.3343C76.6698 31.3469 76.6535 31.3453 76.6388 31.3374C76.4953 31.2594 76.324 31.2941 76.317 31.298C76.3108 31.3012 76.3038 31.302 76.2984 31.3012Z" fill="#080435"/>
<path d="M76.6636 31.5825C76.6729 31.6526 76.6396 31.7149 76.5892 31.722C76.5388 31.7291 76.4899 31.6771 76.4806 31.6069C76.4713 31.5368 76.5047 31.4745 76.5551 31.4674C76.6062 31.4604 76.6543 31.5124 76.6636 31.5825Z" fill="#080435"/>
<path d="M76.562 32.2137C76.562 32.2137 76.6008 32.5108 76.8442 32.5857C77.1443 32.6779 77.2963 32.3792 77.2963 32.3792C77.2963 32.3792 76.8931 32.3926 76.562 32.2137Z" fill="white"/>
<path d="M74.5957 42.5228C74.5957 42.5228 69.7 45.5418 68.7541 47.7373C67.8082 49.9328 67.7314 54.3057 68.6797 54.8794C69.6272 55.453 70.5723 55.4893 71.0949 53.5704C71.6175 51.6523 71.6679 49.0589 73.4086 48.3347C75.1501 47.6112 80.1558 45.0934 79.5386 43.9847C78.9222 42.8759 75.3486 42.035 74.5957 42.5228Z" fill="#73B3CE"/>
<path d="M72.741 41.831C72.741 41.831 67.2925 42.69 65.8023 43.5742C64.312 44.4583 61.3788 46.5033 61.4354 47.5033C61.492 48.5034 62.4721 49.0274 63.3374 48.8564C64.2027 48.6846 67.6748 46.4466 68.9107 46.1455C72.1603 45.3543 75.9347 45.0699 75.9347 45.0699L76.655 42.5426C76.655 42.5426 74.9322 41.8003 72.741 41.831Z" fill="#73B3CE"/>
<path d="M70.0373 46.0778L69.9939 46.0352C70.5584 45.4261 72.6991 43.7728 72.7208 43.7562L72.7573 43.8043C72.7356 43.8201 70.5979 45.471 70.0373 46.0778Z" fill="#331832"/>
<path d="M77.8003 30.4303C77.8003 30.4303 77.6778 30.9946 76.959 30.9394C76.2402 30.8843 75.796 31.5297 75.796 31.5297L76.1495 29.6817L77.8134 29.5477L78.7408 29.9654L78.8664 31.5722L78.7245 32.298L78.5733 31.6841C78.5718 31.6833 78.2492 30.5604 77.8003 30.4303Z" fill="#331832"/>
<path d="M78.6562 32.142C78.4764 32.235 78.2755 32.1893 78.2089 32.0396C78.1414 31.8907 78.2337 31.6944 78.4136 31.6022C78.5934 31.5092 78.7943 31.5549 78.8609 31.7047C78.9284 31.8536 78.8369 32.0498 78.6562 32.142Z" fill="#FFB27D"/>
<path d="M83.7969 41.6506C83.6884 43.3512 82.8944 45.1905 82.8758 45.2204L81.4871 44.3307C82.3323 42.1258 81.5437 38.8711 79.9256 37.392C79.772 37.2517 79.7813 37.0421 79.8535 36.8459C80.1737 35.9656 81.1669 34.9601 81.5841 35.4841C82.6827 36.8679 83.9427 39.3747 83.7969 41.6506Z" fill="#FFB27D"/>
<path d="M81.8786 43.9894C81.6569 44.1423 81.2785 44.5528 81.0591 44.7097C80.9637 44.7782 80.6582 45.032 80.7047 45.1454C80.7458 45.2439 81.073 45.1699 81.225 45.1139C80.8583 46.058 80.7117 47.43 81.5297 45.5804C81.5305 45.5812 81.5313 45.5812 81.5321 45.582C81.4731 45.7467 81.0025 46.9398 81.2731 46.9792C81.4716 47.0084 81.8313 46.0147 81.9306 45.7444C81.9329 45.7451 81.9352 45.7459 81.9376 45.7467C81.8577 46.0304 81.5731 46.8728 81.7616 46.9114C82.0089 46.9619 82.3431 45.8626 82.3431 45.8626C82.3431 45.8626 82.0453 46.7664 82.3314 46.7026C82.4927 46.6664 82.6532 46.1258 82.7486 45.7869C82.7688 45.716 82.7858 45.6537 82.7998 45.6072C82.8114 45.5686 82.8176 45.5332 82.8199 45.4993C82.9471 44.9224 82.9432 44.5292 82.9432 44.5292C82.9432 44.5292 83.0122 44.0658 82.5819 43.8775C82.3082 43.7585 81.9748 43.9232 81.8786 43.9894Z" fill="#FFB27D"/>
<path opacity="0.6" d="M110.122 56.7396C122.365 57.207 132.466 66.159 131.659 76.5365L131.612 77.0326C130.705 85.203 127.824 89.9943 123.625 92.6791L123.215 92.932L123.208 92.9359C122.707 93.2442 120.544 94.6351 118.459 96.9076C116.466 99.0801 114.507 102.102 114.194 105.787L104.148 105.404C104.139 105.166 104.122 104.851 104.079 104.474C103.982 103.603 103.763 102.398 103.282 101.053C102.316 98.358 100.289 95.1048 96.0716 92.8754L96.056 92.8676L95.512 92.5951C90.1343 89.8121 86.7387 85.2459 86.7816 79.0765L86.7982 78.4545C87.0321 73.086 89.7707 67.5323 94.0198 63.3763C98.1332 59.3532 103.624 56.6769 109.548 56.7269L110.122 56.7396Z" fill="white" stroke="#85BA09"/>
<path d="M116.084 109.072C116.084 109.072 117.632 111.458 115.942 113.651C115.47 114.264 114.211 114.59 112.623 114.714C108.528 115.036 102.242 114.015 101.612 113.104C100.736 111.838 101.263 110.422 102.273 110.118C102.273 110.118 100.918 108.949 101.349 107.574C101.78 106.198 102.521 105.953 102.521 105.953C102.521 105.953 101.484 105.298 101.467 103.45C101.46 102.718 101.792 101.918 102.848 101.335C104.462 100.443 107.765 100.059 114.123 101.205C114.123 101.205 116.992 101.75 116.154 105.002C116.153 105.004 118.097 107.302 116.084 109.072Z" fill="#9CDA0A"/>
<path opacity="0.9" d="M108.232 66.5527C108.232 66.5527 103 67.823 99.8338 71.9634C96.6672 76.1038 92.4957 73.0013 93.427 68.6111C94.3574 64.2209 99.8508 60.5573 103.027 61.3374C106.205 62.1168 111.102 63.7394 108.232 66.5527Z" fill="white"/>
<path d="M116.103 109.275C116.072 109.278 116.04 109.274 116.009 109.262C115.999 109.258 114.939 108.831 113.317 108.578C111.825 108.345 109.536 108.216 107.107 108.924C107 108.954 106.89 108.892 106.859 108.784C106.828 108.676 106.89 108.563 106.996 108.532C109.499 107.803 111.855 107.937 113.389 108.177C115.053 108.438 116.113 108.866 116.157 108.884C116.261 108.926 116.31 109.045 116.269 109.149C116.241 109.221 116.175 109.268 116.103 109.275Z" fill="#85BA09"/>
<path d="M116.172 105.206C116.148 105.209 116.123 105.206 116.098 105.199C116.083 105.195 114.633 104.776 112.728 104.523C110.98 104.291 108.48 104.155 106.496 104.826C106.392 104.861 106.278 104.804 106.243 104.696C106.208 104.589 106.265 104.474 106.37 104.439C108.427 103.744 110.994 103.882 112.786 104.12C114.72 104.377 116.194 104.803 116.209 104.807C116.315 104.838 116.377 104.951 116.346 105.059C116.322 105.142 116.251 105.198 116.172 105.206Z" fill="#85BA09"/>
<path d="M112.623 114.715C108.527 115.037 102.241 114.016 101.611 113.105C100.736 111.839 101.263 110.423 102.272 110.119C102.272 110.119 100.918 108.949 101.348 107.574C101.779 106.199 102.52 105.954 102.52 105.954C102.52 105.954 101.484 105.299 101.466 103.45C101.459 102.719 101.791 101.919 102.848 101.335L102.85 101.335C102.85 101.335 101.474 104.912 104.726 106.014C104.726 106.014 105.241 106.289 104.834 106.73C104.428 107.171 104.915 109.594 105.944 110.09C106.974 110.585 105.7 112.485 107.001 113.45C108.002 114.191 111.201 114.576 112.623 114.715Z" fill="#85BA09"/>
<path d="M101.352 85.9087C99.1011 82.7431 100.214 75.9297 109.315 72.3527C117.339 69.199 119.923 65.299 119.923 65.299C119.923 65.299 122.95 74.9816 118.609 82.4578C113.313 91.581 104.265 90.0049 101.352 85.9087Z" fill="#9CDA0A"/>
<path d="M101.967 92.808C101.813 92.808 101.676 92.6976 101.645 92.5392C101.629 92.4589 100.204 84.4571 109.999 78.3308C117.969 73.3441 119.585 65.3155 119.6 65.2351C119.635 65.0539 119.81 64.9317 119.985 64.9719C120.163 65.0074 120.278 65.1815 120.244 65.362C120.228 65.4463 118.566 73.7539 110.342 78.8982C100.932 84.7849 102.274 92.3336 102.289 92.41C102.323 92.5913 102.208 92.767 102.03 92.8017C102.009 92.8056 101.988 92.808 101.967 92.808Z" fill="#85BA09"/>
<path d="M105.917 82.0275C105.775 82.0275 105.645 81.9345 105.602 81.7903C104.579 78.3458 105.572 75.943 105.615 75.8429C105.687 75.6751 105.879 75.5978 106.046 75.6688C106.213 75.7405 106.289 75.9375 106.218 76.1069C106.209 76.129 105.281 78.3986 106.231 81.5972C106.282 81.7737 106.185 81.9597 106.011 82.0133C105.98 82.0228 105.948 82.0275 105.917 82.0275Z" fill="#85BA09"/>
<path d="M112.542 78.5176C111.602 78.5176 110.952 78.4743 110.88 78.4687C110.699 78.4561 110.562 78.2969 110.575 78.1125C110.587 77.9289 110.744 77.7816 110.925 77.8028C110.973 77.8044 115.899 78.1354 118.668 76.925C118.833 76.8509 119.028 76.9305 119.099 77.0999C119.171 77.2701 119.094 77.4656 118.927 77.5388C117.031 78.3671 114.288 78.5176 112.542 78.5176Z" fill="#85BA09"/>
<path d="M94.1728 94.9768C93.8564 94.9374 93.5525 94.8278 93.2687 94.6513C92.3515 94.0784 91.7358 92.8672 91.2737 90.7253C91.0605 89.7387 90.4386 88.5503 90.4324 88.5385L92.5003 87.4108C92.5321 87.4707 93.2819 88.8994 93.5657 90.2139C93.7262 90.9578 93.8115 86.261 94.2077 85.8174C94.4504 85.5455 95.4273 85.9931 95.4273 85.9931C95.5839 86.5959 95.9732 87.8411 96.2027 89.719C96.3415 90.8561 96.3996 91.7892 96.3748 92.4921C96.357 92.9878 96.2988 93.3865 96.1965 93.7112C95.9267 94.567 95.3606 94.8326 95.0482 94.9153C94.7512 94.9925 94.4573 95.013 94.1728 94.9768Z" fill="#FFB27D"/>
<path d="M94.4814 94.7442C94.2271 94.7442 94.0278 94.6441 94.0278 94.5157C94.0278 94.4787 94.0441 94.4424 94.0744 94.4109C94.1503 94.3344 94.307 94.2848 94.4837 94.2848C94.4853 94.2848 94.4861 94.2848 94.4876 94.2848C94.7419 94.2848 94.9412 94.3849 94.9412 94.5133C94.9412 94.6418 94.7404 94.7434 94.4853 94.7434C94.4837 94.7442 94.4822 94.7442 94.4814 94.7442ZM94.4837 94.3486C94.3256 94.3486 94.1821 94.3904 94.1178 94.4558C94.0984 94.4755 94.0883 94.4952 94.0883 94.5157C94.0891 94.5945 94.2496 94.6812 94.4814 94.6812C94.4822 94.6812 94.4837 94.6812 94.4853 94.6812C94.7179 94.6812 94.8807 94.5937 94.8807 94.5141C94.88 94.4353 94.7195 94.3486 94.4876 94.3486C94.4861 94.3486 94.4853 94.3486 94.4837 94.3486Z" fill="#E9845C"/>
<path d="M93.3292 92.6229C93.3145 92.6229 93.3013 92.611 93.299 92.5953C93.2974 92.5827 93.14 91.2714 93.6192 90.2438C93.6269 90.2272 93.644 90.2185 93.6603 90.2288C93.675 90.2359 93.682 90.2548 93.675 90.2698C93.2036 91.2808 93.3579 92.5748 93.3602 92.5882C93.3618 92.6047 93.3501 92.6205 93.3331 92.6221C93.3315 92.6221 93.3308 92.6229 93.3292 92.6229Z" fill="#E9845C"/>
<path d="M95.6483 87.5297C95.6483 87.5297 96.9052 87.6384 97.3967 87.1404C97.8883 86.6424 98.1465 85.6282 97.7767 85.8709C97.4076 86.1136 97.0199 86.5573 97.0199 86.5573C97.0199 86.5573 97.8046 85.5714 97.4975 85.4847C97.1913 85.398 96.5175 86.2625 96.5175 86.2625C96.5175 86.2625 97.3587 85.0135 97.0432 85.0269C96.7276 85.0403 96.0949 85.9938 96.0949 85.9938C96.0949 85.9938 96.8323 84.7999 96.4655 84.8243C96.0988 84.8488 95.8631 85.8149 95.556 85.7282C95.249 85.6415 94.0596 85.3444 94.0596 86.2176L95.6483 87.5297Z" fill="#FFB27D"/>
<path d="M96.6214 86.9103C96.6074 86.9103 96.5966 86.9 96.5958 86.8866C96.595 86.8717 96.6051 86.8598 96.6191 86.859C96.8207 86.8464 96.9959 86.547 96.9974 86.5438C97.0052 86.5312 97.0207 86.5265 97.0331 86.5344C97.0447 86.5415 97.0494 86.5572 97.0424 86.5698C97.0347 86.584 96.8517 86.8961 96.623 86.9111C96.6222 86.9103 96.6214 86.9103 96.6214 86.9103Z" fill="#E9845C"/>
<path d="M96.0414 86.6793C96.0297 86.6793 96.0197 86.6722 96.0166 86.6596C96.0127 86.6454 96.0204 86.6321 96.0344 86.6281C96.3252 86.5485 96.4934 86.2506 96.495 86.2483C96.5019 86.2365 96.5167 86.2317 96.5298 86.238C96.5423 86.2451 96.5461 86.2609 96.5392 86.2743C96.5322 86.2869 96.3593 86.5934 96.0476 86.6786C96.046 86.6793 96.0437 86.6793 96.0414 86.6793Z" fill="#E9845C"/>
<path d="M95.6529 86.387C95.6514 86.387 95.6498 86.387 95.6483 86.387C95.6343 86.387 95.6227 86.3751 95.6234 86.3602C95.6234 86.346 95.6351 86.335 95.649 86.335H95.6498C95.6514 86.335 95.6529 86.335 95.6537 86.335C95.8661 86.335 96.0724 85.9827 96.0739 85.9788C96.0817 85.9662 96.098 85.9614 96.1088 85.9693C96.1212 85.9764 96.1251 85.9922 96.1181 86.0048C96.1088 86.0213 95.8948 86.387 95.6529 86.387Z" fill="#E9845C"/>
<path d="M89.0802 116.402C89.0802 116.402 89.1167 117.114 89.5966 117.302C90.0766 117.49 91.4559 117.634 90.9543 118.106C90.6666 118.377 89.2733 118.245 88.881 118.256C88.4886 118.267 88.125 118.45 87.8265 118.191C87.4977 117.906 87.7799 116.437 87.7799 116.437C87.7799 116.437 88.1234 116.607 88.4274 116.59C88.8655 116.568 89.0802 116.402 89.0802 116.402Z" fill="#331832"/>
<path d="M92.6027 94.7853C92.6027 94.7853 92.7826 97.9981 91.9367 104.195C91.3257 108.669 90.5844 113.18 90.2192 115.343C90.089 116.117 89.4664 116.697 88.7127 116.748L88.3072 116.776C87.4923 116.832 86.8107 116.137 86.848 115.289L87.4861 100.705L87.6117 95.9075L92.6027 94.7853Z" fill="#367743"/>
<path d="M84.587 116.525C84.587 116.525 84.6234 117.237 85.1034 117.425C85.5833 117.613 86.9627 117.757 86.4611 118.229C86.1734 118.5 84.7801 118.368 84.3877 118.378C83.9954 118.39 83.6318 118.573 83.3332 118.314C83.0045 118.029 83.2867 116.56 83.2867 116.56C83.2867 116.56 83.6302 116.73 83.9341 116.713C84.3722 116.691 84.587 116.525 84.587 116.525Z" fill="#331832"/>
<path d="M88.1095 94.9089C88.1095 94.9089 88.2894 98.1218 87.4434 104.319C86.8324 108.793 86.0912 113.303 85.726 115.467C85.5957 116.24 84.9731 116.82 84.2195 116.872L83.814 116.899C82.999 116.955 82.3175 116.261 82.3547 115.412L82.9928 100.829L83.1185 96.0311L88.1095 94.9089Z" fill="#367743"/>
<path d="M82.6897 98.5836C82.7099 98.9713 85.022 99.0619 87.8746 98.8933C90.7271 98.7246 92.9982 98.2605 92.978 97.8728C92.9578 97.4851 90.655 97.3204 87.8025 97.489C84.9499 97.6584 82.6695 98.1959 82.6897 98.5836Z" fill="#331832"/>
<path d="M83.0975 87.5809C83.0975 87.5809 83.548 85.5336 87.2728 85.4107C92.6438 85.2334 92.2794 90.2634 92.9787 97.8736C92.9787 97.8736 87.6675 97.2581 82.685 98.489C82.685 98.4883 82.0136 90.7197 83.0975 87.5809Z" fill="#FFD600"/>
<path d="M81.7151 87.3272L84.1838 88.6283C84.1838 88.6283 89.5238 88.9742 90.931 88.6984C92.3391 88.4226 92.6989 87.3572 92.6989 87.3572C92.6989 87.3572 91.1505 85.815 88.5794 85.4619C88.3375 85.4288 88.0878 85.406 87.8288 85.3957C87.3938 85.3792 86.9589 85.3973 86.5355 85.4572C83.3015 85.9174 81.7151 87.3272 81.7151 87.3272Z" fill="#FFD600"/>
<path d="M86.7479 84.9591L87.0046 84.0292L87.079 83.7581L87.5186 82.1663L87.6233 83.7352L87.6861 84.677L87.7063 84.9748C87.7194 85.1774 87.8427 85.2168 87.9947 85.3886C88.0567 85.4579 88.4514 85.8803 88.0211 86.0876C87.4853 86.346 86.4626 86.0048 86.0648 85.5328C86.0687 85.532 86.665 85.2601 86.7479 84.9591Z" fill="#FFB27D"/>
<path d="M92.5368 98.1998C92.5368 98.1998 89.4191 97.3597 83.0464 98.805L83.0215 99.7428L92.422 99.8224L92.5368 98.1998Z" fill="#367743"/>
<path d="M83.8033 88.8747C84.0056 88.5751 83.6905 87.998 83.0994 87.5858C82.5084 87.1735 81.8653 87.0823 81.6629 87.3819C81.4606 87.6815 81.7758 88.2586 82.3668 88.6708C82.9578 89.0831 83.601 89.1743 83.8033 88.8747Z" fill="#331832"/>
<path d="M81.3406 99.4387C81.498 96.9264 81.8888 93.1832 82.9898 90.3131C83.2449 89.648 83.3519 89.3982 83.555 89.0334C83.7186 88.7394 83.3953 88.1129 82.9045 87.8237C82.4439 87.5518 81.7391 87.618 81.6313 87.7615C81.4476 88.0058 81.2576 88.4699 80.9614 89.2059C79.9325 91.7639 79.175 95.1872 79.0207 99.4056L81.3406 99.4387Z" fill="#FFB27D"/>
<path d="M88.4266 81.2821C88.4266 81.2821 88.5987 81.6367 88.5972 82.1261C88.5956 82.6155 87.8931 81.5595 87.8931 81.5595L88.4266 81.2821Z" fill="#5C305D"/>
<path d="M87.9231 84.3047C88.6438 84.0512 88.9842 83.1295 88.6833 82.246C88.3824 81.3626 87.5543 80.8519 86.8335 81.1055C86.1128 81.359 85.7725 82.2808 86.0733 83.1642C86.3742 84.0476 87.2024 84.5583 87.9231 84.3047Z" fill="#FFB27D"/>
<path d="M85.9408 82.7006L86.5812 82.4949C86.7224 82.45 86.8379 82.3436 86.8906 82.2033C86.9813 81.9622 87.1209 81.8188 87.7365 81.7148C88.5158 81.5824 88.9321 81.0079 88.9321 80.5784C88.9329 80.141 88.4793 79.9385 88.1312 80.2198C87.783 80.5012 87.8505 79.9755 87.4667 80.0015C86.7487 80.0496 86.7286 80.6241 86.154 80.7258C85.3996 80.8589 84.1745 81.7179 85.0825 82.926L85.9408 82.7006Z" fill="#331832"/>
<path d="M87.4326 82.6249C87.4388 82.6186 87.4419 82.61 87.4411 82.6013C87.4396 82.5855 87.4256 82.5745 87.4101 82.5761C87.4008 82.5769 87.1891 82.5824 87.131 82.8251C87.1271 82.8401 87.1356 82.8558 87.1512 82.8598C87.1659 82.8637 87.1783 82.8535 87.1853 82.8393C87.2566 82.6998 87.4094 82.6336 87.4171 82.632C87.4225 82.632 87.428 82.6289 87.4326 82.6249Z" fill="#080435"/>
<path d="M87.3861 83.0072C87.4163 83.0679 87.476 83.0986 87.5187 83.0766C87.5621 83.0545 87.5722 82.9875 87.5419 82.9268C87.5117 82.8662 87.452 82.8354 87.4093 82.8575C87.3667 82.8795 87.3558 82.9465 87.3861 83.0072Z" fill="#080435"/>
<path d="M88.4305 82.3302C88.4367 82.3278 88.4413 82.3215 88.4429 82.3129C88.4452 82.2987 88.4367 82.2829 88.4243 82.2774C88.4173 82.2743 88.2521 82.1844 88.1513 82.368C88.1451 82.3799 88.1482 82.3972 88.1583 82.4074C88.1692 82.4177 88.1808 82.4145 88.1893 82.4051C88.2769 82.316 88.4103 82.3271 88.4157 82.3294C88.4211 82.3318 88.4258 82.3318 88.4305 82.3302Z" fill="#080435"/>
<path d="M88.2382 82.6683C88.2436 82.736 88.287 82.788 88.3351 82.7841C88.3832 82.7802 88.4181 82.7226 88.4134 82.6549C88.408 82.5871 88.3646 82.5351 88.3165 82.539C88.2676 82.5422 88.2327 82.6005 88.2382 82.6683Z" fill="#080435"/>
<path d="M85.0825 82.926C85.0825 82.926 85.7353 83.8235 86.3913 83.7621C86.3913 83.7621 85.7198 83.1143 86.72 82.4255C86.7192 82.4255 85.6834 82.4744 85.0825 82.926Z" fill="#5C305D"/>
<path d="M86.0966 83.2846C86.2517 83.3445 86.42 83.279 86.4727 83.138C86.5254 82.9969 86.4424 82.8346 86.2874 82.7739C86.1323 82.714 85.964 82.7794 85.9113 82.9205C85.8586 83.0615 85.9416 83.2239 86.0966 83.2846Z" fill="#FFB27D"/>
<path d="M86.7495 82.4768C86.7495 82.4768 86.8301 83.3271 87.0286 83.45C87.2271 83.5722 88.3072 83.3657 88.7801 83.0568L88.7832 83.0584C88.8995 83.5879 88.6592 84.179 88.1614 84.3768C87.9939 84.4438 87.814 84.4816 87.6287 84.4879C87.2565 84.4989 86.8758 84.4209 86.6595 84.1128C86.5936 84.019 86.5967 83.3571 86.5967 83.3571C86.5967 83.3571 86.5711 82.9741 86.3184 82.8251C86.3184 82.8259 86.5192 82.5493 86.7495 82.4768Z" fill="#5C305D"/>
<path d="M87.9746 80.1789C87.8211 80.1789 87.7776 80.0402 87.7769 80.0386L87.8133 80.0276C87.8149 80.0331 87.849 80.1403 87.9746 80.1403C87.9932 80.1403 88.0141 80.1387 88.0374 80.1332L88.0459 80.1702C88.0203 80.1757 87.9963 80.1789 87.9746 80.1789Z" fill="#331832"/>
<path d="M87.9118 81.4476L87.9025 81.431C87.911 81.4263 88.6833 81.0078 88.6298 80.5689C88.615 80.446 88.5786 80.3695 88.5189 80.3349C88.422 80.2813 88.2808 80.3475 88.1568 80.405C88.1374 80.4144 88.1188 80.4231 88.1002 80.431L88.0932 80.4144C88.111 80.4058 88.1297 80.3971 88.149 80.3884C88.2785 80.3278 88.422 80.26 88.529 80.3183C88.5941 80.3553 88.6336 80.4365 88.6491 80.5673C88.7034 81.0181 87.9436 81.4302 87.9118 81.4476Z" fill="white"/>
<path d="M85.8633 80.9472L85.8625 80.929C86.6882 80.8715 86.9821 80.3317 86.9852 80.3262L87.0015 80.3356C86.9992 80.3404 86.7007 80.8896 85.8633 80.9472Z" fill="white"/>
<path d="M80.5745 93.6646C80.5629 93.6646 80.552 93.6639 80.5404 93.6615C80.4675 93.6512 80.4024 93.6103 80.3512 93.5425C80.2737 93.4377 80.2395 93.2801 80.2612 93.1193H80.2605C80.2783 92.9909 80.3279 92.8734 80.4031 92.7891C80.4814 92.7001 80.5791 92.6559 80.6737 92.6725C80.8645 92.6985 80.9893 92.942 80.9529 93.2162C80.9187 93.4724 80.7528 93.6646 80.5745 93.6646ZM80.6396 92.7639C80.5822 92.7639 80.5233 92.7946 80.4721 92.8514C80.4101 92.9215 80.3682 93.0208 80.3535 93.1311H80.3527C80.3349 93.2667 80.3613 93.3999 80.4248 93.485C80.4605 93.5323 80.5047 93.5606 80.5528 93.5685C80.5598 93.5693 80.5675 93.5693 80.5745 93.5693C80.7048 93.5693 80.8335 93.4085 80.8622 93.2021C80.8916 92.9798 80.8017 92.7836 80.6613 92.7639C80.6544 92.7639 80.6474 92.7639 80.6396 92.7639Z" fill="#EC865C"/>
<path d="M79.0587 98.5671C79.0587 98.5671 81.049 98.6278 81.1173 98.7736C81.2739 99.1109 81.4336 99.8477 81.584 100.188C81.6491 100.336 81.8337 100.848 81.698 100.932C81.5794 101.006 81.2421 100.67 81.1002 100.49C80.9032 101.537 80.338 102.982 80.4078 100.75C80.4062 100.75 80.4055 100.75 80.4039 100.749C80.3574 100.971 80.1263 102.368 79.8069 102.325C79.5642 102.291 79.741 100.978 79.8139 100.611C79.8108 100.61 79.8077 100.608 79.8038 100.607C79.6983 100.974 79.5208 102.073 79.2448 102.008C79.0098 101.953 79.2269 100.428 79.2269 100.428C79.2269 100.428 78.93 101.67 78.7299 101.432C78.5469 101.214 78.7927 100.042 78.8664 99.6877C78.9431 99.3189 79.0587 98.5671 79.0587 98.5671Z" fill="#FFB27D"/>
<path d="M91.7699 88.4903C91.6009 87.9292 91.0636 87.2326 91.0582 87.2255L91.1062 87.1869C91.1117 87.194 91.656 87.8993 91.8281 88.4714L91.7699 88.4903Z" fill="#331832"/>
<path d="M87.307 105.579L87.2457 105.572C87.2496 105.545 87.5954 102.912 87.8567 101.966C88.1203 101.011 89.333 100.187 89.3454 100.179L89.3787 100.231C89.3671 100.24 88.1731 101.05 87.9156 101.983C87.6559 102.924 87.3101 105.553 87.307 105.579Z" fill="#331832"/>
<path d="M87.5745 83.6115C87.5745 83.6115 88.1823 83.6375 88.4685 83.446C88.4685 83.446 88.4816 83.7904 88.1668 83.859C87.7071 83.9598 87.5745 83.6115 87.5745 83.6115Z" fill="white"/>
<path opacity="0.1" d="M123.464 43.8388C129.322 37.8857 129.322 28.2339 123.464 22.2808C117.607 16.3278 108.111 16.3278 102.253 22.2808C96.3962 28.2339 96.3962 37.8857 102.253 43.8388C108.111 49.7918 117.607 49.7919 123.464 43.8388Z" fill="#FFE690"/>
<path opacity="0.4" d="M120.373 40.7423C124.523 36.5246 124.523 29.6864 120.373 25.4687C116.223 21.251 109.495 21.251 105.345 25.4687C101.195 29.6864 101.195 36.5246 105.345 40.7422C109.495 44.9599 116.223 44.9599 120.373 40.7423Z" fill="#FFE690"/>
<path d="M112.86 40.7153C116.995 40.7153 120.348 37.3081 120.348 33.1051C120.348 28.9022 116.995 25.495 112.86 25.495C108.725 25.495 105.372 28.9022 105.372 33.1051C105.372 37.3081 108.725 40.7153 112.86 40.7153Z" fill="#FFE690"/>
</svg>
