<svg width="29" height="27" viewBox="0 0 29 27" fill="none" xmlns="http://www.w3.org/2000/svg">
<path d="M27.265 9.37931L19.0827 8.19015L15.4249 0.774817C15.325 0.571789 15.1607 0.407434 14.9577 0.307531C14.4485 0.0561643 13.8297 0.265637 13.5751 0.774817L9.91742 8.19015L1.7351 9.37931C1.50951 9.41154 1.30326 9.51788 1.14535 9.67902C0.954445 9.87523 0.849248 10.1392 0.852874 10.413C0.8565 10.6867 0.968651 10.9478 1.16469 11.1389L7.0847 16.9107L5.68607 25.0608C5.65327 25.2503 5.67425 25.4453 5.74663 25.6236C5.81901 25.8019 5.93989 25.9563 6.09557 26.0694C6.25125 26.1824 6.43549 26.2496 6.62741 26.2633C6.81933 26.277 7.01124 26.2366 7.18138 26.1468L14.5 22.2989L21.8187 26.1468C22.0185 26.2531 22.2505 26.2886 22.4729 26.2499C23.0336 26.1532 23.4107 25.6215 23.314 25.0608L21.9154 16.9107L27.8354 11.1389C27.9965 10.981 28.1029 10.7747 28.1351 10.5491C28.2221 9.98517 27.8289 9.4631 27.265 9.37931Z" fill="#FFD500"/>
</svg>
